# Blender-compatible OBJ
mtllib default.mtl

v -2.500000 0.000000 -5.000000
v 2.500000 0.000000 -5.000000
v 2.500000 0.000000 5.000000
v -2.500000 0.000000 5.000000
v -2.500000 4.000000 5.000000
v 2.500000 4.000000 5.000000
v -2.500000 4.162162 5.000000
v 2.500000 4.162162 5.000000
v -2.500000 4.162162 4.729730
v 2.500000 4.162162 4.729730
v -2.500000 4.324324 4.729730
v 2.500000 4.324324 4.729730
v -2.500000 4.324324 4.459459
v 2.500000 4.324324 4.459459
v -2.500000 4.486486 4.459459
v 2.500000 4.486486 4.459459
v -2.500000 4.486486 4.189189
v 2.500000 4.486486 4.189189
v -2.500000 4.648649 4.189189
v 2.500000 4.648649 4.189189
v -2.500000 4.648649 3.918919
v 2.500000 4.648649 3.918919
v -2.500000 4.810811 3.918919
v 2.500000 4.810811 3.918919
v -2.500000 4.810811 3.648649
v 2.500000 4.810811 3.648649
v -2.500000 4.972973 3.648649
v 2.500000 4.972973 3.648649
v -2.500000 4.972973 3.378378
v 2.500000 4.972973 3.378378
v -2.500000 5.135135 3.378378
v 2.500000 5.135135 3.378378
v -2.500000 5.135135 3.108108
v 2.500000 5.135135 3.108108
v -2.500000 5.297297 3.108108
v 2.500000 5.297297 3.108108
v -2.500000 5.297297 2.837838
v 2.500000 5.297297 2.837838
v -2.500000 5.459459 2.837838
v 2.500000 5.459459 2.837838
v -2.500000 5.459459 2.567568
v 2.500000 5.459459 2.567568
v -2.500000 5.621622 2.567568
v 2.500000 5.621622 2.567568
v -2.500000 5.621622 2.297297
v 2.500000 5.621622 2.297297
v -2.500000 5.783784 2.297297
v 2.500000 5.783784 2.297297
v -2.500000 5.783784 2.027027
v 2.500000 5.783784 2.027027
v -2.500000 5.945946 2.027027
v 2.500000 5.945946 2.027027
v -2.500000 5.945946 1.756757
v 2.500000 5.945946 1.756757
v -2.500000 6.108108 1.756757
v 2.500000 6.108108 1.756757
v -2.500000 6.108108 1.486486
v 2.500000 6.108108 1.486486
v -2.500000 6.270270 1.486486
v 2.500000 6.270270 1.486486
v -2.500000 6.270270 1.216216
v 2.500000 6.270270 1.216216
v -2.500000 6.432432 1.216216
v 2.500000 6.432432 1.216216
v -2.500000 6.432432 0.945946
v 2.500000 6.432432 0.945946
v -2.500000 6.594595 0.945946
v 2.500000 6.594595 0.945946
v -2.500000 6.594595 0.675676
v 2.500000 6.594595 0.675676
v -2.500000 6.756757 0.675676
v 2.500000 6.756757 0.675676
v -2.500000 6.756757 0.405405
v 2.500000 6.756757 0.405405
v -2.500000 6.918919 0.405405
v 2.500000 6.918919 0.405405
v -2.500000 6.918919 0.135135
v 2.500000 6.918919 0.135135
v -2.500000 7.081081 0.135135
v 2.500000 7.081081 0.135135
v -2.500000 7.081081 -0.135135
v 2.500000 7.081081 -0.135135
v -2.500000 7.243243 -0.135135
v 2.500000 7.243243 -0.135135
v -2.500000 7.243243 -0.405405
v 2.500000 7.243243 -0.405405
v -2.500000 7.405405 -0.405405
v 2.500000 7.405405 -0.405405
v -2.500000 7.405405 -0.675676
v 2.500000 7.405405 -0.675676
v -2.500000 7.567568 -0.675676
v 2.500000 7.567568 -0.675676
v -2.500000 7.567568 -0.945946
v 2.500000 7.567568 -0.945946
v -2.500000 7.729730 -0.945946
v 2.500000 7.729730 -0.945946
v -2.500000 7.729730 -1.216216
v 2.500000 7.729730 -1.216216
v -2.500000 7.891892 -1.216216
v 2.500000 7.891892 -1.216216
v -2.500000 7.891892 -1.486486
v 2.500000 7.891892 -1.486486
v -2.500000 8.054054 -1.486486
v 2.500000 8.054054 -1.486486
v -2.500000 8.054054 -1.756757
v 2.500000 8.054054 -1.756757
v -2.500000 8.216216 -1.756757
v 2.500000 8.216216 -1.756757
v -2.500000 8.216216 -2.027027
v 2.500000 8.216216 -2.027027
v -2.500000 8.378378 -2.027027
v 2.500000 8.378378 -2.027027
v -2.500000 8.378378 -2.297297
v 2.500000 8.378378 -2.297297
v -2.500000 8.540541 -2.297297
v 2.500000 8.540541 -2.297297
v -2.500000 8.540541 -2.567568
v 2.500000 8.540541 -2.567568
v -2.500000 8.702703 -2.567568
v 2.500000 8.702703 -2.567568
v -2.500000 8.702703 -2.837838
v 2.500000 8.702703 -2.837838
v -2.500000 8.864865 -2.837838
v 2.500000 8.864865 -2.837838
v -2.500000 8.864865 -3.108108
v 2.500000 8.864865 -3.108108
v -2.500000 9.027027 -3.108108
v 2.500000 9.027027 -3.108108
v -2.500000 9.027027 -3.378378
v 2.500000 9.027027 -3.378378
v -2.500000 9.189189 -3.378378
v 2.500000 9.189189 -3.378378
v -2.500000 9.189189 -3.648649
v 2.500000 9.189189 -3.648649
v -2.500000 9.351351 -3.648649
v 2.500000 9.351351 -3.648649
v -2.500000 9.351351 -3.918919
v 2.500000 9.351351 -3.918919
v -2.500000 9.513514 -3.918919
v 2.500000 9.513514 -3.918919
v -2.500000 9.513514 -4.189189
v 2.500000 9.513514 -4.189189
v -2.500000 9.675676 -4.189189
v 2.500000 9.675676 -4.189189
v -2.500000 9.675676 -4.459459
v 2.500000 9.675676 -4.459459
v -2.500000 9.837838 -4.459459
v 2.500000 9.837838 -4.459459
v -2.500000 9.837838 -4.729730
v 2.500000 9.837838 -4.729730
v -2.500000 10.000000 -4.729730
v 2.500000 10.000000 -4.729730
v -2.500000 10.000000 -5.000000
v 2.500000 10.000000 -5.000000

g object_default
usemtl default

# Roof
f 7 8 6 5
f 9 10 8 7
f 11 12 10 9
f 13 14 12 11
f 15 16 14 13
f 17 18 16 15
f 19 20 18 17
f 21 22 20 19
f 23 24 22 21
f 25 26 24 23
f 27 28 26 25
f 29 30 28 27
f 31 32 30 29
f 33 34 32 31
f 35 36 34 33
f 37 38 36 35
f 39 40 38 37
f 41 42 40 39
f 43 44 42 41
f 45 46 44 43
f 47 48 46 45
f 49 50 48 47
f 51 52 50 49
f 53 54 52 51
f 55 56 54 53
f 57 58 56 55
f 59 60 58 57
f 61 62 60 59
f 63 64 62 61
f 65 66 64 63
f 67 68 66 65
f 69 70 68 67
f 71 72 70 69
f 73 74 72 71
f 75 76 74 73
f 77 78 76 75
f 79 80 78 77
f 81 82 80 79
f 83 84 82 81
f 85 86 84 83
f 87 88 86 85
f 89 90 88 87
f 91 92 90 89
f 93 94 92 91
f 95 96 94 93
f 97 98 96 95
f 99 100 98 97
f 101 102 100 99
f 103 104 102 101
f 105 106 104 103
f 107 108 106 105
f 109 110 108 107
f 111 112 110 109
f 113 114 112 111
f 115 116 114 113
f 117 118 116 115
f 119 120 118 117
f 121 122 120 119
f 123 124 122 121
f 125 126 124 123
f 127 128 126 125
f 129 130 128 127
f 131 132 130 129
f 133 134 132 131
f 135 136 134 133
f 137 138 136 135
f 139 140 138 137
f 141 142 140 139
f 143 144 142 141
f 145 146 144 143
f 147 148 146 145
f 149 150 148 147
f 151 152 150 149
f 153 154 152 151

# Walls 
f 1 2 154 153
f 3 4 5 6
f 4 1 153 151 149 147 145 143 141 139 137 135 133 131 129 127 125 123 121 119 117 115 113 111 109 107 105 103 101 99 97 95 93 91 89 87 85 83 81 79 77 75 73 71 69 67 65 63 61 59 57 55 53 51 49 47 45 43 41 39 37 35 33 31 29 27 25 23 21 19 17 15 13 11 9 7 5
f 6 8 10 12 14 16 18 20 22 24 26 28 30 32 34 36 38 40 42 44 46 48 50 52 54 56 58 60 62 64 66 68 70 72 74 76 78 80 82 84 86 88 90 92 94 96 98 100 102 104 106 108 110 112 114 116 118 120 122 124 126 128 130 132 134 136 138 140 142 144 146 148 150 152 154 2 3

# Base
f 4 3 2 1
