# Blender 5.1.2
# www.blender.org
mtllib barrier_lift_gate.mtl
o barrier_lift_gate
v -1.602831 -0.000000 -0.200000
v -1.202831 -0.000000 -0.200000
v -1.202831 0.000000 0.200000
v -1.602831 0.000000 0.200000
v -1.602831 1.000000 -0.200000
v -1.202831 1.000000 -0.200000
v -1.202831 1.000000 0.200000
v -1.602831 1.000000 0.200000
v -1.302831 0.800000 -0.050000
v 1.597169 0.800000 -0.050000
v 1.597169 0.800000 0.050000
v -1.302831 0.800000 0.050000
v -1.302831 0.900000 -0.050000
v 1.597169 0.900000 -0.050000
v 1.597169 0.900000 0.050000
v -1.302831 0.900000 0.050000
vn -0.0000 -1.0000 -0.0000
vn -0.0000 1.0000 -0.0000
vn -0.0000 -0.0000 -1.0000
vn 1.0000 -0.0000 -0.0000
vn -0.0000 -0.0000 1.0000
vn -1.0000 -0.0000 -0.0000
s 0
usemtl base
f 1//1 2//1 3//1 4//1
f 8//2 7//2 6//2 5//2
f 1//3 5//3 6//3 2//3
f 2//4 6//4 7//4 3//4
f 3//5 7//5 8//5 4//5
f 4//6 8//6 5//6 1//6
usemtl boom
f 9//1 10//1 11//1 12//1
f 16//2 15//2 14//2 13//2
f 9//3 13//3 14//3 10//3
f 10//4 14//4 15//4 11//4
f 11//5 15//5 16//5 12//5
f 12//6 16//6 13//6 9//6
