mtllib barrier_bollard.mtl
o barrier_bollard

# Octagon vertices
# (0.1, 0), (0.07, 0.07), (0, 0.1), (-0.07, 0.07), (-0.1, 0), (-0.07, -0.07), (0, -0.1), (0.07, -0.07)

# Height 0.0
v 0.1 0.0 0.0
v 0.07 0.0 0.07
v 0.0 0.0 0.1
v -0.07 0.0 0.07
v -0.1 0.0 0.0
v -0.07 0.0 -0.07
v 0.0 0.0 -0.1
v 0.07 0.0 -0.07

# Height 0.25
v 0.1 0.25 0.0
v 0.07 0.25 0.07
v 0.0 0.25 0.1
v -0.07 0.25 0.07
v -0.1 0.25 0.0
v -0.07 0.25 -0.07
v 0.0 0.25 -0.1
v 0.07 0.25 -0.07

# Height 0.5
v 0.1 0.5 0.0
v 0.07 0.5 0.07
v 0.0 0.5 0.1
v -0.07 0.5 0.07
v -0.1 0.5 0.0
v -0.07 0.5 -0.07
v 0.0 0.5 -0.1
v 0.07 0.5 -0.07

# Height 0.75
v 0.1 0.75 0.0
v 0.07 0.75 0.07
v 0.0 0.75 0.1
v -0.07 0.75 0.07
v -0.1 0.75 0.0
v -0.07 0.75 -0.07
v 0.0 0.75 -0.1
v 0.07 0.75 -0.07

# Height 1.0
v 0.1 1.0 0.0
v 0.07 1.0 0.07
v 0.0 1.0 0.1
v -0.07 1.0 0.07
v -0.1 1.0 0.0
v -0.07 1.0 -0.07
v 0.0 1.0 -0.1
v 0.07 1.0 -0.07

usemtl Red
f 1 2 10 9
f 2 3 11 10
f 3 4 12 11
f 4 5 13 12
f 5 6 14 13
f 6 7 15 14
f 7 8 16 15
f 8 1 9 16

usemtl White
f 9 10 18 17
f 10 11 19 18
f 11 12 20 19
f 12 13 21 20
f 13 14 22 21
f 14 15 23 22
f 15 16 24 23
f 16 9 17 24

usemtl Red
f 17 18 26 25
f 18 19 27 26
f 19 20 28 27
f 20 21 29 28
f 21 22 30 29
f 22 23 31 30
f 23 24 32 31
f 24 17 25 32

usemtl White
f 25 26 34 33
f 26 27 35 34
f 27 28 36 35
f 28 29 37 36
f 29 30 38 37
f 30 31 39 38
f 31 32 40 39
f 32 25 33 40

# Top cap
f 33 34 35 36
f 33 36 37 38
f 33 38 39 40
