# Blender 5.1.2
# www.blender.org
mtllib barrier_block.mtl
o barrier_block
v -1.200000 -0.000000 -0.300000
v 1.200000 -0.000000 -0.300000
v -1.200000 0.000000 0.300000
v 1.200000 0.000000 0.300000
v -1.200000 0.533424 0.300000
v 1.200000 0.533424 0.300000
v -1.200000 0.520973 -0.300000
v 1.200000 0.520973 -0.300000
v 1.134325 0.600000 0.233424
v 1.200000 0.534325 0.299099
v 1.200000 0.534325 -0.286648
v 1.134325 0.600000 -0.220973
v -1.200000 0.533424 0.300000
v -1.132306 0.600000 0.233424
v -1.132306 0.600000 -0.220973
v -1.200000 0.532306 -0.288667
vn -0.0000 -0.0000 -1.0000
vn -0.0000 -0.0000 1.0000
vn -0.7071 -0.7071 -0.0000
vn -1.0000 -0.0000 -0.0000
vn 0.7042 -0.7100 0.0008
vn -0.0000 -0.7071 -0.7071
vn 1.0000 -0.0000 -0.0000
vn -0.0000 -1.0000 -0.0000
vn -0.0000 -0.7071 0.7071
s 1
usemtl Concrete
f 5//1 6//1 4//1 3//1
f 1//2 2//2 8//2 7//2
f 11//3 10//3 9//3 12//3
f 2//4 4//4 6//4 10//4 11//4 8//4
f 15//5 14//5 13//5 16//5
f 13//6 14//6 9//6 10//6 6//6 5//6
f 3//7 1//7 7//7 16//7 13//7 5//7
f 15//8 12//8 9//8 14//8
f 7//9 8//9 11//9 12//9 15//9 16//9
o Cylinder
v -0.756027 0.595565 -0.030045
v -0.485466 0.595565 -0.030045
v -0.732846 0.595565 -0.021245
v -0.508647 0.595565 -0.021245
v -0.723244 0.595565 -0.000000
v -0.518248 0.595565 -0.000000
v -0.732846 0.595565 0.021245
v -0.508647 0.595565 0.021245
v -0.756026 0.595565 0.030045
v -0.485466 0.595565 0.030045
v -0.779207 0.595565 0.021245
v -0.462286 0.595565 0.021245
v -0.788808 0.595565 -0.000000
v -0.452684 0.595565 -0.000000
v -0.779207 0.595565 -0.021245
v -0.462286 0.595565 -0.021245
v -0.719545 0.680259 -0.030045
v -0.674596 0.709304 -0.030045
v -0.620746 0.719550 -0.030045
v -0.566897 0.709304 -0.030045
v -0.521948 0.680259 -0.030045
v -0.538877 0.665746 -0.021245
v -0.576124 0.689815 -0.021245
v -0.620746 0.698305 -0.021245
v -0.665369 0.689815 -0.021245
v -0.702616 0.665746 -0.021245
v -0.545889 0.659735 -0.000000
v -0.579946 0.681742 -0.000000
v -0.620746 0.689505 -0.000000
v -0.661547 0.681742 -0.000000
v -0.695603 0.659735 -0.000000
v -0.538877 0.665746 0.021245
v -0.576124 0.689815 0.021245
v -0.620746 0.698305 0.021245
v -0.665369 0.689815 0.021245
v -0.702616 0.665746 0.021245
v -0.521948 0.680259 0.030045
v -0.566897 0.709304 0.030045
v -0.620746 0.719550 0.030045
v -0.674596 0.709304 0.030045
v -0.719545 0.680259 0.030045
v -0.505018 0.694771 0.021245
v -0.557670 0.728793 0.021245
v -0.620746 0.740795 0.021245
v -0.683823 0.728793 0.021245
v -0.736474 0.694771 0.021245
v -0.498006 0.700782 -0.000000
v -0.553848 0.736866 -0.000000
v -0.620746 0.749595 -0.000000
v -0.687645 0.736866 -0.000000
v -0.743487 0.700782 -0.000000
v -0.505019 0.694771 -0.021245
v -0.557670 0.728793 -0.021245
v -0.620746 0.740795 -0.021245
v -0.683823 0.728793 -0.021245
v -0.736474 0.694771 -0.021245
vn -0.3508 -0.1511 -0.9242
vn -0.8483 -0.3654 -0.3833
vn -0.8483 -0.3654 0.3833
vn -0.3508 -0.1511 0.9242
vn 0.3508 0.1511 0.9242
vn 0.8483 0.3654 0.3834
vn 0.8482 0.3654 -0.3834
vn 0.3508 0.1511 -0.9242
vn -0.3508 0.1511 -0.9242
vn -0.2066 0.3197 -0.9247
vn -0.0726 0.3817 -0.9214
vn 0.0726 0.3817 -0.9214
vn 0.2066 0.3197 -0.9247
vn -0.8483 0.3654 -0.3834
vn -0.5010 0.7753 -0.3847
vn -0.1731 0.9099 -0.3769
vn 0.1731 0.9099 -0.3769
vn 0.5010 0.7753 -0.3847
vn -0.8483 0.3654 0.3834
vn -0.5010 0.7753 0.3847
vn -0.1731 0.9099 0.3769
vn 0.1731 0.9099 0.3769
vn 0.5010 0.7753 0.3847
vn -0.3508 0.1511 0.9242
vn -0.2066 0.3197 0.9247
vn -0.0726 0.3817 0.9214
vn 0.0726 0.3817 0.9214
vn 0.2066 0.3197 0.9247
vn 0.3508 -0.1511 0.9242
vn 0.2066 -0.3197 0.9247
vn 0.0726 -0.3817 0.9214
vn -0.0726 -0.3817 0.9214
vn -0.2066 -0.3197 0.9247
vn 0.8482 -0.3654 0.3834
vn 0.5010 -0.7753 0.3847
vn 0.1731 -0.9099 0.3769
vn -0.1731 -0.9099 0.3769
vn -0.5010 -0.7753 0.3847
vn 0.8482 -0.3654 -0.3834
vn 0.5010 -0.7753 -0.3847
vn 0.1731 -0.9099 -0.3769
vn -0.1731 -0.9099 -0.3769
vn -0.5010 -0.7753 -0.3847
vn 0.3508 -0.1511 -0.9242
vn 0.2066 -0.3197 -0.9247
vn 0.0726 -0.3817 -0.9214
vn -0.0726 -0.3817 -0.9214
vn -0.2066 -0.3197 -0.9247
vt 1.000000 0.916667
vt 1.000000 1.000000
vt 0.875000 1.000000
vt 0.875000 0.916667
vt 0.750000 1.000000
vt 0.750000 0.916667
vt 0.625000 1.000000
vt 0.625000 0.916667
vt 0.500000 1.000000
vt 0.500000 0.916667
vt 0.375000 1.000000
vt 0.375000 0.916667
vt 0.250000 1.000000
vt 0.250000 0.916667
vt 0.125000 1.000000
vt 0.125000 0.916667
vt 0.000000 1.000000
vt 0.000000 0.916667
vt 0.125000 0.500000
vt 0.125000 0.583333
vt 0.000000 0.583333
vt 0.000000 0.500000
vt 0.125000 0.666667
vt 0.000000 0.666667
vt 0.125000 0.750000
vt 0.000000 0.750000
vt 0.125000 0.833333
vt 0.000000 0.833333
vt 0.250000 0.500000
vt 0.250000 0.583333
vt 0.250000 0.666667
vt 0.250000 0.750000
vt 0.250000 0.833333
vt 0.375000 0.500000
vt 0.375000 0.583333
vt 0.375000 0.666667
vt 0.375000 0.750000
vt 0.375000 0.833333
vt 0.500000 0.500000
vt 0.500000 0.583333
vt 0.500000 0.666667
vt 0.500000 0.750000
vt 0.500000 0.833333
vt 0.625000 0.500000
vt 0.625000 0.583333
vt 0.625000 0.666667
vt 0.625000 0.750000
vt 0.625000 0.833333
vt 0.750000 0.500000
vt 0.750000 0.583333
vt 0.750000 0.666667
vt 0.750000 0.750000
vt 0.750000 0.833333
vt 0.875000 0.500000
vt 0.875000 0.583333
vt 0.875000 0.666667
vt 0.875000 0.750000
vt 0.875000 0.833333
vt 1.000000 0.500000
vt 1.000000 0.583333
vt 1.000000 0.666667
vt 1.000000 0.750000
vt 1.000000 0.833333
s 1
usemtl Metal.002
f 37/1/10 18/2/10 20/3/10 38/4/10
f 38/4/11 20/3/11 22/5/11 43/6/11
f 43/6/12 22/5/12 24/7/12 48/8/12
f 48/8/13 24/7/13 26/9/13 53/10/13
f 53/10/14 26/9/14 28/11/14 58/12/14
f 58/12/15 28/11/15 30/13/15 63/14/15
f 63/14/16 30/13/16 32/15/16 68/16/16
f 68/16/17 32/15/17 18/17/17 37/18/17
f 31/19/18 72/20/18 33/21/18 17/22/18
f 72/20/19 71/23/19 34/24/19 33/21/19
f 71/23/20 70/25/20 35/26/20 34/24/20
f 70/25/21 69/27/21 36/28/21 35/26/21
f 69/27/22 68/16/22 37/18/22 36/28/22
f 29/29/23 67/30/23 72/20/23 31/19/23
f 67/30/24 66/31/24 71/23/24 72/20/24
f 66/31/25 65/32/25 70/25/25 71/23/25
f 65/32/26 64/33/26 69/27/26 70/25/26
f 64/33/27 63/14/27 68/16/27 69/27/27
f 27/34/28 62/35/28 67/30/28 29/29/28
f 62/35/29 61/36/29 66/31/29 67/30/29
f 61/36/30 60/37/30 65/32/30 66/31/30
f 60/37/31 59/38/31 64/33/31 65/32/31
f 59/38/32 58/12/32 63/14/32 64/33/32
f 25/39/33 57/40/33 62/35/33 27/34/33
f 57/40/34 56/41/34 61/36/34 62/35/34
f 56/41/35 55/42/35 60/37/35 61/36/35
f 55/42/36 54/43/36 59/38/36 60/37/36
f 54/43/37 53/10/37 58/12/37 59/38/37
f 23/44/38 52/45/38 57/40/38 25/39/38
f 52/45/39 51/46/39 56/41/39 57/40/39
f 51/46/40 50/47/40 55/42/40 56/41/40
f 50/47/41 49/48/41 54/43/41 55/42/41
f 49/48/42 48/8/42 53/10/42 54/43/42
f 21/49/43 47/50/43 52/45/43 23/44/43
f 47/50/44 46/51/44 51/46/44 52/45/44
f 46/51/45 45/52/45 50/47/45 51/46/45
f 45/52/46 44/53/46 49/48/46 50/47/46
f 44/53/47 43/6/47 48/8/47 49/48/47
f 19/54/48 42/55/48 47/50/48 21/49/48
f 42/55/49 41/56/49 46/51/49 47/50/49
f 41/56/50 40/57/50 45/52/50 46/51/50
f 40/57/51 39/58/51 44/53/51 45/52/51
f 39/58/52 38/4/52 43/6/52 44/53/52
f 17/59/53 33/60/53 42/55/53 19/54/53
f 33/60/54 34/61/54 41/56/54 42/55/54
f 34/61/55 35/62/55 40/57/55 41/56/55
f 35/62/56 36/63/56 39/58/56 40/57/56
f 36/63/57 37/1/57 38/4/57 39/58/57
o Cylinder.001
v 0.504637 0.592848 -0.030045
v 0.775197 0.592848 -0.030045
v 0.527817 0.592848 -0.021245
v 0.752016 0.592848 -0.021245
v 0.537419 0.592848 -0.000000
v 0.742415 0.592848 -0.000000
v 0.527817 0.592848 0.021245
v 0.752016 0.592848 0.021245
v 0.504637 0.592848 0.030045
v 0.775197 0.592848 0.030045
v 0.481456 0.592848 0.021245
v 0.798377 0.592848 0.021245
v 0.471855 0.592848 -0.000000
v 0.807979 0.592848 -0.000000
v 0.481456 0.592848 -0.021245
v 0.798377 0.592848 -0.021245
v 0.541118 0.677542 -0.030045
v 0.586067 0.706587 -0.030045
v 0.639917 0.716833 -0.030045
v 0.693766 0.706587 -0.030045
v 0.738715 0.677542 -0.030045
v 0.721786 0.663029 -0.021245
v 0.684539 0.687098 -0.021245
v 0.639917 0.695588 -0.021245
v 0.595294 0.687098 -0.021245
v 0.558047 0.663029 -0.021245
v 0.714774 0.657018 -0.000000
v 0.680717 0.679025 -0.000000
v 0.639917 0.686788 -0.000000
v 0.599116 0.679025 -0.000000
v 0.565060 0.657018 -0.000000
v 0.721786 0.663029 0.021245
v 0.684539 0.687098 0.021245
v 0.639917 0.695588 0.021245
v 0.595294 0.687098 0.021245
v 0.558047 0.663029 0.021245
v 0.738715 0.677542 0.030045
v 0.693766 0.706587 0.030045
v 0.639917 0.716833 0.030045
v 0.586067 0.706587 0.030045
v 0.541118 0.677542 0.030045
v 0.755645 0.692054 0.021245
v 0.702993 0.726076 0.021245
v 0.639917 0.738078 0.021245
v 0.576840 0.726076 0.021245
v 0.524189 0.692054 0.021245
v 0.762657 0.698066 -0.000000
v 0.706815 0.734149 -0.000000
v 0.639917 0.746878 -0.000000
v 0.573018 0.734149 -0.000000
v 0.517177 0.698066 -0.000000
v 0.755645 0.692054 -0.021245
v 0.702993 0.726076 -0.021245
v 0.639917 0.738078 -0.021245
v 0.576840 0.726076 -0.021245
v 0.524189 0.692054 -0.021245
vn -0.3508 -0.1511 -0.9242
vn -0.8483 -0.3654 -0.3833
vn -0.8483 -0.3654 0.3833
vn -0.3508 -0.1511 0.9242
vn 0.3508 0.1511 0.9242
vn 0.8482 0.3654 0.3834
vn 0.8482 0.3654 -0.3834
vn 0.3508 0.1511 -0.9242
vn -0.3508 0.1511 -0.9242
vn -0.2066 0.3197 -0.9247
vn -0.0726 0.3817 -0.9214
vn 0.0726 0.3817 -0.9214
vn 0.2066 0.3197 -0.9247
vn -0.8483 0.3654 -0.3834
vn -0.5010 0.7753 -0.3847
vn -0.1731 0.9099 -0.3769
vn 0.1731 0.9099 -0.3769
vn 0.5009 0.7753 -0.3847
vn -0.8483 0.3654 0.3834
vn -0.5010 0.7753 0.3847
vn -0.1731 0.9099 0.3769
vn 0.1731 0.9099 0.3769
vn 0.5009 0.7753 0.3847
vn -0.3508 0.1511 0.9242
vn -0.2066 0.3197 0.9247
vn -0.0726 0.3817 0.9214
vn 0.0726 0.3817 0.9214
vn 0.2066 0.3197 0.9247
vn 0.3508 -0.1511 0.9242
vn 0.2066 -0.3197 0.9247
vn 0.0726 -0.3817 0.9214
vn -0.0726 -0.3817 0.9214
vn -0.2066 -0.3197 0.9247
vn 0.8482 -0.3654 0.3834
vn 0.5010 -0.7753 0.3847
vn 0.1731 -0.9099 0.3769
vn -0.1731 -0.9099 0.3769
vn -0.5010 -0.7753 0.3847
vn 0.8482 -0.3654 -0.3834
vn 0.5010 -0.7753 -0.3847
vn 0.1731 -0.9099 -0.3769
vn -0.1731 -0.9099 -0.3769
vn -0.5010 -0.7753 -0.3847
vn 0.3508 -0.1511 -0.9242
vn 0.2066 -0.3197 -0.9247
vn 0.0726 -0.3817 -0.9214
vn -0.0726 -0.3817 -0.9214
vn -0.2066 -0.3197 -0.9247
vt 1.000000 0.916667
vt 1.000000 1.000000
vt 0.875000 1.000000
vt 0.875000 0.916667
vt 0.750000 1.000000
vt 0.750000 0.916667
vt 0.625000 1.000000
vt 0.625000 0.916667
vt 0.500000 1.000000
vt 0.500000 0.916667
vt 0.375000 1.000000
vt 0.375000 0.916667
vt 0.250000 1.000000
vt 0.250000 0.916667
vt 0.125000 1.000000
vt 0.125000 0.916667
vt 0.000000 1.000000
vt 0.000000 0.916667
vt 0.125000 0.500000
vt 0.125000 0.583333
vt 0.000000 0.583333
vt 0.000000 0.500000
vt 0.125000 0.666667
vt 0.000000 0.666667
vt 0.125000 0.750000
vt 0.000000 0.750000
vt 0.125000 0.833333
vt 0.000000 0.833333
vt 0.250000 0.500000
vt 0.250000 0.583333
vt 0.250000 0.666667
vt 0.250000 0.750000
vt 0.250000 0.833333
vt 0.375000 0.500000
vt 0.375000 0.583333
vt 0.375000 0.666667
vt 0.375000 0.750000
vt 0.375000 0.833333
vt 0.500000 0.500000
vt 0.500000 0.583333
vt 0.500000 0.666667
vt 0.500000 0.750000
vt 0.500000 0.833333
vt 0.625000 0.500000
vt 0.625000 0.583333
vt 0.625000 0.666667
vt 0.625000 0.750000
vt 0.625000 0.833333
vt 0.750000 0.500000
vt 0.750000 0.583333
vt 0.750000 0.666667
vt 0.750000 0.750000
vt 0.750000 0.833333
vt 0.875000 0.500000
vt 0.875000 0.583333
vt 0.875000 0.666667
vt 0.875000 0.750000
vt 0.875000 0.833333
vt 1.000000 0.500000
vt 1.000000 0.583333
vt 1.000000 0.666667
vt 1.000000 0.750000
vt 1.000000 0.833333
s 1
usemtl Metal.002
f 93/64/58 74/65/58 76/66/58 94/67/58
f 94/67/59 76/66/59 78/68/59 99/69/59
f 99/69/60 78/68/60 80/70/60 104/71/60
f 104/71/61 80/70/61 82/72/61 109/73/61
f 109/73/62 82/72/62 84/74/62 114/75/62
f 114/75/63 84/74/63 86/76/63 119/77/63
f 119/77/64 86/76/64 88/78/64 124/79/64
f 124/79/65 88/78/65 74/80/65 93/81/65
f 87/82/66 128/83/66 89/84/66 73/85/66
f 128/83/67 127/86/67 90/87/67 89/84/67
f 127/86/68 126/88/68 91/89/68 90/87/68
f 126/88/69 125/90/69 92/91/69 91/89/69
f 125/90/70 124/79/70 93/81/70 92/91/70
f 85/92/71 123/93/71 128/83/71 87/82/71
f 123/93/72 122/94/72 127/86/72 128/83/72
f 122/94/73 121/95/73 126/88/73 127/86/73
f 121/95/74 120/96/74 125/90/74 126/88/74
f 120/96/75 119/77/75 124/79/75 125/90/75
f 83/97/76 118/98/76 123/93/76 85/92/76
f 118/98/77 117/99/77 122/94/77 123/93/77
f 117/99/78 116/100/78 121/95/78 122/94/78
f 116/100/79 115/101/79 120/96/79 121/95/79
f 115/101/80 114/75/80 119/77/80 120/96/80
f 81/102/81 113/103/81 118/98/81 83/97/81
f 113/103/82 112/104/82 117/99/82 118/98/82
f 112/104/83 111/105/83 116/100/83 117/99/83
f 111/105/84 110/106/84 115/101/84 116/100/84
f 110/106/85 109/73/85 114/75/85 115/101/85
f 79/107/86 108/108/86 113/103/86 81/102/86
f 108/108/87 107/109/87 112/104/87 113/103/87
f 107/109/88 106/110/88 111/105/88 112/104/88
f 106/110/89 105/111/89 110/106/89 111/105/89
f 105/111/90 104/71/90 109/73/90 110/106/90
f 77/112/91 103/113/91 108/108/91 79/107/91
f 103/113/92 102/114/92 107/109/92 108/108/92
f 102/114/93 101/115/93 106/110/93 107/109/93
f 101/115/94 100/116/94 105/111/94 106/110/94
f 100/116/95 99/69/95 104/71/95 105/111/95
f 75/117/96 98/118/96 103/113/96 77/112/96
f 98/118/97 97/119/97 102/114/97 103/113/97
f 97/119/98 96/120/98 101/115/98 102/114/98
f 96/120/99 95/121/99 100/116/99 101/115/99
f 95/121/100 94/67/100 99/69/100 100/116/100
f 73/122/101 89/123/101 98/118/101 75/117/101
f 89/123/102 90/124/102 97/119/102 98/118/102
f 90/124/103 91/125/103 96/120/103 97/119/103
f 91/125/104 92/126/104 95/121/104 96/120/104
f 92/126/105 93/64/105 94/67/105 95/121/105
