# Blender 5.1.2
# www.blender.org
mtllib barrier_gate.mtl
o barrier_gate
v -1.475591 0.000000 0.000000
v -1.475591 0.000000 0.100000
v -1.575591 0.000000 0.100000
v -1.575591 0.000000 0.000000
v -1.475591 1.800000 -0.000000
v -1.475591 1.800000 0.100000
v -1.575591 1.800000 0.100000
v -1.575591 1.800000 -0.000000
v 1.599065 0.000000 0.000000
v 1.599065 0.000000 0.100000
v 1.499065 0.000000 0.100000
v 1.499065 0.000000 0.000000
v 1.599065 1.800000 -0.000000
v 1.599065 1.800000 0.100000
v 1.499065 1.800000 0.100000
v 1.499065 1.800000 -0.000000
v -1.475591 0.200000 0.050000
v -0.050000 0.200000 0.050000
v -0.050000 1.870425 0.050000
v -1.475591 1.600000 0.050000
v 1.499065 0.200000 0.050000
v 0.050000 0.200000 0.050000
v 0.050000 1.870425 0.050000
v 1.499065 1.600000 0.050000
v -1.999539 0.014083 0.050000
v -1.569025 0.014083 0.050000
v -1.569025 1.707043 0.050000
v -1.999539 1.707043 0.050000
v 1.598441 0.014083 0.050000
v 1.995091 0.014083 0.050000
v 1.995091 1.695776 0.050000
v 1.598441 1.695776 0.050000
v -1.124850 0.200000 0.050000
v -0.768452 0.200000 0.050000
v -0.412055 0.200000 0.050000
v -0.412055 1.808453 0.050000
v -0.768452 1.656339 0.050000
v -1.124850 1.600000 0.050000
v 1.136799 0.200000 0.050000
v 0.774532 0.200000 0.050000
v 0.412266 0.200000 0.050000
v 0.412266 1.808453 0.050000
v 0.774532 1.656339 0.050000
v 1.136799 1.600000 0.050000
vn -0.0000 -1.0000 -0.0000
vn -0.0000 1.0000 -0.0000
vn 1.0000 -0.0000 -0.0000
vn -0.0000 -0.0000 1.0000
vn -1.0000 -0.0000 -0.0000
vn -0.0000 -0.0000 -1.0000
s 0
usemtl frame
f 1//1 2//1 3//1 4//1
f 5//2 8//2 7//2 6//2
f 1//3 5//3 6//3 2//3
f 2//4 6//4 7//4 3//4
f 3//5 7//5 8//5 4//5
f 4//6 8//6 5//6 1//6
f 9//1 10//1 11//1 12//1
f 13//2 16//2 15//2 14//2
f 9//3 13//3 14//3 10//3
f 10//4 14//4 15//4 11//4
f 11//5 15//5 16//5 12//5
f 12//6 16//6 13//6 9//6
usemtl bars
f 35//4 18//4 19//4 36//4
f 41//6 22//6 23//6 42//6
f 25//4 26//4 27//4 28//4
f 29//4 30//4 31//4 32//4
f 17//4 33//4 38//4 20//4
f 33//4 34//4 37//4 38//4
f 34//4 35//4 36//4 37//4
f 21//6 39//6 44//6 24//6
f 39//6 40//6 43//6 44//6
f 40//6 41//6 42//6 43//6
