# Blender 5.1.2
# www.blender.org
mtllib barrier_wicket_gate.mtl
o barrier_gate
v -0.469306 -0.000000 -0.051886
v -0.469306 0.000000 0.048114
v -0.569306 0.000000 0.048114
v -0.569306 -0.000000 -0.051886
v -0.469306 1.800000 -0.051886
v -0.469306 1.800000 0.048114
v -0.569306 1.800000 0.048114
v -0.569306 1.800000 -0.051886
v 0.580276 -0.000000 -0.051886
v 0.580276 0.000000 0.048114
v 0.480276 0.000000 0.048114
v 0.480276 -0.000000 -0.051886
v 0.580276 1.800000 -0.051886
v 0.580276 1.800000 0.048114
v 0.480276 1.800000 0.048114
v 0.480276 1.800000 -0.051886
v -0.468471 0.106102 -0.001886
v 0.003154 0.106102 -0.001886
v 0.003154 1.808697 -0.001886
v -0.468471 1.600000 -0.001886
v 0.482280 0.106102 -0.001886
v 0.482280 1.600000 -0.001886
v -0.771108 0.014083 -0.001886
v -0.562740 0.014083 -0.001886
v -0.562740 1.505633 -0.001886
v -0.771108 1.505633 -0.001886
v 0.579652 0.014083 -0.001886
v 0.754156 0.014083 -0.001886
v 0.754156 1.494366 -0.001886
v 0.579652 1.494366 -0.001886
v -0.356368 0.106102 -0.001886
v -0.204820 0.106102 -0.001886
v -0.204820 1.771234 -0.001886
v -0.356368 1.696539 -0.001886
v 0.366494 0.106102 -0.001886
v 0.211195 0.106102 -0.001886
v 0.211195 1.771234 -0.001886
v 0.366494 1.696539 -0.001886
vn -0.0000 -1.0000 -0.0000
vn -0.0000 1.0000 -0.0000
vn 1.0000 -0.0000 -0.0000
vn -0.0000 -0.0000 1.0000
vn -1.0000 -0.0000 -0.0000
vn -0.0000 -0.0000 -1.0000
s 1
usemtl frame.001
f 1//1 2//1 3//1 4//1
f 5//2 8//2 7//2 6//2
f 1//3 5//3 6//3 2//3
f 2//4 6//4 7//4 3//4
f 3//5 7//5 8//5 4//5
f 4//6 8//6 5//6 1//6
f 9//1 10//1 11//1 12//1
f 13//2 16//2 15//2 14//2
f 9//3 13//3 14//3 10//3
f 10//4 14//4 15//4 11//4
f 11//5 15//5 16//5 12//5
f 12//6 16//6 13//6 9//6
usemtl bars.001
f 32//4 18//4 19//4 33//4
f 36//6 18//6 19//6 37//6
f 23//4 24//4 25//4 26//4
f 27//4 28//4 29//4 30//4
f 17//4 31//4 34//4 20//4
f 31//4 32//4 33//4 34//4
f 21//6 35//6 38//6 22//6
f 35//6 36//6 37//6 38//6
