# Blender 5.1.2
# www.blender.org
mtllib basket.mtl
o WasteBasket0
v 0.007010 1.203603 -0.055031
v 0.007010 0.003603 -0.055031
v -0.044950 1.203603 -0.025028
v -0.044950 0.003603 -0.025028
v -0.044950 1.203603 0.034969
v -0.044950 0.003603 0.034969
v 0.007010 1.203603 0.064972
v 0.007010 0.003603 0.064972
v 0.058970 1.203603 0.034969
v 0.058970 0.003603 0.034969
v 0.058970 1.203603 -0.025028
v 0.058970 0.003603 -0.025028
v 0.007010 1.003603 0.054970
v 0.007010 0.503603 0.054970
v -0.027719 1.003603 0.058010
v -0.027719 0.503603 0.058010
v -0.061396 1.003603 0.067032
v -0.061396 0.503603 0.067032
v -0.092989 1.003603 0.081764
v -0.092989 0.503603 0.081764
v -0.121550 1.003603 0.101761
v -0.121550 0.503603 0.101761
v -0.146200 1.003603 0.126411
v -0.146200 0.503603 0.126411
v -0.166197 1.003603 0.154972
v -0.166197 0.503603 0.154972
v -0.180929 1.003603 0.186565
v -0.180929 0.503603 0.186565
v -0.189951 1.003603 0.220241
v -0.189951 0.503603 0.220241
v -0.192991 1.003603 0.254970
v -0.192991 0.503603 0.254970
v -0.189951 1.003603 0.289699
v -0.189951 0.503603 0.289699
v -0.180929 1.003603 0.323376
v -0.180929 0.503603 0.323376
v -0.166197 1.003603 0.354969
v -0.166197 0.503603 0.354969
v -0.146200 1.003603 0.383530
v -0.146200 0.503603 0.383530
v -0.121550 1.003603 0.408180
v -0.121550 0.503603 0.408180
v -0.092989 1.003603 0.428177
v -0.092989 0.503603 0.428177
v -0.061396 1.003603 0.442909
v -0.061396 0.503603 0.442909
v -0.027719 1.003603 0.451931
v -0.027719 0.503603 0.451931
v 0.007010 1.003603 0.454971
v 0.007010 0.503603 0.454971
v 0.041739 1.003603 0.451931
v 0.041739 0.503603 0.451931
v 0.075415 1.003603 0.442909
v 0.075415 0.503603 0.442909
v 0.107008 1.003603 0.428177
v 0.107008 0.503603 0.428177
v 0.135569 1.003603 0.408180
v 0.135569 0.503603 0.408180
v 0.160219 1.003603 0.383530
v 0.160219 0.503603 0.383530
v 0.180216 1.003603 0.354969
v 0.180216 0.503603 0.354969
v 0.194948 1.003603 0.323376
v 0.194948 0.503603 0.323376
v 0.203970 1.003603 0.289699
v 0.203970 0.503603 0.289699
v 0.207010 1.003603 0.254970
v 0.207010 0.503603 0.254970
v 0.203970 1.003603 0.220241
v 0.203970 0.503603 0.220241
v 0.194948 1.003603 0.186565
v 0.194948 0.503603 0.186565
v 0.180216 1.003603 0.154972
v 0.180216 0.503603 0.154972
v 0.160219 1.003603 0.126411
v 0.160219 0.503603 0.126411
v 0.135569 1.003603 0.101761
v 0.135569 0.503603 0.101761
v 0.107008 1.003603 0.081764
v 0.107008 0.503603 0.081764
v 0.075415 1.003603 0.067032
v 0.075415 0.503603 0.067032
v 0.041739 1.003603 0.058010
v 0.041739 0.503603 0.058010
v 0.007010 0.528602 0.064972
v 0.007010 1.003603 0.064972
v -0.025984 0.528602 0.067856
v -0.025984 1.003603 0.067856
v -0.057974 0.528602 0.076427
v -0.057974 1.003603 0.076427
v -0.087992 0.528602 0.090427
v -0.087992 1.003603 0.090427
v -0.115122 0.528602 0.109421
v -0.115122 1.003603 0.109421
v -0.138540 0.528602 0.132839
v -0.138540 1.003603 0.132839
v -0.157534 0.528602 0.159969
v -0.157534 1.003603 0.159969
v -0.171533 0.528602 0.189987
v -0.171533 1.003603 0.189987
v -0.180105 0.528602 0.221977
v -0.180105 1.003603 0.221977
v -0.182989 0.528602 0.254970
v -0.182989 1.003603 0.254970
v -0.180105 0.528602 0.287964
v -0.180105 1.003603 0.287964
v -0.171533 0.528602 0.319954
v -0.171533 1.003603 0.319954
v -0.157534 0.528602 0.349972
v -0.157534 1.003603 0.349972
v -0.138540 0.528602 0.377102
v -0.138540 1.003603 0.377102
v -0.115122 0.528602 0.400520
v -0.115122 1.003603 0.400520
v -0.087992 0.528602 0.419514
v -0.087992 1.003603 0.419514
v -0.057974 0.528602 0.433514
v -0.057974 1.003603 0.433513
v -0.025984 0.528602 0.442085
v -0.025984 1.003603 0.442085
v 0.007010 0.528602 0.444969
v 0.007010 1.003603 0.444969
v 0.040003 0.528602 0.442085
v 0.040003 1.003603 0.442085
v 0.071993 0.528602 0.433514
v 0.071993 1.003603 0.433513
v 0.102011 0.528602 0.419514
v 0.102011 1.003603 0.419514
v 0.129141 0.528602 0.400520
v 0.129141 1.003603 0.400520
v 0.152559 0.528602 0.377102
v 0.152559 1.003603 0.377102
v 0.171553 0.528602 0.349972
v 0.171553 1.003603 0.349972
v 0.185553 0.528602 0.319954
v 0.185553 1.003603 0.319954
v 0.194124 0.528602 0.287964
v 0.194124 1.003603 0.287964
v 0.197008 0.528602 0.254970
v 0.197008 1.003603 0.254970
v 0.194124 0.528602 0.221977
v 0.194124 1.003603 0.221977
v 0.185553 0.528602 0.189987
v 0.185553 1.003603 0.189987
v 0.171553 0.528602 0.159969
v 0.171553 1.003603 0.159969
v 0.152559 0.528602 0.132839
v 0.152559 1.003603 0.132839
v 0.129141 0.528602 0.109421
v 0.129141 1.003603 0.109421
v 0.102011 0.528602 0.090427
v 0.102011 1.003603 0.090427
v 0.071993 0.528602 0.076427
v 0.071993 1.003603 0.076427
v 0.040003 0.528602 0.067856
v 0.040003 1.003603 0.067856
vn -0.0000 -0.0000 -1.0000
vn -0.8660 -0.0000 -0.5000
vn -0.8660 -0.0000 0.5000
vn -0.0000 -0.0000 1.0000
vn 0.8660 -0.0000 0.5000
vn 0.9449 -0.0000 0.3274
vn 0.9449 -0.0000 -0.3274
vn 0.8660 -0.0000 -0.5000
vn -0.0000 1.0000 -0.0000
vn -0.0872 -0.0000 -0.9962
vn -0.2588 -0.0000 -0.9659
vn -0.2592 -0.0000 -0.9658
vn -0.4226 -0.0000 -0.9063
vn -0.5735 -0.0000 -0.8192
vn -0.7071 -0.0000 -0.7071
vn -0.8192 -0.0000 -0.5735
vn -0.9063 -0.0000 -0.4226
vn -0.9659 -0.0000 -0.2588
vn -0.9962 -0.0000 -0.0872
vn -0.9962 -0.0000 0.0872
vn -0.9659 -0.0000 0.2588
vn -0.9063 -0.0000 0.4226
vn -0.8192 -0.0000 0.5735
vn -0.7071 -0.0000 0.7071
vn -0.5735 -0.0000 0.8192
vn -0.4226 -0.0000 0.9063
vn -0.2592 -0.0000 0.9658
vn -0.2588 -0.0000 0.9659
vn -0.0872 -0.0000 0.9962
vn 0.0872 -0.0000 0.9962
vn 0.2588 -0.0000 0.9659
vn 0.2592 -0.0000 0.9658
vn 0.4226 -0.0000 0.9063
vn 0.5735 -0.0000 0.8192
vn 0.7071 -0.0000 0.7071
vn 0.8192 -0.0000 0.5735
vn 0.9063 -0.0000 0.4226
vn 0.9659 -0.0000 0.2588
vn 0.9962 -0.0000 0.0872
vn 0.9962 -0.0000 -0.0872
vn 0.9659 -0.0000 -0.2588
vn 0.9063 -0.0000 -0.4226
vn 0.8192 -0.0000 -0.5735
vn 0.7071 -0.0000 -0.7071
vn 0.5735 -0.0000 -0.8192
vn 0.4226 -0.0000 -0.9063
vn 0.2592 -0.0000 -0.9658
vn 0.2588 -0.0000 -0.9659
vn 0.0872 -0.0000 -0.9962
vn -0.0000 -1.0000 -0.0000
vn 0.0871 -0.0000 0.9962
vn 0.0874 -0.0000 0.9962
vn 0.4227 -0.0000 0.9063
vn 0.9063 -0.0000 0.4227
vn 0.9962 -0.0000 0.0871
vn 0.9962 -0.0000 -0.0871
vn 0.9063 -0.0000 -0.4227
vn 0.4227 -0.0000 -0.9063
vn 0.2585 -0.0000 -0.9660
vn 0.0874 -0.0000 -0.9962
vn 0.0871 -0.0000 -0.9962
vn -0.0874 -0.0000 -0.9962
vn -0.0871 -0.0000 -0.9962
vn -0.2585 -0.0000 -0.9660
vn -0.4227 -0.0000 -0.9063
vn -0.9063 -0.0000 -0.4227
vn -0.9962 -0.0000 -0.0871
vn -0.9962 -0.0000 0.0871
vn -0.9063 -0.0000 0.4227
vn -0.4227 -0.0000 0.9063
vn -0.0874 -0.0000 0.9962
vn -0.0871 -0.0000 0.9962
vn -0.0000 1.0000 0.0001
vn -0.0000 1.0000 -0.0001
s 1
usemtl STEEL_0
f 1//1 2//1 3//2
f 2//1 4//2 3//2
f 3//2 4//2 5//3
f 4//2 6//3 5//3
f 5//3 6//3 7//4
f 6//3 8//4 7//4
f 7//4 8//4 9//5
f 8//4 10//6 9//5
f 9//5 10//6 11//7
f 10//6 12//8 11//7
f 11//7 12//8 1//1
f 12//8 2//1 1//1
f 9//9 11//9 1//9
f 1//9 3//9 5//9
f 5//9 7//9 9//9
f 9//9 1//9 5//9
f 13//10 14//10 15//10
f 14//10 16//10 15//10
f 15//11 16//11 17//11
f 16//11 18//12 17//11
f 17//13 18//13 19//13
f 18//13 20//13 19//13
f 19//14 20//14 21//14
f 20//14 22//14 21//14
f 21//15 22//15 23//15
f 22//15 24//15 23//15
f 23//16 24//16 25//16
f 24//16 26//16 25//16
f 25//17 26//17 27//17
f 26//17 28//17 27//17
f 27//18 28//18 29//18
f 28//18 30//18 29//18
f 29//19 30//19 31//19
f 30//19 32//19 31//19
f 31//20 32//20 33//20
f 32//20 34//20 33//20
f 33//21 34//21 35//21
f 34//21 36//21 35//21
f 35//22 36//22 37//22
f 36//22 38//22 37//22
f 37//23 38//23 39//23
f 38//23 40//23 39//23
f 39//24 40//24 41//24
f 40//24 42//24 41//24
f 41//25 42//25 43//25
f 42//25 44//25 43//25
f 43//26 44//26 45//26
f 44//26 46//26 45//26
f 45//27 46//28 47//28
f 46//28 48//28 47//28
f 47//29 48//29 49//29
f 48//29 50//29 49//29
f 49//30 50//30 51//30
f 50//30 52//30 51//30
f 51//31 52//31 53//31
f 52//31 54//32 53//31
f 53//33 54//33 55//33
f 54//33 56//33 55//33
f 55//34 56//34 57//34
f 56//34 58//34 57//34
f 57//35 58//35 59//35
f 58//35 60//35 59//35
f 59//36 60//36 61//36
f 60//36 62//36 61//36
f 61//37 62//37 63//37
f 62//37 64//37 63//37
f 63//38 64//38 65//38
f 64//38 66//38 65//38
f 65//39 66//39 67//39
f 66//39 68//39 67//39
f 67//40 68//40 69//40
f 68//40 70//40 69//40
f 69//41 70//41 71//41
f 70//41 72//41 71//41
f 71//42 72//42 73//42
f 72//42 74//42 73//42
f 73//43 74//43 75//43
f 74//43 76//43 75//43
f 75//44 76//44 77//44
f 76//44 78//44 77//44
f 77//45 78//45 79//45
f 78//45 80//45 79//45
f 79//46 80//46 81//46
f 80//46 82//46 81//46
f 81//47 82//48 83//48
f 82//48 84//48 83//48
f 83//49 84//49 13//49
f 84//49 14//49 13//49
f 14//50 84//50 82//50
f 18//50 16//50 14//50
f 22//50 20//50 18//50
f 26//50 24//50 22//50
f 30//50 28//50 26//50
f 34//50 32//50 30//50
f 38//50 36//50 34//50
f 42//50 40//50 38//50
f 46//50 44//50 42//50
f 50//50 48//50 46//50
f 54//50 52//50 50//50
f 58//50 56//50 54//50
f 62//50 60//50 58//50
f 66//50 64//50 62//50
f 70//50 68//50 66//50
f 74//50 72//50 70//50
f 78//50 76//50 74//50
f 82//50 80//50 78//50
f 18//50 14//50 82//50
f 26//50 22//50 18//50
f 34//50 30//50 26//50
f 42//50 38//50 34//50
f 50//50 46//50 42//50
f 58//50 54//50 50//50
f 66//50 62//50 58//50
f 74//50 70//50 66//50
f 82//50 78//50 74//50
f 26//50 18//50 82//50
f 42//50 34//50 26//50
f 58//50 50//50 42//50
f 74//50 66//50 58//50
f 26//50 82//50 74//50
f 58//50 42//50 26//50
f 26//50 74//50 58//50
f 85//51 86//51 87//51
f 86//51 88//52 87//51
f 87//31 88//31 89//31
f 88//31 90//31 89//31
f 89//53 90//53 91//53
f 90//53 92//53 91//53
f 91//34 92//34 93//34
f 92//34 94//34 93//34
f 93//35 94//35 95//35
f 94//35 96//35 95//35
f 95//36 96//36 97//36
f 96//36 98//36 97//36
f 97//54 98//54 99//54
f 98//54 100//54 99//54
f 99//38 100//38 101//38
f 100//38 102//38 101//38
f 101//55 102//55 103//55
f 102//55 104//55 103//55
f 103//56 104//56 105//56
f 104//56 106//56 105//56
f 105//41 106//41 107//41
f 106//41 108//41 107//41
f 107//57 108//57 109//57
f 108//57 110//57 109//57
f 109//43 110//43 111//43
f 110//43 112//43 111//43
f 111//44 112//44 113//44
f 112//44 114//44 113//44
f 113//45 114//45 115//45
f 114//45 116//45 115//45
f 115//58 116//58 117//58
f 116//58 118//58 117//58
f 117//48 118//48 119//48
f 118//48 120//59 119//48
f 119//60 120//61 121//61
f 120//61 122//60 121//61
f 121//62 122//63 123//63
f 122//63 124//62 123//63
f 123//64 124//11 125//11
f 124//11 126//11 125//11
f 125//65 126//65 127//65
f 126//65 128//65 127//65
f 127//14 128//14 129//14
f 128//14 130//14 129//14
f 129//15 130//15 131//15
f 130//15 132//15 131//15
f 131//16 132//16 133//16
f 132//16 134//16 133//16
f 133//66 134//66 135//66
f 134//66 136//66 135//66
f 135//18 136//18 137//18
f 136//18 138//18 137//18
f 137//67 138//67 139//67
f 138//67 140//67 139//67
f 139//68 140//68 141//68
f 140//68 142//68 141//68
f 141//21 142//21 143//21
f 142//21 144//21 143//21
f 143//69 144//69 145//69
f 144//69 146//69 145//69
f 145//23 146//23 147//23
f 146//23 148//23 147//23
f 147//24 148//24 149//24
f 148//24 150//24 149//24
f 149//25 150//25 151//25
f 150//25 152//25 151//25
f 151//70 152//70 153//70
f 152//70 154//70 153//70
f 153//28 154//28 155//28
f 154//28 156//28 155//28
f 155//71 156//72 85//72
f 156//72 86//72 85//72
f 155//9 85//9 87//9
f 151//9 153//9 155//9
f 147//9 149//9 151//9
f 143//9 145//9 147//9
f 139//9 141//9 143//9
f 135//9 137//9 139//9
f 131//9 133//9 135//9
f 127//9 129//9 131//9
f 123//9 125//9 127//9
f 119//9 121//9 123//9
f 115//9 117//9 119//9
f 111//9 113//9 115//9
f 107//9 109//9 111//9
f 103//9 105//9 107//9
f 99//9 101//9 103//9
f 95//9 97//9 99//9
f 91//9 93//9 95//9
f 87//9 89//9 91//9
f 151//9 155//9 87//9
f 143//9 147//9 151//9
f 135//9 139//9 143//9
f 127//9 131//9 135//9
f 119//9 123//9 127//9
f 111//9 115//9 119//9
f 103//9 107//9 111//9
f 95//9 99//9 103//9
f 87//9 91//9 95//9
f 143//9 151//9 87//9
f 127//9 135//9 143//9
f 111//9 119//9 127//9
f 95//9 103//9 111//9
f 143//9 87//9 95//9
f 111//9 127//9 143//9
f 143//9 95//9 111//9
f 83//9 13//9 15//9
f 15//9 17//9 19//9
f 19//9 21//9 23//9
f 23//9 25//9 27//9
f 27//9 29//9 31//9
f 31//9 104//9 102//9
f 106//9 104//9 31//9
f 31//9 33//9 35//9
f 35//9 37//9 39//9
f 39//9 41//9 43//9
f 43//9 45//9 47//9
f 47//9 49//9 51//9
f 51//9 53//9 55//9
f 55//9 57//9 59//9
f 59//9 61//9 63//9
f 63//9 65//9 67//9
f 67//9 69//9 71//9
f 71//9 73//9 75//9
f 75//9 77//9 79//9
f 79//9 81//9 83//9
f 27//9 31//9 102//9
f 108//9 106//9 31//9
f 27//9 102//9 100//9
f 108//9 31//9 35//9
f 23//9 27//9 100//9
f 110//9 108//9 35//9
f 23//9 100//9 98//9
f 112//9 110//9 35//9
f 23//9 98//9 96//9
f 112//9 35//9 39//9
f 19//9 23//9 96//9
f 114//9 112//9 39//9
f 19//9 96//9 94//9
f 116//9 114//9 39//9
f 19//9 94//9 92//9
f 116//9 39//9 43//9
f 15//9 19//9 92//9
f 118//73 116//9 43//9
f 15//9 92//9 90//9
f 120//9 118//73 43//9
f 15//9 90//9 88//9
f 120//9 43//9 47//9
f 83//9 15//9 88//9
f 122//9 120//9 47//9
f 83//9 88//9 86//9
f 124//9 122//9 47//9
f 83//9 86//9 156//9
f 124//9 47//9 51//9
f 79//9 83//9 156//9
f 126//9 124//9 51//9
f 79//9 156//9 154//74
f 128//9 126//9 51//9
f 79//9 154//74 152//9
f 128//9 51//9 55//9
f 75//9 79//9 152//9
f 130//9 128//9 55//9
f 75//9 152//9 150//9
f 132//9 130//9 55//9
f 75//9 150//9 148//9
f 132//9 55//9 59//9
f 71//9 75//9 148//9
f 134//9 132//9 59//9
f 71//9 148//9 146//9
f 136//9 134//9 59//9
f 71//9 146//9 144//9
f 136//9 59//9 63//9
f 67//9 71//9 144//9
f 138//9 136//9 63//9
f 67//9 144//9 142//9
f 140//9 138//9 63//9
f 67//9 142//9 140//9
f 140//9 63//9 67//9
