# Blender 5.1.2
# www.blender.org
mtllib bench_002.mtl
o Bench0
v 1.003527 0.500004 0.241294
v -0.996473 0.500004 0.241293
v 1.003527 0.500004 -0.258706
v -0.996473 0.500004 -0.258707
v 1.003527 0.550004 -0.258706
v -0.996473 0.550004 -0.258707
v 1.003527 0.550004 0.241294
v -0.996473 0.550004 0.241293
v 1.003527 0.500004 0.241294
v -0.996473 0.500004 0.241293
v 1.003527 0.500004 0.201293
v -0.996473 0.500004 0.201292
v 1.003527 1.000004 0.330402
v -0.996473 1.000004 0.330402
v 1.003527 1.000004 0.370403
v -0.996473 1.000004 0.370403
v 0.843527 0.000004 -0.168706
v 0.763525 0.000004 -0.168706
v 0.843527 0.000004 -0.248708
v 0.763525 0.000004 -0.248708
v 0.843527 0.500004 -0.248708
v 0.763525 0.500004 -0.248708
v 0.843527 0.500004 -0.168706
v 0.763525 0.500004 -0.168706
v -0.756471 0.000004 -0.168706
v -0.836473 0.000004 -0.168706
v -0.756471 0.000004 -0.248708
v -0.836473 0.000004 -0.248708
v -0.756471 0.500004 -0.248708
v -0.836473 0.500004 -0.248708
v -0.756471 0.500004 -0.168706
v -0.836473 0.500004 -0.168706
v 0.843527 0.000004 0.231296
v 0.763525 0.000004 0.231296
v 0.843527 0.000004 0.151294
v 0.763525 0.000004 0.151294
v 0.843527 0.500004 0.151294
v 0.763525 0.500004 0.151294
v 0.843527 0.500004 0.231296
v 0.763525 0.500004 0.231296
v -0.756472 0.000004 0.231295
v -0.836473 0.000004 0.231295
v -0.756472 0.000004 0.151293
v -0.836473 0.000004 0.151293
v -0.756472 0.500004 0.151293
v -0.836473 0.500004 0.151293
v -0.756472 0.500004 0.231295
v -0.836473 0.500004 0.231295
v 1.003527 0.550004 -0.258706
v -0.996473 0.550004 -0.258707
v 1.003527 0.550004 0.241294
v -0.996473 0.550004 0.241293
vn -0.0000 -0.0000 -1.0000
vn -0.0000 1.0000 -0.0000
vn -1.0000 -0.0000 -0.0000
vn -0.0000 -0.0000 1.0000
vn 1.0000 -0.0000 -0.0000
vn -0.0000 -0.2500 0.9682
vn -0.0000 -1.0000 -0.0000
vn -0.0000 0.2500 -0.9682
s 1
usemtl WOOD_0.001
f 28//1 30//1 29//1 27//1
f 50//2 52//2 51//2 49//2
f 12//3 10//3 16//3 14//3
f 8//4 2//4 7//4
f 2//4 1//4 7//4
f 9//5 11//5 13//5 15//5
f 4//1 6//1 5//1 3//1
f 13//2 14//2 15//2
f 14//2 16//2 15//2
f 20//3 18//3 24//3 22//3
f 42//4 41//4 47//4 48//4
f 10//6 9//6 15//6 16//6
f 17//5 19//5 21//5 23//5
f 21//2 22//2 23//2
f 22//2 24//2 23//2
f 36//3 34//3 40//3 38//3
f 10//7 12//7 11//7 9//7
f 36//1 38//1 37//1 35//1
f 28//3 26//3 32//3 30//3
f 29//2 30//2 31//2
f 30//2 32//2 31//2
f 44//1 46//1 45//1 43//1
f 4//3 2//3 8//3 6//3
f 34//4 33//4 39//4 40//4
f 33//5 35//5 37//5 39//5
f 37//2 38//2 39//2
f 38//2 40//2 39//2
f 2//7 4//7 3//7 1//7
f 18//4 17//4 23//4 24//4
f 1//5 3//5 5//5 7//5
f 25//5 27//5 29//5 31//5
f 44//3 42//3 48//3 46//3
f 45//2 46//2 47//2
f 46//2 48//2 47//2
f 20//1 22//1 21//1 19//1
f 41//5 43//5 45//5 47//5
f 26//4 25//4 31//4 32//4
f 12//8 14//8 13//8 11//8
