# Blender 5.1.2
# www.blender.org
mtllib bicycle_parking.mtl
o bicycle_parking
v -0.425000 0.050000 0.425000
v -0.425000 0.050000 0.375000
v -0.425000 0.800000 0.375000
v -0.425000 0.800000 0.425000
v -0.375000 0.050000 0.425000
v -0.375000 0.050000 0.375000
v -0.375000 0.800000 0.375000
v -0.375000 0.800000 0.425000
v -0.425000 0.050000 -0.375000
v -0.425000 0.050000 -0.425000
v -0.425000 0.800000 -0.425000
v -0.425000 0.800000 -0.375000
v -0.375000 0.050000 -0.375000
v -0.375000 0.050000 -0.425000
v -0.375000 0.800000 -0.425000
v -0.375000 0.800000 -0.375000
v -0.425000 0.750000 0.425000
v -0.425000 0.750000 -0.425000
v -0.425000 0.800000 -0.425000
v -0.425000 0.800000 0.425000
v -0.375000 0.750000 0.425000
v -0.375000 0.750000 -0.425000
v -0.375000 0.800000 -0.425000
v -0.375000 0.800000 0.425000
v -0.025000 0.050000 0.425000
v -0.025000 0.050000 0.375000
v -0.025000 0.800000 0.375000
v -0.025000 0.800000 0.425000
v 0.025000 0.050000 0.425000
v 0.025000 0.050000 0.375000
v 0.025000 0.800000 0.375000
v 0.025000 0.800000 0.425000
v -0.025000 0.050000 -0.375000
v -0.025000 0.050000 -0.425000
v -0.025000 0.800000 -0.425000
v -0.025000 0.800000 -0.375000
v 0.025000 0.050000 -0.375000
v 0.025000 0.050000 -0.425000
v 0.025000 0.800000 -0.425000
v 0.025000 0.800000 -0.375000
v -0.025000 0.750000 0.425000
v -0.025000 0.750000 -0.425000
v -0.025000 0.800000 -0.425000
v -0.025000 0.800000 0.425000
v 0.025000 0.750000 0.425000
v 0.025000 0.750000 -0.425000
v 0.025000 0.800000 -0.425000
v 0.025000 0.800000 0.425000
v 0.375000 0.050000 0.425000
v 0.375000 0.050000 0.375000
v 0.375000 0.800000 0.375000
v 0.375000 0.800000 0.425000
v 0.425000 0.050000 0.425000
v 0.425000 0.050000 0.375000
v 0.425000 0.800000 0.375000
v 0.425000 0.800000 0.425000
v 0.375000 0.050000 -0.375000
v 0.375000 0.050000 -0.425000
v 0.375000 0.800000 -0.425000
v 0.375000 0.800000 -0.375000
v 0.425000 0.050000 -0.375000
v 0.425000 0.050000 -0.425000
v 0.425000 0.800000 -0.425000
v 0.425000 0.800000 -0.375000
v 0.375000 0.750000 0.425000
v 0.375000 0.750000 -0.425000
v 0.375000 0.800000 -0.425000
v 0.375000 0.800000 0.425000
v 0.425000 0.750000 0.425000
v 0.425000 0.750000 -0.425000
v 0.425000 0.800000 -0.425000
v 0.425000 0.800000 0.425000
v 0.773234 0.050000 0.425000
v 0.773234 0.050000 0.375000
v 0.773234 0.800000 0.375000
v 0.773234 0.800000 0.425000
v 0.823234 0.050000 0.425000
v 0.823234 0.050000 0.375000
v 0.823234 0.800000 0.375000
v 0.823234 0.800000 0.425000
v 0.773234 0.050000 -0.375000
v 0.773234 0.050000 -0.425000
v 0.773234 0.800000 -0.425000
v 0.773234 0.800000 -0.375000
v 0.823234 0.050000 -0.375000
v 0.823234 0.050000 -0.425000
v 0.823234 0.800000 -0.425000
v 0.823234 0.800000 -0.375000
v 0.773234 0.750000 0.425000
v 0.773234 0.750000 -0.425000
v 0.773234 0.800000 -0.425000
v 0.773234 0.800000 0.425000
v 0.823234 0.750000 0.425000
v 0.823234 0.750000 -0.425000
v 0.823234 0.800000 -0.425000
v 0.823234 0.800000 0.425000
v -0.828607 0.050000 0.425000
v -0.828607 0.050000 0.375000
v -0.828607 0.797283 0.375000
v -0.828607 0.797283 0.425000
v -0.778607 0.050000 0.425000
v -0.778607 0.050000 0.375000
v -0.778607 0.797283 0.375000
v -0.778607 0.797283 0.425000
v -0.828607 0.050000 -0.375000
v -0.828607 0.050000 -0.425000
v -0.828607 0.797283 -0.425000
v -0.828607 0.797283 -0.375000
v -0.778607 0.050000 -0.375000
v -0.778607 0.050000 -0.425000
v -0.778607 0.797283 -0.425000
v -0.778607 0.797283 -0.375000
v -0.828607 0.747283 0.425000
v -0.828607 0.747283 -0.425000
v -0.828607 0.797283 -0.425000
v -0.828607 0.797283 0.425000
v -0.778607 0.747283 0.425000
v -0.778607 0.747283 -0.425000
v -0.778607 0.797283 -0.425000
v -0.778607 0.797283 0.425000
v 0.822773 -0.000000 0.422548
v 0.822773 0.050000 0.422548
v -0.828359 -0.000000 0.422549
v -0.828359 0.050000 0.422549
v 0.822773 -0.000000 0.373667
v 0.822773 0.050000 0.373667
v -0.828359 -0.000000 0.373668
v -0.828359 0.050000 0.373668
v 0.822773 -0.000000 -0.376234
v 0.822773 0.050000 -0.376234
v -0.828359 -0.000000 -0.376234
v -0.828359 0.050000 -0.376234
v 0.822773 -0.000000 -0.425115
v 0.822773 0.050000 -0.425115
v -0.828359 -0.000000 -0.425115
v -0.828359 0.050000 -0.425115
vn 1.0000 -0.0000 -0.0000
vn -1.0000 -0.0000 -0.0000
vn -0.0000 -0.0000 1.0000
vn -0.0000 -1.0000 -0.0000
vn -0.0000 -0.0000 -1.0000
vn -0.0000 1.0000 -0.0000
vt 0.000000 0.000000
vt 0.375000 0.000000
vt 0.625000 0.000000
vt 0.625000 0.250000
vt 0.375000 0.250000
vt 0.625000 0.500000
vt 0.375000 0.500000
vt 0.625000 0.750000
vt 0.375000 0.750000
vt 0.625000 1.000000
vt 0.375000 1.000000
vt 0.875000 0.500000
vt 0.875000 0.750000
s 0
usemtl metal
f 1/1/1 2/1/1 3/1/1 4/1/1
f 8/1/2 7/1/2 6/1/2 5/1/2
f 81/1/1 82/1/1 83/1/1 84/1/1
f 2/1/3 6/1/3 7/1/3 3/1/3
f 3/1/4 7/1/4 8/1/4 4/1/4
f 4/1/5 8/1/5 5/1/5 1/1/5
f 9/1/1 10/1/1 11/1/1 12/1/1
f 16/1/2 15/1/2 14/1/2 13/1/2
f 76/1/5 80/1/5 77/1/5 73/1/5
f 10/1/3 14/1/3 15/1/3 11/1/3
f 11/1/4 15/1/4 16/1/4 12/1/4
f 12/1/5 16/1/5 13/1/5 9/1/5
f 17/1/1 18/1/1 19/1/1 20/1/1
f 24/1/2 23/1/2 22/1/2 21/1/2
f 17/1/6 21/1/6 22/1/6 18/1/6
f 18/1/3 22/1/3 23/1/3 19/1/3
f 19/1/4 23/1/4 24/1/4 20/1/4
f 20/1/5 24/1/5 21/1/5 17/1/5
f 25/1/1 26/1/1 27/1/1 28/1/1
f 32/1/2 31/1/2 30/1/2 29/1/2
f 75/1/4 79/1/4 80/1/4 76/1/4
f 26/1/3 30/1/3 31/1/3 27/1/3
f 27/1/4 31/1/4 32/1/4 28/1/4
f 28/1/5 32/1/5 29/1/5 25/1/5
f 33/1/1 34/1/1 35/1/1 36/1/1
f 40/1/2 39/1/2 38/1/2 37/1/2
f 74/1/3 78/1/3 79/1/3 75/1/3
f 34/1/3 38/1/3 39/1/3 35/1/3
f 35/1/4 39/1/4 40/1/4 36/1/4
f 36/1/5 40/1/5 37/1/5 33/1/5
f 41/1/1 42/1/1 43/1/1 44/1/1
f 48/1/2 47/1/2 46/1/2 45/1/2
f 41/1/6 45/1/6 46/1/6 42/1/6
f 42/1/3 46/1/3 47/1/3 43/1/3
f 43/1/4 47/1/4 48/1/4 44/1/4
f 44/1/5 48/1/5 45/1/5 41/1/5
f 49/1/1 50/1/1 51/1/1 52/1/1
f 56/1/2 55/1/2 54/1/2 53/1/2
f 80/1/2 79/1/2 78/1/2 77/1/2
f 50/1/3 54/1/3 55/1/3 51/1/3
f 51/1/4 55/1/4 56/1/4 52/1/4
f 52/1/5 56/1/5 53/1/5 49/1/5
f 57/1/1 58/1/1 59/1/1 60/1/1
f 64/1/2 63/1/2 62/1/2 61/1/2
f 73/1/1 74/1/1 75/1/1 76/1/1
f 58/1/3 62/1/3 63/1/3 59/1/3
f 59/1/4 63/1/4 64/1/4 60/1/4
f 60/1/5 64/1/5 61/1/5 57/1/5
f 65/1/1 66/1/1 67/1/1 68/1/1
f 72/1/2 71/1/2 70/1/2 69/1/2
f 65/1/6 69/1/6 70/1/6 66/1/6
f 66/1/3 70/1/3 71/1/3 67/1/3
f 67/1/4 71/1/4 72/1/4 68/1/4
f 68/1/5 72/1/5 69/1/5 65/1/5
f 88/1/2 87/1/2 86/1/2 85/1/2
f 82/1/3 86/1/3 87/1/3 83/1/3
f 83/1/4 87/1/4 88/1/4 84/1/4
f 84/1/5 88/1/5 85/1/5 81/1/5
f 89/1/1 90/1/1 91/1/1 92/1/1
f 96/1/2 95/1/2 94/1/2 93/1/2
f 89/1/6 93/1/6 94/1/6 90/1/6
f 90/1/3 94/1/3 95/1/3 91/1/3
f 91/1/4 95/1/4 96/1/4 92/1/4
f 92/1/5 96/1/5 93/1/5 89/1/5
f 97/1/1 98/1/1 99/1/1 100/1/1
f 104/1/2 103/1/2 102/1/2 101/1/2
f 98/1/3 102/1/3 103/1/3 99/1/3
f 99/1/4 103/1/4 104/1/4 100/1/4
f 100/1/5 104/1/5 101/1/5 97/1/5
f 105/1/1 106/1/1 107/1/1 108/1/1
f 112/1/2 111/1/2 110/1/2 109/1/2
f 106/1/3 110/1/3 111/1/3 107/1/3
f 107/1/4 111/1/4 112/1/4 108/1/4
f 108/1/5 112/1/5 109/1/5 105/1/5
f 113/1/1 114/1/1 115/1/1 116/1/1
f 120/1/2 119/1/2 118/1/2 117/1/2
f 113/1/6 117/1/6 118/1/6 114/1/6
f 114/1/3 118/1/3 119/1/3 115/1/3
f 115/1/4 119/1/4 120/1/4 116/1/4
f 116/1/5 120/1/5 117/1/5 113/1/5
f 121/2/3 122/3/3 124/4/3 123/5/3
f 123/5/2 124/4/2 128/6/2 127/7/2
f 127/7/5 128/6/5 126/8/5 125/9/5
f 125/9/1 126/8/1 122/10/1 121/11/1
f 128/6/6 124/12/6 122/13/6 126/8/6
f 129/2/3 130/3/3 132/4/3 131/5/3
f 131/5/2 132/4/2 136/6/2 135/7/2
f 135/7/5 136/6/5 134/8/5 133/9/5
f 133/9/1 134/8/1 130/10/1 129/11/1
f 136/6/6 132/12/6 130/13/6 134/8/6
