# Blender 5.1.2
# www.blender.org
mtllib bus_stop_sign.mtl
o bus_stop_sign
v 0.020000 0.000000 0.000000
v 0.014000 0.000000 0.014000
v 0.000000 0.000000 0.020000
v -0.014000 0.000000 0.014000
v -0.020000 0.000000 0.000000
v -0.014000 -0.000000 -0.014000
v 0.000000 -0.000000 -0.020000
v 0.014000 -0.000000 -0.014000
v 0.020000 2.000803 -0.000000
v 0.014000 2.000803 0.014000
v 0.000000 2.000803 0.020000
v -0.014000 2.000803 0.014000
v -0.020000 2.000803 -0.000000
v -0.014000 2.000803 -0.014000
v 0.000000 2.000803 -0.020000
v 0.014000 2.000803 -0.014000
v -0.250000 2.000000 -0.015448
v 0.250000 2.000000 -0.015448
v 0.250000 2.500000 -0.015448
v -0.250000 2.500000 -0.015448
v -0.250000 2.000000 0.014303
v 0.250000 2.000000 0.014303
v 0.250000 2.500000 0.014303
v -0.250000 2.500000 0.014303
v 0.200000 2.450000 -0.015448
v -0.200000 2.450000 -0.015448
v -0.200000 2.050000 -0.015448
v 0.200000 2.050000 -0.015448
v -0.200000 2.050000 0.014303
v 0.200000 2.050000 0.014303
v 0.200000 2.450000 0.014303
v -0.200000 2.450000 0.014303
vn -0.9191 -0.0000 -0.3939
vn -0.3939 -0.0000 -0.9191
vn 0.3939 -0.0000 -0.9191
vn 0.9191 -0.0000 -0.3939
vn 0.9191 -0.0000 0.3939
vn 0.3939 -0.0000 0.9191
vn -0.3939 -0.0000 0.9191
vn -0.9191 -0.0000 0.3939
vn -0.0000 -1.0000 -0.0000
vn -0.0000 -0.0000 -1.0000
vn -0.0000 -0.0000 1.0000
vn 1.0000 -0.0000 -0.0000
vn -1.0000 -0.0000 -0.0000
vn -0.0000 1.0000 -0.0000
s 0
usemtl PoleGrey
f 1//1 2//1 10//1 9//1
f 2//2 3//2 11//2 10//2
f 3//3 4//3 12//3 11//3
f 4//4 5//4 13//4 12//4
f 5//5 6//5 14//5 13//5
f 6//6 7//6 15//6 14//6
f 7//7 8//7 16//7 15//7
f 8//8 1//8 9//8 16//8
f 16//9 9//9 10//9 11//9 12//9 13//9 14//9 15//9
usemtl SignBlue
f 25//10 19//10 18//10 17//10 20//10 26//10 27//10 28//10
f 26//10 20//10 19//10 25//10
f 24//11 21//11 29//11 32//11
f 29//11 21//11 22//11 23//11 24//11 32//11 31//11 30//11
f 18//12 19//12 23//12 22//12
f 20//13 17//13 21//13 24//13
f 19//14 20//14 24//14 23//14
f 17//9 18//9 22//9 21//9
usemtl SignWhite
f 29//10 32//10 31//10 30//10
f 27//11 28//11 25//11 26//11
