mtllib bus_stop_001.mtl
o bus_stop

# --- Vertices ---
# Frame & Roof
v -1.5 0.0 0.0
v -1.4 0.0 0.0
v -1.4 2.5 0.0
v -1.5 2.5 0.0
v -1.5 0.0 0.1
v -1.4 0.0 0.1
v -1.4 2.5 0.1
v -1.5 2.5 0.1
v 1.4 0.0 0.0
v 1.5 0.0 0.0
v 1.5 2.5 0.0
v 1.4 2.5 0.0
v 1.4 0.0 0.1
v 1.5 0.0 0.1
v 1.5 2.5 0.1
v 1.4 2.5 0.1
v -1.5 0.0 1.4
v -1.4 0.0 1.4
v -1.4 2.5 1.4
v -1.5 2.5 1.4
v -1.5 0.0 1.5
v -1.4 0.0 1.5
v -1.4 2.5 1.5
v -1.5 2.5 1.5
v 1.4 0.0 1.4
v 1.5 0.0 1.4
v 1.5 2.5 1.4
v 1.4 2.5 1.4
v 1.4 0.0 1.5
v 1.5 0.0 1.5
v 1.5 2.5 1.5
v 1.4 2.5 1.5
v -1.6 2.5 -0.1
v 1.6 2.5 -0.1
v 1.6 2.6 -0.1
v -1.6 2.6 -0.1
v -1.6 2.5 1.6
v 1.6 2.5 1.6
v 1.6 2.6 1.6
v -1.6 2.6 1.6

# Glass Panels
v -1.4 0.5 1.44
v 1.4 0.5 1.44
v 1.4 2.3 1.44
v -1.4 2.3 1.44
v -1.4 0.5 1.46
v 1.4 0.5 1.46
v 1.4 2.3 1.46
v -1.4 2.3 1.46
v -1.46 0.5 0.1
v -1.44 0.5 0.1
v -1.44 2.3 0.1
v -1.46 2.3 0.1
v -1.46 0.5 1.4
v -1.44 0.5 1.4
v -1.44 2.3 1.4
v -1.46 2.3 1.4
v 1.44 0.5 0.1
v 1.46 0.5 0.1
v 1.46 2.3 0.1
v 1.44 2.3 0.1
v 1.44 0.5 1.4
v 1.46 0.5 1.4
v 1.46 2.3 1.4
v 1.44 2.3 1.4

# Bench
v -1.2 0.4 1.0
v 1.2 0.4 1.0
v 1.2 0.5 1.0
v -1.2 0.5 1.0
v -1.2 0.4 1.35
v 1.2 0.4 1.35
v 1.2 0.5 1.35
v -1.2 0.5 1.35
v -1.2 0.5 1.35
v 1.2 0.5 1.35
v 1.2 0.9 1.35
v -1.2 0.9 1.35
v -1.2 0.5 1.4
v 1.2 0.5 1.4
v 1.2 0.9 1.4
v -1.2 0.9 1.4

# --- Faces ---

# Draw Opaque Frame First
usemtl Frame
f 4 3 2 1
f 5 6 7 8
f 1 5 8 4
f 2 3 7 6
f 1 2 6 5
f 4 8 7 3
f 12 11 10 9
f 13 14 15 16
f 9 13 16 12
f 10 11 15 14
f 9 10 14 13
f 12 16 15 11
f 20 19 18 17
f 21 22 23 24
f 17 21 24 20
f 18 19 23 22
f 17 18 22 21
f 20 24 23 19
f 28 27 26 25
f 29 30 31 32
f 25 29 32 28
f 26 27 31 30
f 25 26 30 29
f 28 32 31 27
f 36 35 34 33
f 37 38 39 40
f 33 37 40 36
f 34 35 39 38
f 33 34 38 37
f 36 40 39 35

# Draw Opaque Bench Second
usemtl Bench
f 68 67 66 65
f 69 70 71 72
f 65 69 72 68
f 66 67 71 70
f 65 66 70 69
f 68 72 71 67
f 76 75 74 73
f 77 78 79 80
f 73 77 80 76
f 74 75 79 78
f 73 74 78 77
f 76 80 79 75

# Draw Semi-Transparent Glass Last
usemtl Glass
f 44 43 42 41
f 45 46 47 48
f 41 45 48 44
f 42 43 47 46
f 41 42 46 45
f 44 48 47 43
f 52 51 50 49
f 53 54 55 56
f 49 53 56 52
f 50 51 55 54
f 49 50 54 53
f 52 56 55 51
f 60 59 58 57
f 61 62 63 64
f 57 61 64 60
f 58 59 63 62
f 57 58 62 61
f 60 64 63 59
