# Blender 5.1.2
# www.blender.org
mtllib bus_stop_002.mtl
o bus_stop
v -1.500000 0.000000 0.000000
v -1.400000 0.000000 0.000000
v -1.400000 2.500000 -0.000000
v -1.500000 2.500000 -0.000000
v -1.500000 0.000000 0.100000
v -1.400000 0.000000 0.100000
v -1.400000 2.500000 0.100000
v -1.500000 2.500000 0.100000
v 1.400000 0.000000 0.000000
v 1.500000 0.000000 0.000000
v 1.500000 2.500000 -0.000000
v 1.400000 2.500000 -0.000000
v 1.400000 0.000000 0.100000
v 1.500000 0.000000 0.100000
v 1.500000 2.500000 0.100000
v 1.400000 2.500000 0.100000
v -1.500000 0.000000 1.400000
v -1.400000 0.000000 1.400000
v -1.400000 2.500000 1.400000
v -1.500000 2.500000 1.400000
v -1.500000 0.000000 1.500000
v -1.400000 0.000000 1.500000
v -1.400000 2.500000 1.500000
v -1.500000 2.500000 1.500000
v 1.400000 0.000000 1.400000
v 1.500000 0.000000 1.400000
v 1.500000 2.500000 1.400000
v 1.400000 2.500000 1.400000
v 1.400000 0.000000 1.500000
v 1.500000 0.000000 1.500000
v 1.500000 2.500000 1.500000
v 1.400000 2.500000 1.500000
v -1.600000 2.500000 -0.100000
v 1.600000 2.500000 -0.100000
v 1.600000 2.600000 -0.100000
v -1.600000 2.600000 -0.100000
v -1.600000 2.500000 1.600000
v 1.600000 2.500000 1.600000
v 1.600000 2.600000 1.600000
v -1.600000 2.600000 1.600000
v -1.400000 0.500000 1.440000
v 1.400000 0.500000 1.440000
v 1.400000 2.300000 1.440000
v -1.400000 2.300000 1.440000
v -1.400000 0.500000 1.460000
v 1.400000 0.500000 1.460000
v 1.400000 2.300000 1.460000
v -1.400000 2.300000 1.460000
v -1.460000 0.500000 0.100000
v -1.440000 0.500000 0.100000
v -1.440000 2.300000 0.100000
v -1.460000 2.300000 0.100000
v -1.460000 0.500000 1.400000
v -1.440000 0.500000 1.400000
v -1.440000 2.300000 1.400000
v -1.460000 2.300000 1.400000
v 1.440000 0.500000 0.100000
v 1.460000 0.500000 0.100000
v 1.460000 2.300000 0.100000
v 1.440000 2.300000 0.100000
v 1.440000 0.500000 1.400000
v 1.460000 0.500000 1.400000
v 1.460000 2.300000 1.400000
v 1.440000 2.300000 1.400000
vn -0.0000 -0.0000 -1.0000
vn -0.0000 -0.0000 1.0000
vn -1.0000 -0.0000 -0.0000
vn 1.0000 -0.0000 -0.0000
vn -0.0000 -1.0000 -0.0000
vn -0.0000 1.0000 -0.0000
s 0
usemtl Frame
f 4//1 3//1 2//1 1//1
f 5//2 6//2 7//2 8//2
f 1//3 5//3 8//3 4//3
f 2//4 3//4 7//4 6//4
f 1//5 2//5 6//5 5//5
f 4//6 8//6 7//6 3//6
f 12//1 11//1 10//1 9//1
f 13//2 14//2 15//2 16//2
f 9//3 13//3 16//3 12//3
f 10//4 11//4 15//4 14//4
f 9//5 10//5 14//5 13//5
f 12//6 16//6 15//6 11//6
f 20//1 19//1 18//1 17//1
f 21//2 22//2 23//2 24//2
f 17//3 21//3 24//3 20//3
f 18//4 19//4 23//4 22//4
f 17//5 18//5 22//5 21//5
f 20//6 24//6 23//6 19//6
f 28//1 27//1 26//1 25//1
f 29//2 30//2 31//2 32//2
f 25//3 29//3 32//3 28//3
f 26//4 27//4 31//4 30//4
f 25//5 26//5 30//5 29//5
f 28//6 32//6 31//6 27//6
f 36//1 35//1 34//1 33//1
f 37//2 38//2 39//2 40//2
f 33//3 37//3 40//3 36//3
f 34//4 35//4 39//4 38//4
f 33//5 34//5 38//5 37//5
f 36//6 40//6 39//6 35//6
usemtl Glass
f 44//1 43//1 42//1 41//1
f 45//2 46//2 47//2 48//2
f 41//3 45//3 48//3 44//3
f 42//4 43//4 47//4 46//4
f 41//5 42//5 46//5 45//5
f 44//6 48//6 47//6 43//6
f 52//1 51//1 50//1 49//1
f 53//2 54//2 55//2 56//2
f 49//3 53//3 56//3 52//3
f 50//4 51//4 55//4 54//4
f 49//5 50//5 54//5 53//5
f 52//6 56//6 55//6 51//6
f 60//1 59//1 58//1 57//1
f 61//2 62//2 63//2 64//2
f 57//3 61//3 64//3 60//3
f 58//4 59//4 63//4 62//4
f 57//5 58//5 62//5 61//5
f 60//6 64//6 63//6 59//6
