mtllib fire_hydrant.mtl

# Octagonal Fire Hydrant
# Scale: approx 1 meter high

# --- Vertices ---

# Base (y=0 to y=0.1, radius=0.15)
v  0.15  0.00  0.06  # 1
v  0.06  0.00  0.15  # 2
v -0.06  0.00  0.15  # 3
v -0.15  0.00  0.06  # 4
v -0.15  0.00 -0.06  # 5
v -0.06  0.00 -0.15  # 6
v  0.06  0.00 -0.15  # 7
v  0.15  0.00 -0.06  # 8

v  0.15  0.10  0.06  # 9
v  0.06  0.10  0.15  # 10
v -0.06  0.10  0.15  # 11
v -0.15  0.10  0.06  # 12
v -0.15  0.10 -0.06  # 13
v -0.06  0.10 -0.15  # 14
v  0.06  0.10 -0.15  # 15
v  0.15  0.10 -0.06  # 16

# Body (y=0.1 to y=0.8, radius=0.1)
v  0.10  0.10  0.04  # 17
v  0.04  0.10  0.10  # 18
v -0.04  0.10  0.10  # 19
v -0.10  0.10  0.04  # 20
v -0.10  0.10 -0.04  # 21
v -0.04  0.10 -0.10  # 22
v  0.04  0.10 -0.10  # 23
v  0.10  0.10 -0.04  # 24

v  0.10  0.80  0.04  # 25
v  0.04  0.80  0.10  # 26
v -0.04  0.80  0.10  # 27
v -0.10  0.80  0.04  # 28
v -0.10  0.80 -0.04  # 29
v -0.04  0.80 -0.10  # 30
v  0.04  0.80 -0.10  # 31
v  0.10  0.80 -0.04  # 32

# --- New Bonnet / Cap Design ---

# 1. Wide Flange (y=0.8 to y=0.84, radius=0.13)
v  0.13  0.80  0.054 # 33
v  0.054 0.80  0.13  # 34
v -0.054 0.80  0.13  # 35
v -0.13  0.80  0.054 # 36
v -0.13  0.80 -0.054 # 37
v -0.054 0.80 -0.13  # 38
v  0.054 0.80 -0.13  # 39
v  0.13  0.80 -0.054 # 40

v  0.13  0.84  0.054 # 41
v  0.054 0.84  0.13  # 42
v -0.054 0.84  0.13  # 43
v -0.13  0.84  0.054 # 44
v -0.13  0.84 -0.054 # 45
v -0.054 0.84 -0.13  # 46
v  0.054 0.84 -0.13  # 47
v  0.13  0.84 -0.054 # 48

# 2. Dome Base (y=0.84, radius=0.10 - matching column)
v  0.10  0.84  0.041 # 49
v  0.041 0.84  0.10  # 50
v -0.041 0.84  0.10  # 51
v -0.10  0.84  0.041 # 52
v -0.10  0.84 -0.041 # 53
v -0.041 0.84 -0.10  # 54
v  0.041 0.84 -0.10  # 55
v  0.10  0.84 -0.041 # 56

# 3. Intermediate Dome Ring (y=0.92, radius=0.07)
v  0.07  0.92  0.029 # 57
v  0.029 0.92  0.07  # 58
v -0.029 0.92  0.07  # 59
v -0.07  0.92  0.029 # 60
v -0.07  0.92 -0.029 # 61
v -0.029 0.92 -0.07  # 62
v  0.029 0.92 -0.07  # 63
v  0.07  0.92 -0.029 # 64

# 4. Top point (y=0.96)
v 0.0 0.96 0.0       # 65

# --- Nozzles (Sleeves) - Large size ---

# Front Nozzle (Z+) - Center (0, 0.45, 0.1)
v  0.065  0.450  0.10  # 66
v  0.046  0.496  0.10  # 67
v  0.000  0.515  0.10  # 68
v -0.046  0.496  0.10  # 69
v -0.065  0.450  0.10  # 70
v -0.046  0.404  0.10  # 71
v  0.000  0.385  0.10  # 72
v  0.046  0.404  0.10  # 73

v  0.065  0.450  0.23  # 74
v  0.046  0.496  0.23  # 75
v  0.000  0.515  0.23  # 76
v -0.046  0.496  0.23  # 77
v -0.065  0.450  0.23  # 78
v -0.046  0.404  0.23  # 79
v  0.000  0.385  0.23  # 80
v  0.046  0.404  0.23  # 81
v  0.000  0.450  0.26  # 82 (peak)

# Right Side Nozzle (X+)
v  0.10  0.550  0.065  # 83
v  0.10  0.596  0.046  # 84
v  0.10  0.615  0.000  # 85
v  0.10  0.596 -0.046  # 86
v  0.10  0.550 -0.065  # 87
v  0.10  0.504 -0.046  # 88
v  0.10  0.485  0.000  # 89
v  0.10  0.504  0.065  # 90

v  0.20  0.550  0.065  # 91
v  0.20  0.596  0.046  # 92
v  0.20  0.615  0.000  # 93
v  0.20  0.596 -0.046  # 94
v  0.20  0.550 -0.065  # 95
v  0.20  0.504 -0.046  # 96
v  0.20  0.485  0.000  # 97
v  0.20  0.504  0.065  # 98
v  0.23  0.550  0.000  # 99 (peak)

# Left Side Nozzle (X-)
v -0.10  0.550  0.065  # 100
v -0.10  0.596  0.046  # 101
v -0.10  0.615  0.000  # 102
v -0.10  0.596 -0.046  # 103
v -0.10  0.550 -0.065  # 104
v -0.10  0.504 -0.046  # 105
v -0.10  0.485  0.000  # 106
v -0.10  0.504  0.065  # 107

v -0.20  0.550  0.065  # 108
v -0.20  0.596  0.046  # 109
v -0.20  0.615  0.000  # 110
v -0.20  0.596 -0.046  # 111
v -0.20  0.550 -0.065  # 112
v -0.20  0.504 -0.046  # 113
v -0.20  0.485  0.000  # 114
v -0.20  0.504  0.065  # 115
v -0.23  0.550  0.000  # 116 (peak)

# --- Faces ---

# Base Sides
usemtl DarkGrey
f 1 2 10 9
f 2 3 11 10
f 3 4 12 11
f 4 5 13 12
f 5 6 14 13
f 6 7 15 14
f 7 8 16 15
f 8 1 9 16

# Base Top (Transition to body)
f 9 17 18 10
f 10 18 19 11
f 11 19 20 12
f 12 20 21 13
f 13 21 22 14
f 14 22 23 15
f 15 23 24 16
f 16 24 17 9

# Body Sides
usemtl Red
f 17 18 26 25
f 18 19 27 26
f 19 20 28 27
f 20 21 29 28
f 21 22 30 29
f 22 23 31 30
f 23 24 32 31
f 24 17 25 32

# Bonnet Flange (Sides)
usemtl DarkGrey
f 33 34 42 41
f 34 35 43 42
f 35 36 44 43
f 36 37 45 44
f 37 38 46 45
f 38 39 47 46
f 39 40 48 47
f 40 33 41 48

# Transition: Column Top to Flange Base (inner)
f 25 26 34 33
f 26 27 35 34
f 27 28 36 35
f 28 29 37 36
f 29 30 38 37
f 30 31 39 38
f 31 32 40 39
f 32 25 33 40

# Transition: Flange Top to Dome Base
usemtl Red
f 41 42 50 49
f 42 43 51 50
f 43 44 52 51
f 44 45 53 52
f 45 46 54 53
f 46 47 55 54
f 47 48 56 55
f 48 41 49 56

# Dome Lower Section
f 49 50 58 57
f 50 51 59 58
f 51 52 60 59
f 52 53 61 60
f 53 54 62 61
f 54 55 63 62
f 55 56 64 63
f 56 49 57 64

# Dome Upper Section (to peak)
f 57 58 65
f 58 59 65
f 59 60 65
f 60 61 65
f 61 62 65
f 62 63 65
f 63 64 65
f 64 57 65

# Front Nozzle
usemtl Red
f 66 67 75 74
f 67 68 76 75
f 68 69 77 76
f 69 70 78 77
f 70 71 79 78
f 71 72 80 79
f 72 73 81 80
f 73 66 74 81
usemtl Silver
f 74 75 82
f 75 76 82
f 76 77 82
f 77 78 82
f 78 79 82
f 79 80 82
f 80 81 82
f 81 74 82

# Right Side Nozzle
usemtl Red
f 83 84 92 91
f 84 85 93 92
f 85 86 94 93
f 86 87 95 94
f 87 88 96 95
f 88 89 97 96
f 89 90 98 97
f 90 83 91 98
usemtl Silver
f 91 92 99
f 92 93 99
f 93 94 99
f 94 95 99
f 95 96 99
f 96 97 99
f 97 98 99
f 98 91 99

# Left Side Nozzle
usemtl Red
f 100 101 109 108
f 101 102 110 109
f 102 103 111 110
f 103 104 112 111
f 104 105 113 112
f 105 106 114 113
f 106 107 115 114
f 107 100 108 115
usemtl Silver
f 108 109 116
f 109 110 116
f 110 111 116
f 111 112 116
f 112 113 116
f 113 114 116
f 114 115 116
f 115 108 116
