mtllib tourism_info.mtl

# Tourism Guidepost (Wooden pole + multiple arrow signs)
# Scale: approx 2.5 meters high

# --- Vertices ---

# Pole (y=0 to 2.5, x=0, z=0, r=0.04)
v  0.04  0.0  0.00
v  0.03  0.0  0.03
v  0.00  0.0  0.04
v -0.03  0.0  0.03
v -0.04  0.0  0.00
v -0.03  0.0 -0.03
v  0.00  0.0 -0.04
v  0.03  0.0 -0.03

v  0.04  2.5  0.00
v  0.03  2.5  0.03
v  0.00  2.5  0.04
v -0.03  2.5  0.03
v -0.04  2.5  0.00
v -0.03  2.5 -0.03
v  0.00  2.5 -0.04
v  0.03  2.5 -0.03

# --- Sign 1 (Direction: X+, y=2.1 to 2.3) ---
# Front (z=0.04)
v  0.04  2.1  0.04
v  0.4   2.1  0.04
v  0.4   2.05 0.04
v  0.55  2.2  0.04
v  0.4   2.35 0.04
v  0.4   2.3  0.04
v  0.04  2.3  0.04
# Back (z=0.02)
v  0.04  2.1  0.02
v  0.4   2.1  0.02
v  0.4   2.05 0.02
v  0.55  2.2  0.02
v  0.4   2.35 0.02
v  0.4   2.3  0.02
v  0.04  2.3  0.02

# --- Sign 2 (Direction: Z+, y=1.8 to 2.0) ---
# Right side (x=0.01)
v  0.01  1.8  0.04
v  0.01  1.8  0.4 
v  0.01  1.75 0.4 
v  0.01  1.9  0.55
v  0.01  2.05 0.4 
v  0.01  2.0  0.4 
v  0.01  2.0  0.04
# Left side (x=-0.01)
v -0.01  1.8  0.04
v -0.01  1.8  0.4 
v -0.01  1.75 0.4 
v -0.01  1.9  0.55
v -0.01  2.05 0.4 
v -0.01  2.0  0.4 
v -0.01  2.0  0.04

# --- Sign 3 (Direction: X-, y=1.5 to 1.7) ---
# Front (z=-0.02)
v -0.04  1.5 -0.02
v -0.4   1.5 -0.02
v -0.4   1.45 -0.02
v -0.55  1.6  -0.02
v -0.4   1.75 -0.02
v -0.4   1.7  -0.02
v -0.04  1.7  -0.02
# Back (z=-0.04)
v -0.04  1.5 -0.04
v -0.4   1.5 -0.04
v -0.4   1.45 -0.04
v -0.55  1.6  -0.04
v -0.4   1.75 -0.04
v -0.4   1.7  -0.04
v -0.04  1.7  -0.04

# --- Faces ---

# Pole
usemtl Wood
f 1 2 10 9
f 2 3 11 10
f 3 4 12 11
f 4 5 13 12
f 5 6 14 13
f 6 7 15 14
f 7 8 16 15
f 8 1 9 16
f 9 10 11 12 13 14 15 16

# Sign 1 (Right, X+)
usemtl BoardBlue
# Front
f 17 18 22 23
f 19 20 21
f 18 19 21 22
# Back
f 24 30 29 25
f 26 27 28
f 25 29 28 26
# Sides
f 17 24 25 18
f 18 25 26 19
f 19 26 27 20
f 20 27 28 21
f 21 28 29 22
f 22 29 30 23
f 23 30 24 17

# Sign 2 (Front, Z+)
usemtl BoardBlue
# Right side
f 31 32 36 37
f 33 34 35
f 32 33 35 36
# Left side
f 38 44 43 39
f 40 42 41
f 39 43 42 40
# Connectors
f 31 38 39 32
f 32 39 40 33
f 33 40 41 34
f 34 41 42 35
f 35 42 43 36
f 36 43 44 37
f 37 44 38 31

# Sign 3 (Left, X-)
usemtl BoardBlue
# Front
f 45 46 50 51
f 47 48 49
f 46 47 49 50
# Back
f 52 58 57 53
f 54 55 56
f 53 57 56 54
# Sides
f 45 52 53 46
f 46 53 54 47
f 47 54 55 48
f 48 55 56 49
f 49 56 57 50
f 50 57 58 51
f 51 58 52 45
