mtllib tourism_info.mtl

# Tourism Information Map (Single metal pole + tilted map board)
# Scale: approx 1.2 meters high, 0.8 meters wide

# --- Vertices ---

# Pole (y=0 to 1.0, x=0, z=0, r=0.03)
v  0.03  0.0  0.00  # 1
v  0.02  0.0  0.02  # 2
v  0.00  0.0  0.03  # 3
v -0.02  0.0  0.02  # 4
v -0.03  0.0  0.00  # 5
v -0.02  0.0 -0.02  # 6
v  0.00  0.0 -0.03  # 7
v  0.02  0.0 -0.02  # 8

v  0.03  1.0  0.00  # 9
v  0.02  1.0  0.02  # 10
v  0.00  1.0  0.03  # 11
v -0.02  1.0  0.02  # 12
v -0.03  1.0  0.00  # 13
v -0.02  1.0 -0.02  # 14
v  0.00  1.0 -0.03  # 15
v  0.02  1.0 -0.02  # 16

# Map Plate (x=-0.4 to 0.4, y=1.0, z=-0.3 to 0.3)
# Slightly tilted (front lower than back)
# Lower Front edge (y=0.9, z=0.4)
v -0.4  0.9  0.4   # 17
v  0.4  0.9  0.4   # 18
# Upper Back edge (y=1.1, z=-0.2)
v  0.4  1.1 -0.2   # 19
v -0.4  1.1 -0.2   # 20

# Bottom surface (t=0.02)
v -0.4  0.88  0.4  # 21
v  0.4  0.88  0.4  # 22
v  0.4  1.08 -0.2  # 23
v -0.4  1.08 -0.2  # 24

# White Inner Area (Front, y=y+0.001)
v -0.35  0.91  0.35 # 25
v  0.35  0.91  0.35 # 26
v  0.35  1.11 -0.15 # 27
v -0.35  1.11 -0.15 # 28

# --- Faces ---

# Pole
usemtl MetalGrey
f 1 2 10 9
f 2 3 11 10
f 3 4 12 11
f 4 5 13 12
f 5 6 14 13
f 6 7 15 14
f 7 8 16 15
f 8 1 9 16
f 9 10 11 12 13 14 15 16

# Map Plate
usemtl MetalGrey
# Top
f 17 18 19 20
# Bottom
f 21 24 23 22
# Sides
f 18 17 21 22
f 20 19 23 24
f 17 20 24 21
f 19 18 22 23

# White Inset
usemtl BoardWhite
f 25 26 27 28
