# Blender 5.1.2
# www.blender.org
mtllib info_board.mtl
o info_board
v -0.750000 0.000000 0.070440
v -0.650000 0.000000 0.070440
v -0.650000 -0.000000 -0.029560
v -0.750000 -0.000000 -0.029560
v -0.750000 2.200000 0.070440
v -0.650000 2.200000 0.070440
v -0.650000 2.200000 -0.029560
v -0.750000 2.200000 -0.029560
v 0.650000 0.000000 0.073585
v 0.750000 0.000000 0.073585
v 0.750000 -0.000000 -0.026415
v 0.650000 -0.000000 -0.026415
v 0.650000 2.200000 0.073584
v 0.750000 2.200000 0.073584
v 0.750000 2.200000 -0.026416
v 0.650000 2.200000 -0.026416
v -0.700000 0.800000 -0.000000
v 0.700000 0.800000 -0.000000
v 0.700000 2.000000 -0.000000
v -0.700000 2.000000 -0.000000
v -0.700000 0.800000 0.050000
v 0.700000 0.800000 0.050000
v 0.700000 2.000000 0.050000
v -0.700000 2.000000 0.050000
v -0.600000 0.900000 0.050000
v 0.600000 0.900000 0.050000
v 0.600000 1.900000 0.050000
v -0.600000 1.900000 0.050000
v -0.600000 0.900000 -0.000000
v -0.600000 1.900000 -0.000000
v 0.600000 0.900000 -0.000000
v 0.600000 1.900000 -0.000000
vn -0.0000 -0.0000 1.0000
vn 1.0000 -0.0000 -0.0000
vn -0.0000 -0.0000 -1.0000
vn -1.0000 -0.0000 -0.0000
vn -0.0000 1.0000 -0.0000
vn -0.0000 -1.0000 -0.0000
s 0
usemtl Wood
f 1//1 2//1 6//1 5//1
f 2//2 3//2 7//2 6//2
f 3//3 4//3 8//3 7//3
f 4//4 1//4 5//4 8//4
f 5//5 6//5 7//5 8//5
f 9//1 10//1 14//1 13//1
f 10//2 11//2 15//2 14//2
f 11//3 12//3 16//3 15//3
f 12//4 9//4 13//4 16//4
f 13//5 14//5 15//5 16//5
usemtl BoardBlue
f 26//1 22//1 23//1 24//1 21//1 25//1 28//1 27//1
f 25//1 21//1 22//1 26//1
f 18//3 17//3 29//3 31//3
f 29//3 17//3 20//3 19//3 18//3 31//3 32//3 30//3
f 22//6 21//6 17//6 18//6
f 24//5 23//5 19//5 20//5
f 21//4 24//4 20//4 17//4
f 23//2 22//2 18//2 19//2
usemtl BoardWhite
f 26//1 27//1 28//1 25//1
f 29//1 31//1 32//1 30//1
