# Blender 5.1.2
# www.blender.org
mtllib mast_antenna.mtl
o Cube
v -0.540954 0.800055 0.133909
v -0.540954 2.347921 0.133909
v -0.540954 0.800055 -0.133917
v -0.540954 2.347921 -0.133917
v -0.446101 0.800055 0.133909
v -0.446101 2.347921 0.133909
v -0.446101 0.800055 -0.133917
v -0.446101 2.347921 -0.133917
vn -1.0000 -0.0000 -0.0000
vn -0.0000 -0.0000 -1.0000
vn 1.0000 -0.0000 -0.0000
vn -0.0000 -0.0000 1.0000
vn -0.0000 -1.0000 -0.0000
vn -0.0000 1.0000 -0.0000
vt 0.375000 0.000000
vt 0.625000 0.000000
vt 0.625000 0.250000
vt 0.375000 0.250000
vt 0.625000 0.500000
vt 0.375000 0.500000
vt 0.625000 0.750000
vt 0.375000 0.750000
vt 0.625000 1.000000
vt 0.375000 1.000000
vt 0.125000 0.500000
vt 0.125000 0.750000
vt 0.875000 0.500000
vt 0.875000 0.750000
s 1
usemtl metal_white
f 1/1/1 2/2/1 4/3/1 3/4/1
f 3/4/2 4/3/2 8/5/2 7/6/2
f 7/6/3 8/5/3 6/7/3 5/8/3
f 5/8/4 6/7/4 2/9/4 1/10/4
f 3/11/5 7/6/5 5/8/5 1/12/5
f 8/5/6 4/13/6 2/14/6 6/7/6
o Cube.001
v -0.471270 2.159477 0.022179
v -0.471270 2.236012 0.022179
v -0.471270 2.159477 -0.022187
v -0.471270 2.236012 -0.022187
v -0.046951 2.159477 0.022179
v -0.046951 2.236012 0.022179
v -0.046951 2.159477 -0.022187
v -0.046951 2.236012 -0.022187
vn -1.0000 -0.0000 -0.0000
vn -0.0000 -0.0000 -1.0000
vn 1.0000 -0.0000 -0.0000
vn -0.0000 -0.0000 1.0000
vn -0.0000 -1.0000 -0.0000
vn -0.0000 1.0000 -0.0000
vt 0.375000 0.000000
vt 0.625000 0.000000
vt 0.625000 0.250000
vt 0.375000 0.250000
vt 0.625000 0.500000
vt 0.375000 0.500000
vt 0.625000 0.750000
vt 0.375000 0.750000
vt 0.625000 1.000000
vt 0.375000 1.000000
vt 0.125000 0.500000
vt 0.125000 0.750000
vt 0.875000 0.500000
vt 0.875000 0.750000
s 1
usemtl metal_grey
f 9/15/7 10/16/7 12/17/7 11/18/7
f 11/18/8 12/17/8 16/19/8 15/20/8
f 15/20/9 16/19/9 14/21/9 13/22/9
f 13/22/10 14/21/10 10/23/10 9/24/10
f 11/25/11 15/20/11 13/22/11 9/26/11
f 16/19/12 12/27/12 10/28/12 14/21/12
o Cube.002
v -0.471270 0.827372 0.022179
v -0.471270 0.903906 0.022179
v -0.471270 0.827372 -0.022187
v -0.471270 0.903906 -0.022187
v -0.046951 0.827372 0.022179
v -0.046951 0.903906 0.022179
v -0.046951 0.827372 -0.022187
v -0.046951 0.903906 -0.022187
vn -1.0000 -0.0000 -0.0000
vn -0.0000 -0.0000 -1.0000
vn 1.0000 -0.0000 -0.0000
vn -0.0000 -0.0000 1.0000
vn -0.0000 -1.0000 -0.0000
vn -0.0000 1.0000 -0.0000
vt 0.375000 0.000000
vt 0.625000 0.000000
vt 0.625000 0.250000
vt 0.375000 0.250000
vt 0.625000 0.500000
vt 0.375000 0.500000
vt 0.625000 0.750000
vt 0.375000 0.750000
vt 0.625000 1.000000
vt 0.375000 1.000000
vt 0.125000 0.500000
vt 0.125000 0.750000
vt 0.875000 0.500000
vt 0.875000 0.750000
s 1
usemtl metal_grey
f 17/29/13 18/30/13 20/31/13 19/32/13
f 19/32/14 20/31/14 24/33/14 23/34/14
f 23/34/15 24/33/15 22/35/15 21/36/15
f 21/36/16 22/35/16 18/37/16 17/38/16
f 19/39/17 23/34/17 21/36/17 17/40/17
f 24/33/18 20/41/18 18/42/18 22/35/18
o Cube.003
v 0.297443 0.800055 -0.502967
v 0.297443 2.347921 -0.502967
v 0.492697 0.800055 -0.319647
v 0.492697 2.347921 -0.319647
v 0.232518 0.800055 -0.433816
v 0.232518 2.347921 -0.433816
v 0.427773 0.800055 -0.250496
v 0.427773 2.347921 -0.250496
vn 0.6845 -0.0000 -0.7290
vn 0.7290 -0.0000 0.6845
vn -0.6845 -0.0000 0.7290
vn -0.7290 -0.0000 -0.6845
vn -0.0000 -1.0000 -0.0000
vn -0.0000 1.0000 -0.0000
vt 0.375000 0.000000
vt 0.625000 0.000000
vt 0.625000 0.250000
vt 0.375000 0.250000
vt 0.625000 0.500000
vt 0.375000 0.500000
vt 0.625000 0.750000
vt 0.375000 0.750000
vt 0.625000 1.000000
vt 0.375000 1.000000
vt 0.125000 0.500000
vt 0.125000 0.750000
vt 0.875000 0.500000
vt 0.875000 0.750000
s 1
usemtl metal_white
f 25/43/19 26/44/19 28/45/19 27/46/19
f 27/46/20 28/45/20 32/47/20 31/48/20
f 31/48/21 32/47/21 30/49/21 29/50/21
f 29/50/22 30/49/22 26/51/22 25/52/22
f 27/53/23 31/48/23 29/50/23 25/54/23
f 32/47/24 28/55/24 26/56/24 30/49/24
o Cube.004
v 0.331201 2.159477 -0.375689
v 0.331201 2.236012 -0.375689
v 0.363546 2.159477 -0.345322
v 0.363546 2.236012 -0.345322
v 0.040766 2.159477 -0.066345
v 0.040766 2.236012 -0.066345
v 0.073111 2.159477 -0.035978
v 0.073111 2.236012 -0.035978
vn 0.6845 -0.0000 -0.7290
vn 0.7290 -0.0000 0.6845
vn -0.6845 -0.0000 0.7290
vn -0.7290 -0.0000 -0.6845
vn -0.0000 -1.0000 -0.0000
vn -0.0000 1.0000 -0.0000
vt 0.375000 0.000000
vt 0.625000 0.000000
vt 0.625000 0.250000
vt 0.375000 0.250000
vt 0.625000 0.500000
vt 0.375000 0.500000
vt 0.625000 0.750000
vt 0.375000 0.750000
vt 0.625000 1.000000
vt 0.375000 1.000000
vt 0.125000 0.500000
vt 0.125000 0.750000
vt 0.875000 0.500000
vt 0.875000 0.750000
s 1
usemtl metal_grey
f 33/57/25 34/58/25 36/59/25 35/60/25
f 35/60/26 36/59/26 40/61/26 39/62/26
f 39/62/27 40/61/27 38/63/27 37/64/27
f 37/64/28 38/63/28 34/65/28 33/66/28
f 35/67/29 39/62/29 37/64/29 33/68/29
f 40/61/30 36/69/30 34/70/30 38/63/30
o Cube.005
v 0.331201 0.827372 -0.375689
v 0.331201 0.903906 -0.375689
v 0.363546 0.827372 -0.345322
v 0.363546 0.903906 -0.345322
v 0.040766 0.827372 -0.066345
v 0.040766 0.903906 -0.066345
v 0.073111 0.827372 -0.035978
v 0.073111 0.903906 -0.035978
vn 0.6845 -0.0000 -0.7290
vn 0.7290 -0.0000 0.6845
vn -0.6845 -0.0000 0.7290
vn -0.7290 -0.0000 -0.6845
vn -0.0000 -1.0000 -0.0000
vn -0.0000 1.0000 -0.0000
vt 0.375000 0.000000
vt 0.625000 0.000000
vt 0.625000 0.250000
vt 0.375000 0.250000
vt 0.625000 0.500000
vt 0.375000 0.500000
vt 0.625000 0.750000
vt 0.375000 0.750000
vt 0.625000 1.000000
vt 0.375000 1.000000
vt 0.125000 0.500000
vt 0.125000 0.750000
vt 0.875000 0.500000
vt 0.875000 0.750000
s 1
usemtl metal_grey
f 41/71/31 42/72/31 44/73/31 43/74/31
f 43/74/32 44/73/32 48/75/32 47/76/32
f 47/76/33 48/75/33 46/77/33 45/78/33
f 45/78/34 46/77/34 42/79/34 41/80/34
f 43/81/35 47/76/35 45/78/35 41/82/35
f 48/75/36 44/83/36 42/84/36 46/77/36
o Cube.006
v 0.469602 0.806921 0.355610
v 0.469602 2.354788 0.355610
v 0.267940 0.806921 0.531857
v 0.267940 2.354788 0.531857
v 0.407183 0.806921 0.284190
v 0.407183 2.354788 0.284190
v 0.205521 0.806921 0.460436
v 0.205521 2.354788 0.460436
vn 0.6581 -0.0000 0.7530
vn -0.7530 -0.0000 0.6581
vn -0.6581 -0.0000 -0.7530
vn 0.7530 -0.0000 -0.6581
vn -0.0000 -1.0000 -0.0000
vn -0.0000 1.0000 -0.0000
vt 0.375000 0.000000
vt 0.625000 0.000000
vt 0.625000 0.250000
vt 0.375000 0.250000
vt 0.625000 0.500000
vt 0.375000 0.500000
vt 0.625000 0.750000
vt 0.375000 0.750000
vt 0.625000 1.000000
vt 0.375000 1.000000
vt 0.125000 0.500000
vt 0.125000 0.750000
vt 0.875000 0.500000
vt 0.875000 0.750000
s 1
usemtl metal_white
f 49/85/37 50/86/37 52/87/37 51/88/37
f 51/88/38 52/87/38 56/89/38 55/90/38
f 55/90/39 56/89/39 54/91/39 53/92/39
f 53/92/40 54/91/40 50/93/40 49/94/40
f 51/95/41 55/90/41 53/92/41 49/96/41
f 56/89/42 52/97/42 50/98/42 54/91/42
o Cube.007
v 0.339618 2.166346 0.376667
v 0.339618 2.242880 0.376667
v 0.306212 2.166346 0.405862
v 0.306212 2.242880 0.405862
v 0.060389 2.166346 0.057171
v 0.060389 2.242880 0.057171
v 0.026983 2.166346 0.086367
v 0.026983 2.242880 0.086367
vn 0.6581 -0.0000 0.7530
vn -0.7530 -0.0000 0.6581
vn -0.6581 -0.0000 -0.7530
vn 0.7530 -0.0000 -0.6581
vn -0.0000 -1.0000 0.0001
vn -0.0000 1.0000 -0.0000
vt 0.375000 0.000000
vt 0.625000 0.000000
vt 0.625000 0.250000
vt 0.375000 0.250000
vt 0.625000 0.500000
vt 0.375000 0.500000
vt 0.625000 0.750000
vt 0.375000 0.750000
vt 0.625000 1.000000
vt 0.375000 1.000000
vt 0.125000 0.500000
vt 0.125000 0.750000
vt 0.875000 0.500000
vt 0.875000 0.750000
s 1
usemtl metal_grey
f 57/99/43 58/100/43 60/101/43 59/102/43
f 59/102/44 60/101/44 64/103/44 63/104/44
f 63/104/45 64/103/45 62/105/45 61/106/45
f 61/106/46 62/105/46 58/107/46 57/108/46
f 59/109/47 63/104/47 61/106/47 57/110/47
f 64/103/48 60/111/48 58/112/48 62/105/48
o Cube.008
v 0.339618 0.834238 0.376667
v 0.339618 0.910772 0.376667
v 0.306212 0.834238 0.405862
v 0.306212 0.910772 0.405862
v 0.060389 0.834238 0.057171
v 0.060389 0.910772 0.057171
v 0.026983 0.834238 0.086367
v 0.026983 0.910772 0.086367
vn 0.6581 -0.0000 0.7530
vn -0.7530 -0.0000 0.6581
vn -0.6581 -0.0000 -0.7530
vn 0.7530 -0.0000 -0.6581
vn -0.0000 -1.0000 -0.0000
vn -0.0000 1.0000 -0.0000
vt 0.375000 0.000000
vt 0.625000 0.000000
vt 0.625000 0.250000
vt 0.375000 0.250000
vt 0.625000 0.500000
vt 0.375000 0.500000
vt 0.625000 0.750000
vt 0.375000 0.750000
vt 0.625000 1.000000
vt 0.375000 1.000000
vt 0.125000 0.500000
vt 0.125000 0.750000
vt 0.875000 0.500000
vt 0.875000 0.750000
s 1
usemtl metal_grey
f 65/113/49 66/114/49 68/115/49 67/116/49
f 67/116/50 68/115/50 72/117/50 71/118/50
f 71/118/51 72/117/51 70/119/51 69/120/51
f 69/120/52 70/119/52 66/121/52 65/122/52
f 67/123/53 71/118/53 69/120/53 65/124/53
f 72/117/54 68/125/54 66/126/54 70/119/54
o Cylinder
v 0.000000 3.000017 -0.057225
v 0.028611 3.000017 -0.049559
v 0.049555 3.000017 -0.028615
v 0.057221 3.000017 -0.000004
v 0.049555 3.000017 0.028607
v 0.028611 3.000017 0.049551
v 0.000000 3.000017 0.057217
v -0.028611 3.000017 0.049551
v -0.049555 3.000017 0.028607
v -0.057221 3.000017 -0.000004
v -0.049555 3.000017 -0.028615
v -0.028611 3.000017 -0.049559
v 0.000000 0.000002 -0.092373
v 0.046184 0.000002 -0.079998
v 0.079994 0.000002 -0.046188
v 0.092369 0.000002 -0.000004
v 0.079994 0.000002 0.046180
v 0.046184 0.000002 0.079990
v 0.000000 0.000002 0.092365
v -0.046184 0.000002 0.079990
v -0.079994 0.000002 0.046180
v -0.092369 0.000002 -0.000004
v -0.079994 0.000002 -0.046188
v -0.046184 0.000002 -0.079998
v 0.046184 3.000017 -0.079998
v 0.000000 3.000017 -0.092373
v 0.079994 3.000017 -0.046188
v 0.092369 3.000017 -0.000004
v 0.079994 3.000017 0.046180
v 0.046184 3.000017 0.079990
v 0.000000 3.000017 0.092365
v -0.046184 3.000017 0.079990
v -0.079994 3.000017 0.046180
v -0.092369 3.000017 -0.000004
v -0.079994 3.000017 -0.046188
v -0.046184 3.000017 -0.079998
v 0.004706 4.750002 -0.008131
v 0.000013 4.750002 -0.009388
v 0.008140 4.750002 -0.004696
v 0.009398 4.750002 -0.000004
v 0.008140 4.750002 0.004688
v 0.004706 4.750002 0.008123
v 0.000013 4.750002 0.009380
v -0.004679 4.750002 0.008123
v -0.008114 4.750002 0.004688
v -0.009371 4.750002 -0.000004
v -0.008114 4.750002 -0.004696
v -0.004679 4.750002 -0.008131
vn 0.2588 -0.0000 -0.9659
vn 0.7071 -0.0000 -0.7071
vn 0.9659 -0.0000 -0.2588
vn 0.9659 -0.0000 0.2588
vn 0.7071 -0.0000 0.7071
vn 0.2588 -0.0000 0.9659
vn -0.2588 -0.0000 0.9659
vn -0.7071 -0.0000 0.7071
vn -0.9659 -0.0000 0.2588
vn -0.9659 -0.0000 -0.2588
vn -0.2587 0.0264 0.9656
vn -0.7071 -0.0000 -0.7071
vn -0.2588 -0.0000 -0.9659
vn -0.0000 -1.0000 -0.0000
vn -0.0000 1.0000 -0.0000
vn 0.9656 0.0264 0.2587
vn -0.7069 0.0264 -0.7069
vn 0.2587 0.0264 -0.9656
vn -0.7069 0.0264 0.7069
vn 0.7069 0.0264 0.7069
vn -0.2587 0.0264 -0.9656
vn 0.7069 0.0264 -0.7069
vn -0.9656 0.0264 0.2587
vn 0.2587 0.0264 0.9656
vn 0.9656 0.0264 -0.2587
vn -0.9656 0.0264 -0.2587
vt 1.000000 0.902790
vt 1.000000 1.000000
vt 0.916667 1.000000
vt 0.916667 0.902790
vt 0.833333 1.000000
vt 0.833333 0.902790
vt 0.750000 1.000000
vt 0.750000 0.902790
vt 0.666667 1.000000
vt 0.666667 0.902790
vt 0.583333 1.000000
vt 0.583333 0.902790
vt 0.500000 1.000000
vt 0.500000 0.902790
vt 0.416667 1.000000
vt 0.416667 0.902790
vt 0.333333 1.000000
vt 0.333333 0.902790
vt 0.250000 1.000000
vt 0.250000 0.902790
vt 0.166667 1.000000
vt 0.166667 0.902790
vt 0.175662 0.121242
vt 0.250000 0.101323
vt 0.083333 1.000000
vt 0.083333 0.902790
vt 0.000000 1.000000
vt 0.000000 0.902790
vt 0.250000 0.398677
vt 0.324338 0.378758
vt 0.370000 0.457846
vt 0.250000 0.490000
vt 0.378758 0.324338
vt 0.457846 0.370000
vt 0.398677 0.250000
vt 0.490000 0.250000
vt 0.378758 0.175662
vt 0.457846 0.130000
vt 0.324338 0.121242
vt 0.370000 0.042154
vt 0.250000 0.010000
vt 0.130000 0.042154
vt 0.121242 0.175662
vt 0.042154 0.130000
vt 0.101323 0.250000
vt 0.010000 0.250000
vt 0.121242 0.324338
vt 0.042154 0.370000
vt 0.175662 0.378758
vt 0.130000 0.457846
s 1
usemtl metal_grey
f 85/127/55 98/128/55 97/129/55 86/130/55
f 86/130/56 97/129/56 99/131/56 87/132/56
f 87/132/57 99/131/57 100/133/57 88/134/57
f 88/134/58 100/133/58 101/135/58 89/136/58
f 89/136/59 101/135/59 102/137/59 90/138/59
f 90/138/60 102/137/60 103/139/60 91/140/60
f 91/140/61 103/139/61 104/141/61 92/142/61
f 92/142/62 104/141/62 105/143/62 93/144/62
f 93/144/63 105/143/63 106/145/63 94/146/63
f 94/146/64 106/145/64 107/147/64 95/148/64
f 80/149/65 79/150/65 115/150/65 116/149/65
f 95/148/66 107/147/66 108/151/66 96/152/66
f 96/152/67 108/151/67 98/153/67 85/154/67
f 85/154/68 86/130/68 87/132/68 88/134/68 89/136/68 90/138/68 91/140/68 92/142/68 93/144/68 94/146/68 95/148/68 96/152/68
f 73/155/69 74/156/69 97/157/69 98/158/69
f 74/156/69 75/159/69 99/160/69 97/157/69
f 75/159/69 76/161/69 100/162/69 99/160/69
f 76/161/69 77/163/69 101/164/69 100/162/69
f 77/163/69 78/165/69 102/166/69 101/164/69
f 78/165/69 79/150/69 103/167/69 102/166/69
f 79/150/69 80/149/69 104/168/69 103/167/69
f 80/149/69 81/169/69 105/170/69 104/168/69
f 81/169/69 82/171/69 106/172/69 105/170/69
f 82/171/69 83/173/69 107/174/69 106/172/69
f 83/173/69 84/175/69 108/176/69 107/174/69
f 84/175/69 73/155/69 98/158/69 108/176/69
f 109/156/69 110/155/69 120/175/69 119/173/69 118/171/69 117/169/69 116/149/69 115/150/69 114/165/69 113/163/69 112/161/69 111/159/69
f 77/163/70 76/161/70 112/161/70 113/163/70
f 84/175/71 83/173/71 119/173/71 120/175/71
f 74/156/72 73/155/72 110/155/72 109/156/72
f 81/169/73 80/149/73 116/149/73 117/169/73
f 78/165/74 77/163/74 113/163/74 114/165/74
f 73/155/75 84/175/75 120/175/75 110/155/75
f 75/159/76 74/156/76 109/156/76 111/159/76
f 82/171/77 81/169/77 117/169/77 118/171/77
f 79/150/78 78/165/78 114/165/78 115/150/78
f 76/161/79 75/159/79 111/159/79 112/161/79
f 83/173/80 82/171/80 118/171/80 119/173/80
