# Blender 5.1.2
# www.blender.org
mtllib memorial_stone.mtl
o memorial_stone
v -0.700000 0.000000 -0.400000
v -0.200000 0.000000 -0.550000
v 0.300000 0.000000 -0.500000
v 0.700000 0.000000 -0.400000
v 0.900000 0.000000 0.000000
v 0.700000 -0.000000 0.500000
v -0.000000 -0.000000 0.700000
v -0.600000 -0.000000 0.500000
v -0.900000 0.000000 -0.000000
v -0.750000 0.245398 -0.450000
v 0.750000 0.300000 -0.450000
v 0.950000 0.300000 -0.100000
v 0.800000 0.400000 0.400000
v -0.000000 0.350000 0.800000
v -0.800000 0.400000 0.500000
v -1.000000 0.300000 -0.100000
v -0.600000 0.800000 -0.400000
v 0.600000 0.800000 -0.400000
v 0.700000 0.800000 0.200000
v -0.000000 0.850000 0.500000
v -0.650000 0.800000 0.200000
v -0.200000 1.200000 -0.100000
v 0.300000 1.100000 -0.200000
v -0.000000 1.000000 0.300000
v -0.400000 0.341543 -0.459528
v 0.400000 0.341543 -0.459528
v 0.400000 0.768292 -0.416167
v -0.400000 0.768292 -0.416167
v -0.400000 0.339149 -0.435673
v -0.400000 0.765898 -0.392311
v 0.400000 0.339149 -0.435673
v 0.400000 0.765898 -0.392311
vn 0.2785 0.2459 0.9284
vn -0.0168 -0.2680 0.9633
vn -0.2377 0.1981 0.9509
vn 0.0019 -0.0944 0.9955
vn -0.8530 0.2559 0.4549
vn -0.9355 0.1039 -0.3378
vn -0.8574 -0.4377 0.2708
vn -0.9191 -0.3342 -0.2089
vn -0.3724 0.0496 -0.9268
vn 0.3354 0.2118 -0.9179
vn -0.3705 -0.4822 -0.7939
vn 0.2780 -0.4942 -0.8237
vn 0.8555 0.3071 -0.4168
vn 0.8139 0.3511 0.4628
vn 0.6272 -0.6040 -0.4917
vn 0.8246 -0.4867 0.2884
vn 0.0135 -0.5825 0.8127
vn -0.6648 -0.7387 0.1108
vn -0.3043 -0.8483 -0.4334
vn 0.3206 -0.7578 -0.5683
vn 0.5493 -0.7997 -0.2423
vn -0.2483 -0.9104 -0.3310
vn -0.0000 1.0000 -0.0000
vn -0.0000 0.1011 -0.9949
vn -1.0000 -0.0000 -0.0000
vn -0.0000 0.9950 0.0998
vn -0.0000 -0.9950 -0.0998
vn 1.0000 -0.0000 -0.0000
s 0
usemtl stone
f 1//1 2//1 10//1
f 2//2 3//2 11//2 10//2
f 3//3 4//3 11//3
f 10//4 11//4 18//4 17//4
f 4//5 5//5 12//5 11//5
f 5//6 6//6 13//6 12//6
f 11//7 12//7 19//7 18//7
f 12//8 13//8 19//8
f 6//9 7//9 14//9 13//9
f 7//10 8//10 15//10 14//10
f 13//11 14//11 20//11 19//11
f 14//12 15//12 20//12
f 8//13 9//13 16//13 15//13
f 9//14 1//14 10//14 16//14
f 15//15 16//15 21//15 20//15
f 16//16 10//16 17//16 21//16
f 17//17 18//17 23//17 22//17
f 18//18 19//18 23//18
f 19//19 20//19 24//19 23//19
f 20//20 21//20 24//20
f 21//21 17//21 22//21 24//21
f 22//22 23//22 24//22
f 9//23 8//23 7//23 6//23 5//23 4//23 3//23 2//23 1//23
usemtl plaque
f 25//24 28//24 27//24 26//24
f 28//25 25//25 29//25 30//25
f 27//26 28//26 30//26 32//26
f 25//27 26//27 31//27 29//27
f 26//28 27//28 32//28 31//28
