# UrbanEye3D Memorial Bust
mtllib memorial_bust.mtl
o memorial_bust

# Vertices
# Pedestal Base (0.0 to 0.2)
v -0.3 0.0 -0.3
v  0.3 0.0 -0.3
v  0.3 0.0  0.3
v -0.3 0.0  0.3
v -0.3 0.2 -0.3
v  0.3 0.2 -0.3
v  0.3 0.2  0.3
v -0.3 0.2  0.3

# Pedestal Shaft (0.2 to 1.2)
v -0.2 0.2 -0.2
v  0.2 0.2 -0.2
v  0.2 0.2  0.2
v -0.2 0.2  0.2
v -0.18 1.2 -0.18
v  0.18 1.2 -0.18
v  0.18 1.2  0.18
v -0.18 1.2  0.18

# Pedestal Cap (1.2 to 1.3)
v -0.25 1.2 -0.25
v  0.25 1.2 -0.25
v  0.25 1.2  0.25
v -0.25 1.2  0.25
v -0.25 1.3 -0.25
v  0.25 1.3 -0.25
v  0.25 1.3  0.25
v -0.25 1.3  0.25

# Bust Plinth (1.3 to 1.35)
v -0.15 1.3 -0.15
v  0.15 1.3 -0.15
v  0.15 1.3  0.15
v -0.15 1.3  0.15
v -0.15 1.35 -0.15
v  0.15 1.35 -0.15
v  0.15 1.35  0.15
v -0.15 1.35  0.15

# Shoulders (1.35 to 1.55)
v -0.3 1.55 -0.1
v  0.3 1.55 -0.1
v  0.3 1.55  0.1
v -0.3 1.55  0.1

# Head (1.55 to 1.9)
v -0.08 1.55 -0.08
v  0.08 1.55 -0.08
v  0.08 1.55  0.08
v -0.08 1.55  0.08
v -0.1  1.9 -0.1
v  0.1  1.9 -0.1
v  0.1  1.9  0.1
v -0.1  1.9  0.1

usemtl stone
# Base
f 1 4 3 2
f 5 6 7 8
f 1 2 6 5
f 2 3 7 6
f 3 4 8 7
f 4 1 5 8
# Shaft
f 9 12 11 10
f 13 14 15 16
f 9 10 14 13
f 10 11 15 14
f 11 12 16 15
f 12 9 13 16
# Cap
f 17 20 19 18
f 21 22 23 24
f 17 18 22 21
f 18 19 23 22
f 19 20 24 23
f 20 17 21 24

usemtl bronze
# Plinth
f 25 28 27 26
f 29 30 31 32
f 25 26 30 29
f 26 27 31 30
f 27 28 32 31
f 28 25 29 32
# Shoulders
f 29 30 34 33
f 30 31 35 34
f 31 32 36 35
f 32 29 33 36
f 33 36 35 34
# Head
f 37 40 39 38
f 41 42 43 44
f 37 38 42 41
f 38 39 43 42
f 39 40 44 43
f 40 37 41 44
