# Blender 5.1.2
# www.blender.org
mtllib memorial_obelisk.mtl
o memorial_obelisk
v -0.650000 -0.000000 -0.650000
v 0.650000 -0.000000 -0.650000
v 0.650000 0.000000 0.650000
v -0.650000 0.000000 0.650000
v -0.625000 0.150000 -0.625000
v 0.625000 0.150000 -0.625000
v 0.625000 0.150000 0.625000
v -0.625000 0.150000 0.625000
v -0.500000 0.150000 -0.500000
v 0.500000 0.150000 -0.500000
v 0.500000 0.150000 0.500000
v -0.500000 0.150000 0.500000
v -0.500000 0.850000 -0.500000
v 0.500000 0.850000 -0.500000
v 0.500000 0.850000 0.500000
v -0.500000 0.850000 0.500000
v -0.600000 0.850000 -0.600000
v 0.600000 0.850000 -0.600000
v 0.600000 0.850000 0.600000
v -0.600000 0.850000 0.600000
v -0.550000 1.000000 -0.550000
v 0.550000 1.000000 -0.550000
v 0.550000 1.000000 0.550000
v -0.550000 1.000000 0.550000
v -0.425000 1.000000 -0.425000
v 0.425000 1.000000 -0.425000
v 0.425000 1.000000 0.425000
v -0.425000 1.000000 0.425000
v -0.375000 1.100000 -0.375000
v 0.375000 1.100000 -0.375000
v 0.375000 1.100000 0.375000
v -0.375000 1.100000 0.375000
v -0.325000 1.100000 -0.325000
v 0.325000 1.100000 -0.325000
v 0.325000 1.100000 0.325000
v -0.325000 1.100000 0.325000
v -0.225000 3.700000 -0.225000
v 0.225000 3.700000 -0.225000
v 0.225000 3.700000 0.225000
v -0.225000 3.700000 0.225000
v -0.225000 3.700000 -0.225000
v 0.225000 3.700000 -0.225000
v 0.225000 3.700000 0.225000
v -0.225000 3.700000 0.225000
v 0.000000 4.000000 -0.000000
vn -0.0000 0.1644 -0.9864
vn 0.9864 0.1644 -0.0000
vn -0.0000 0.1644 0.9864
vn -0.9864 0.1644 -0.0000
vn -0.0000 1.0000 -0.0000
vn -0.0000 -0.0000 -1.0000
vn 1.0000 -0.0000 -0.0000
vn -0.0000 -0.0000 1.0000
vn -1.0000 -0.0000 -0.0000
vn -0.0000 0.3162 -0.9487
vn 0.9487 0.3162 -0.0000
vn -0.0000 0.3162 0.9487
vn -0.9487 0.3162 -0.0000
vn -0.0000 0.4472 -0.8944
vn 0.8944 0.4472 -0.0000
vn -0.0000 0.4472 0.8944
vn -0.8944 0.4472 -0.0000
vn -0.0000 0.0384 -0.9993
vn 0.9993 0.0384 -0.0000
vn -0.0000 0.0384 0.9993
vn -0.9993 0.0384 -0.0000
vn -0.0000 0.6000 -0.8000
vn 0.8000 0.6000 -0.0000
vn -0.0000 0.6000 0.8000
vn -0.8000 0.6000 -0.0000
vn -0.0000 -1.0000 -0.0000
s 0
usemtl stone
f 1//1 5//1 6//1 2//1
f 2//2 6//2 7//2 3//2
f 3//3 7//3 8//3 4//3
f 4//4 8//4 5//4 1//4
f 23//5 22//5 26//5 27//5
f 9//6 13//6 14//6 10//6
f 10//7 14//7 15//7 11//7
f 11//8 15//8 16//8 12//8
f 12//9 16//9 13//9 9//9
f 17//10 21//10 22//10 18//10
f 18//11 22//11 23//11 19//11
f 19//12 23//12 24//12 20//12
f 20//13 24//13 21//13 17//13
f 25//14 29//14 30//14 26//14
f 26//15 30//15 31//15 27//15
f 27//16 31//16 32//16 28//16
f 28//17 32//17 29//17 25//17
f 33//18 37//18 38//18 34//18
f 34//19 38//19 39//19 35//19
f 35//20 39//20 40//20 36//20
f 36//21 40//21 37//21 33//21
f 41//22 45//22 42//22
f 42//23 45//23 43//23
f 43//24 45//24 44//24
f 44//25 45//25 41//25
f 24//5 23//5 27//5 28//5
f 24//5 28//5 25//5 21//5
f 32//5 36//5 33//5 29//5
f 32//5 31//5 35//5 36//5
f 31//5 30//5 34//5 35//5
f 30//5 29//5 33//5 34//5
f 22//5 21//5 25//5 26//5
f 6//5 5//5 9//5 10//5
f 7//5 6//5 10//5 11//5
f 8//5 7//5 11//5 12//5
f 8//5 12//5 9//5 5//5
f 16//26 20//26 17//26 13//26
f 16//26 15//26 19//26 20//26
f 15//26 14//26 18//26 19//26
f 14//26 13//26 17//26 18//26
