mtllib picnic_table.mtl
usemtl wood

# --- Box 1: Table Top ---
v -0.9 0.7 -0.4
v  0.9 0.7 -0.4
v  0.9 0.8 -0.4
v -0.9 0.8 -0.4
v -0.9 0.7  0.4
v  0.9 0.7  0.4
v  0.9 0.8  0.4
v -0.9 0.8  0.4

# --- Box 2: Bench 1 ---
v -0.9 0.4 -0.85
v  0.9 0.4 -0.85
v  0.9 0.5 -0.85
v -0.9 0.5 -0.85
v -0.9 0.4 -0.55
v  0.9 0.4 -0.55
v  0.9 0.5 -0.55
v -0.9 0.5 -0.55

# --- Box 3: Bench 2 ---
v -0.9 0.4  0.55
v  0.9 0.4  0.55
v  0.9 0.5  0.55
v -0.9 0.5  0.55
v -0.9 0.4  0.85
v  0.9 0.4  0.85
v  0.9 0.5  0.85
v -0.9 0.5  0.85

# --- Box 4: Leg Left ---
v -0.75 0.0 -0.3
v -0.65 0.0 -0.3
v -0.65 0.7 -0.3
v -0.75 0.7 -0.3
v -0.75 0.0  0.3
v -0.65 0.0  0.3
v -0.65 0.7  0.3
v -0.75 0.7  0.3

# --- Box 5: Leg Right ---
v  0.65 0.0 -0.3
v  0.75 0.0 -0.3
v  0.75 0.7 -0.3
v  0.65 0.7 -0.3
v  0.65 0.0  0.3
v  0.75 0.0  0.3
v  0.75 0.7  0.3
v  0.65 0.7  0.3

# --- Box 6: Beam Left ---
v -0.75 0.3 -0.75
v -0.65 0.3 -0.75
v -0.65 0.4 -0.75
v -0.75 0.4 -0.75
v -0.75 0.3  0.75
v -0.65 0.3  0.75
v -0.65 0.4  0.75
v -0.75 0.4  0.75

# --- Box 7: Beam Right ---
v  0.65 0.3 -0.75
v  0.75 0.3 -0.75
v  0.75 0.4 -0.75
v  0.65 0.4 -0.75
v  0.65 0.3  0.75
v  0.75 0.3  0.75
v  0.75 0.4  0.75
v  0.65 0.4  0.75

# --- Faces ---
# Box 1
f 1 2 3 4
f 8 7 6 5
f 1 5 6 2
f 2 6 7 3
f 3 7 8 4
f 4 8 5 1
# Box 2
f 9 10 11 12
f 16 15 14 13
f 9 13 14 10
f 10 14 15 11
f 11 15 16 12
f 12 16 13 9
# Box 3
f 17 18 19 20
f 24 23 22 21
f 17 21 22 18
f 18 22 23 19
f 19 23 24 20
f 20 24 21 17
# Box 4
f 25 26 27 28
f 32 31 30 29
f 25 29 30 26
f 26 30 31 27
f 27 31 32 28
f 28 32 29 25
# Box 5
f 33 34 35 36
f 40 39 38 37
f 33 37 38 34
f 34 38 39 35
f 35 39 40 36
f 36 40 37 33
# Box 6
f 41 42 43 44
f 48 47 46 45
f 41 45 46 42
f 42 46 47 43
f 43 47 48 44
f 44 48 45 41
# Box 7
f 49 50 51 52
f 56 55 54 53
f 49 53 54 50
f 50 54 55 51
f 51 55 56 52
f 52 56 53 49
