# Pro-Lattice Power Tower - Procedurally Correct Geometry
v 2.500 0.000 2.500
v 1.200 9.000 1.200
v 1.052 8.979 1.203
v 2.352 -0.021 2.503
v 2.500 0.000 2.500
v 2.503 -0.021 2.352
v 1.203 8.979 1.052
v 1.200 9.000 1.200
v 1.200 9.000 1.200
v 1.000 13.000 1.000
v 0.850 12.993 1.000
v 1.050 8.993 1.200
v 1.200 9.000 1.200
v 1.200 8.993 1.050
v 1.000 12.993 0.850
v 1.000 13.000 1.000
v 1.000 13.000 1.000
v 1.000 15.000 1.000
v 0.850 15.000 1.000
v 0.850 13.000 1.000
v 1.000 13.000 1.000
v 1.000 13.000 0.850
v 1.000 15.000 0.850
v 1.000 15.000 1.000
v 1.000 15.000 1.000
v 0.800 19.000 0.800
v 0.650 18.993 0.800
v 0.850 14.993 1.000
v 1.000 15.000 1.000
v 1.000 14.993 0.850
v 0.800 18.993 0.650
v 0.800 19.000 0.800
v 0.800 19.000 0.800
v 0.800 21.000 0.800
v 0.650 21.000 0.800
v 0.650 19.000 0.800
v 0.800 19.000 0.800
v 0.800 19.000 0.650
v 0.800 21.000 0.650
v 0.800 21.000 0.800
v 0.800 21.000 0.800
v 0.075 25.000 0.075
v -0.073 24.974 0.080
v 0.652 20.974 0.805
v 0.800 21.000 0.800
v 0.805 20.974 0.652
v 0.080 24.974 -0.073
v 0.075 25.000 0.075
v 2.500 0.000 -2.500
v 1.200 9.000 -1.200
v 1.203 8.979 -1.052
v 2.503 -0.021 -2.352
v 2.500 0.000 -2.500
v 2.352 -0.021 -2.503
v 1.052 8.979 -1.203
v 1.200 9.000 -1.200
v 1.200 9.000 -1.200
v 1.000 13.000 -1.000
v 1.000 12.993 -0.850
v 1.200 8.993 -1.050
v 1.200 9.000 -1.200
v 1.050 8.993 -1.200
v 0.850 12.993 -1.000
v 1.000 13.000 -1.000
v 1.000 13.000 -1.000
v 1.000 15.000 -1.000
v 1.000 15.000 -0.850
v 1.000 13.000 -0.850
v 1.000 13.000 -1.000
v 0.850 13.000 -1.000
v 0.850 15.000 -1.000
v 1.000 15.000 -1.000
v 1.000 15.000 -1.000
v 0.800 19.000 -0.800
v 0.800 18.993 -0.650
v 1.000 14.993 -0.850
v 1.000 15.000 -1.000
v 0.850 14.993 -1.000
v 0.650 18.993 -0.800
v 0.800 19.000 -0.800
v 0.800 19.000 -0.800
v 0.800 21.000 -0.800
v 0.800 21.000 -0.650
v 0.800 19.000 -0.650
v 0.800 19.000 -0.800
v 0.650 19.000 -0.800
v 0.650 21.000 -0.800
v 0.800 21.000 -0.800
v 0.800 21.000 -0.800
v 0.075 25.000 -0.075
v 0.080 24.974 0.073
v 0.805 20.974 -0.652
v 0.800 21.000 -0.800
v 0.652 20.974 -0.805
v -0.073 24.974 -0.080
v 0.075 25.000 -0.075
v -2.500 0.000 -2.500
v -1.200 9.000 -1.200
v -1.052 8.979 -1.203
v -2.352 -0.021 -2.503
v -2.500 0.000 -2.500
v -2.503 -0.021 -2.352
v -1.203 8.979 -1.052
v -1.200 9.000 -1.200
v -1.200 9.000 -1.200
v -1.000 13.000 -1.000
v -0.850 12.993 -1.000
v -1.050 8.993 -1.200
v -1.200 9.000 -1.200
v -1.200 8.993 -1.050
v -1.000 12.993 -0.850
v -1.000 13.000 -1.000
v -1.000 13.000 -1.000
v -1.000 15.000 -1.000
v -0.850 15.000 -1.000
v -0.850 13.000 -1.000
v -1.000 13.000 -1.000
v -1.000 13.000 -0.850
v -1.000 15.000 -0.850
v -1.000 15.000 -1.000
v -1.000 15.000 -1.000
v -0.800 19.000 -0.800
v -0.650 18.993 -0.800
v -0.850 14.993 -1.000
v -1.000 15.000 -1.000
v -1.000 14.993 -0.850
v -0.800 18.993 -0.650
v -0.800 19.000 -0.800
v -0.800 19.000 -0.800
v -0.800 21.000 -0.800
v -0.650 21.000 -0.800
v -0.650 19.000 -0.800
v -0.800 19.000 -0.800
v -0.800 19.000 -0.650
v -0.800 21.000 -0.650
v -0.800 21.000 -0.800
v -0.800 21.000 -0.800
v -0.075 25.000 -0.075
v 0.073 24.974 -0.080
v -0.652 20.974 -0.805
v -0.800 21.000 -0.800
v -0.805 20.974 -0.652
v -0.080 24.974 0.073
v -0.075 25.000 -0.075
v -2.500 0.000 2.500
v -1.200 9.000 1.200
v -1.203 8.979 1.052
v -2.503 -0.021 2.352
v -2.500 0.000 2.500
v -2.352 -0.021 2.503
v -1.052 8.979 1.203
v -1.200 9.000 1.200
v -1.200 9.000 1.200
v -1.000 13.000 1.000
v -1.000 12.993 0.850
v -1.200 8.993 1.050
v -1.200 9.000 1.200
v -1.050 8.993 1.200
v -0.850 12.993 1.000
v -1.000 13.000 1.000
v -1.000 13.000 1.000
v -1.000 15.000 1.000
v -1.000 15.000 0.850
v -1.000 13.000 0.850
v -1.000 13.000 1.000
v -0.850 13.000 1.000
v -0.850 15.000 1.000
v -1.000 15.000 1.000
v -1.000 15.000 1.000
v -0.800 19.000 0.800
v -0.800 18.993 0.650
v -1.000 14.993 0.850
v -1.000 15.000 1.000
v -0.850 14.993 1.000
v -0.650 18.993 0.800
v -0.800 19.000 0.800
v -0.800 19.000 0.800
v -0.800 21.000 0.800
v -0.800 21.000 0.650
v -0.800 19.000 0.650
v -0.800 19.000 0.800
v -0.650 19.000 0.800
v -0.650 21.000 0.800
v -0.800 21.000 0.800
v -0.800 21.000 0.800
v -0.075 25.000 0.075
v -0.080 24.974 -0.073
v -0.805 20.974 0.652
v -0.800 21.000 0.800
v -0.652 20.974 0.805
v 0.073 24.974 0.080
v -0.075 25.000 0.075
v 2.201 2.000 2.061
v 2.201 2.000 -2.061
v 2.179 2.150 -2.039
v 2.179 2.150 2.039
v 2.201 2.000 2.061
v 1.233 8.704 -1.093
v 1.190 9.000 -1.050
v 2.158 2.296 2.018
v 1.233 8.704 1.093
v 2.201 2.000 -2.061
v 2.158 2.296 -2.018
v 1.190 9.000 1.050
v 1.190 9.000 1.050
v 1.190 9.000 -1.050
v 1.182 9.150 -1.042
v 1.182 9.150 1.042
v 1.190 9.000 1.050
v 1.006 12.677 -0.866
v 0.990 13.000 -0.850
v 1.174 9.323 1.034
v 1.006 12.677 0.866
v 1.190 9.000 -1.050
v 1.174 9.323 -1.034
v 0.990 13.000 0.850
v 0.990 13.000 0.850
v 0.990 13.000 -0.850
v 0.990 13.150 -0.850
v 0.990 13.150 0.850
v 0.990 13.000 0.850
v 0.990 14.768 -0.850
v 0.990 15.000 -0.850
v 0.990 13.232 0.850
v 0.990 14.768 0.850
v 0.990 13.000 -0.850
v 0.990 13.232 -0.850
v 0.990 15.000 0.850
v 0.990 15.000 0.850
v 0.990 15.000 -0.850
v 0.982 15.150 -0.842
v 0.982 15.150 0.842
v 0.990 15.000 0.850
v 0.809 18.617 -0.669
v 0.790 19.000 -0.650
v 0.971 15.383 0.831
v 0.809 18.617 0.669
v 0.990 15.000 -0.850
v 0.971 15.383 -0.831
v 0.790 19.000 0.650
v 0.790 19.000 0.650
v 0.790 19.000 -0.650
v 0.790 19.150 -0.650
v 0.790 19.150 0.650
v 0.790 19.000 0.650
v 0.790 20.725 -0.650
v 0.790 21.000 -0.650
v 0.790 19.275 0.650
v 0.790 20.725 0.650
v 0.790 19.000 -0.650
v 0.790 19.275 -0.650
v 0.790 21.000 0.650
v 0.790 21.000 0.650
v 0.790 21.000 -0.650
v 0.760 21.150 -0.620
v 0.760 21.150 0.620
v 2.061 2.000 -2.201
v -2.061 2.000 -2.201
v -2.039 2.150 -2.179
v 2.039 2.150 -2.179
v 2.061 2.000 -2.201
v -1.093 8.704 -1.233
v -1.050 9.000 -1.190
v 2.018 2.296 -2.158
v 1.093 8.704 -1.233
v -2.061 2.000 -2.201
v -2.018 2.296 -2.158
v 1.050 9.000 -1.190
v 1.050 9.000 -1.190
v -1.050 9.000 -1.190
v -1.042 9.150 -1.182
v 1.042 9.150 -1.182
v 1.050 9.000 -1.190
v -0.866 12.677 -1.006
v -0.850 13.000 -0.990
v 1.034 9.323 -1.174
v 0.866 12.677 -1.006
v -1.050 9.000 -1.190
v -1.034 9.323 -1.174
v 0.850 13.000 -0.990
v 0.850 13.000 -0.990
v -0.850 13.000 -0.990
v -0.850 13.150 -0.990
v 0.850 13.150 -0.990
v 0.850 13.000 -0.990
v -0.850 14.768 -0.990
v -0.850 15.000 -0.990
v 0.850 13.232 -0.990
v 0.850 14.768 -0.990
v -0.850 13.000 -0.990
v -0.850 13.232 -0.990
v 0.850 15.000 -0.990
v 0.850 15.000 -0.990
v -0.850 15.000 -0.990
v -0.842 15.150 -0.982
v 0.842 15.150 -0.982
v 0.850 15.000 -0.990
v -0.669 18.617 -0.809
v -0.650 19.000 -0.790
v 0.831 15.383 -0.971
v 0.669 18.617 -0.809
v -0.850 15.000 -0.990
v -0.831 15.383 -0.971
v 0.650 19.000 -0.790
v 0.650 19.000 -0.790
v -0.650 19.000 -0.790
v -0.650 19.150 -0.790
v 0.650 19.150 -0.790
v 0.650 19.000 -0.790
v -0.650 20.725 -0.790
v -0.650 21.000 -0.790
v 0.650 19.275 -0.790
v 0.650 20.725 -0.790
v -0.650 19.000 -0.790
v -0.650 19.275 -0.790
v 0.650 21.000 -0.790
v 0.650 21.000 -0.790
v -0.650 21.000 -0.790
v -0.620 21.150 -0.760
v 0.620 21.150 -0.760
v -2.201 2.000 -2.061
v -2.201 2.000 2.061
v -2.179 2.150 2.039
v -2.179 2.150 -2.039
v -2.201 2.000 -2.061
v -1.233 8.704 1.093
v -1.190 9.000 1.050
v -2.158 2.296 -2.018
v -1.233 8.704 -1.093
v -2.201 2.000 2.061
v -2.158 2.296 2.018
v -1.190 9.000 -1.050
v -1.190 9.000 -1.050
v -1.190 9.000 1.050
v -1.182 9.150 1.042
v -1.182 9.150 -1.042
v -1.190 9.000 -1.050
v -1.006 12.677 0.866
v -0.990 13.000 0.850
v -1.174 9.323 -1.034
v -1.006 12.677 -0.866
v -1.190 9.000 1.050
v -1.174 9.323 1.034
v -0.990 13.000 -0.850
v -0.990 13.000 -0.850
v -0.990 13.000 0.850
v -0.990 13.150 0.850
v -0.990 13.150 -0.850
v -0.990 13.000 -0.850
v -0.990 14.768 0.850
v -0.990 15.000 0.850
v -0.990 13.232 -0.850
v -0.990 14.768 -0.850
v -0.990 13.000 0.850
v -0.990 13.232 0.850
v -0.990 15.000 -0.850
v -0.990 15.000 -0.850
v -0.990 15.000 0.850
v -0.982 15.150 0.842
v -0.982 15.150 -0.842
v -0.990 15.000 -0.850
v -0.809 18.617 0.669
v -0.790 19.000 0.650
v -0.971 15.383 -0.831
v -0.809 18.617 -0.669
v -0.990 15.000 0.850
v -0.971 15.383 0.831
v -0.790 19.000 -0.650
v -0.790 19.000 -0.650
v -0.790 19.000 0.650
v -0.790 19.150 0.650
v -0.790 19.150 -0.650
v -0.790 19.000 -0.650
v -0.790 20.725 0.650
v -0.790 21.000 0.650
v -0.790 19.275 -0.650
v -0.790 20.725 -0.650
v -0.790 19.000 0.650
v -0.790 19.275 0.650
v -0.790 21.000 -0.650
v -0.790 21.000 -0.650
v -0.790 21.000 0.650
v -0.760 21.150 0.620
v -0.760 21.150 -0.620
v -2.061 2.000 2.201
v 2.061 2.000 2.201
v 2.039 2.150 2.179
v -2.039 2.150 2.179
v -2.061 2.000 2.201
v 1.093 8.704 1.233
v 1.050 9.000 1.190
v -2.018 2.296 2.158
v -1.093 8.704 1.233
v 2.061 2.000 2.201
v 2.018 2.296 2.158
v -1.050 9.000 1.190
v -1.050 9.000 1.190
v 1.050 9.000 1.190
v 1.042 9.150 1.182
v -1.042 9.150 1.182
v -1.050 9.000 1.190
v 0.866 12.677 1.006
v 0.850 13.000 0.990
v -1.034 9.323 1.174
v -0.866 12.677 1.006
v 1.050 9.000 1.190
v 1.034 9.323 1.174
v -0.850 13.000 0.990
v -0.850 13.000 0.990
v 0.850 13.000 0.990
v 0.850 13.150 0.990
v -0.850 13.150 0.990
v -0.850 13.000 0.990
v 0.850 14.768 0.990
v 0.850 15.000 0.990
v -0.850 13.232 0.990
v -0.850 14.768 0.990
v 0.850 13.000 0.990
v 0.850 13.232 0.990
v -0.850 15.000 0.990
v -0.850 15.000 0.990
v 0.850 15.000 0.990
v 0.842 15.150 0.982
v -0.842 15.150 0.982
v -0.850 15.000 0.990
v 0.669 18.617 0.809
v 0.650 19.000 0.790
v -0.831 15.383 0.971
v -0.669 18.617 0.809
v 0.850 15.000 0.990
v 0.831 15.383 0.971
v -0.650 19.000 0.790
v -0.650 19.000 0.790
v 0.650 19.000 0.790
v 0.650 19.150 0.790
v -0.650 19.150 0.790
v -0.650 19.000 0.790
v 0.650 20.725 0.790
v 0.650 21.000 0.790
v -0.650 19.275 0.790
v -0.650 20.725 0.790
v 0.650 19.000 0.790
v 0.650 19.275 0.790
v -0.650 21.000 0.790
v -0.650 21.000 0.790
v 0.650 21.000 0.790
v 0.620 21.150 0.760
v -0.620 21.150 0.760
v 1.000 15.000 1.000
v 6.000 14.100 0.100
v 5.974 14.105 -0.048
v 0.974 15.005 0.852
v 1.000 15.000 1.000
v 0.974 14.852 1.005
v 5.974 13.952 0.105
v 6.000 14.100 0.100
v 1.000 15.000 -1.000
v 6.000 14.100 -0.100
v 5.974 14.105 0.048
v 0.974 15.005 -0.852
v 1.000 15.000 -1.000
v 0.974 14.852 -1.005
v 5.974 13.952 -0.105
v 6.000 14.100 -0.100
v 1.000 13.000 1.000
v 6.000 13.900 0.100
v 5.974 13.895 -0.048
v 0.974 12.995 0.852
v 1.000 13.000 1.000
v 0.974 13.148 1.005
v 5.974 14.048 0.105
v 6.000 13.900 0.100
v 1.000 13.000 -1.000
v 6.000 13.900 -0.100
v 5.974 13.895 0.048
v 0.974 12.995 -0.852
v 1.000 13.000 -1.000
v 0.974 13.148 -1.005
v 5.974 14.048 -0.105
v 6.000 13.900 -0.100
v -1.000 15.000 1.000
v -6.000 14.100 0.100
v -5.974 14.105 -0.048
v -0.974 15.005 0.852
v -1.000 15.000 1.000
v -0.974 14.852 1.005
v -5.974 13.952 0.105
v -6.000 14.100 0.100
v -1.000 15.000 -1.000
v -6.000 14.100 -0.100
v -5.974 14.105 0.048
v -0.974 15.005 -0.852
v -1.000 15.000 -1.000
v -0.974 14.852 -1.005
v -5.974 13.952 -0.105
v -6.000 14.100 -0.100
v -1.000 13.000 1.000
v -6.000 13.900 0.100
v -5.974 13.895 -0.048
v -0.974 12.995 0.852
v -1.000 13.000 1.000
v -0.974 13.148 1.005
v -5.974 14.048 0.105
v -6.000 13.900 0.100
v -1.000 13.000 -1.000
v -6.000 13.900 -0.100
v -5.974 13.895 0.048
v -0.974 12.995 -0.852
v -1.000 13.000 -1.000
v -0.974 13.148 -1.005
v -5.974 14.048 -0.105
v -6.000 13.900 -0.100
v 0.800 21.000 0.800
v 4.500 20.100 0.100
v 4.474 20.106 -0.048
v 0.774 21.006 0.652
v 0.800 21.000 0.800
v 0.766 20.854 0.806
v 4.466 19.954 0.106
v 4.500 20.100 0.100
v 0.800 21.000 -0.800
v 4.500 20.100 -0.100
v 4.474 20.106 0.048
v 0.774 21.006 -0.652
v 0.800 21.000 -0.800
v 0.766 20.854 -0.806
v 4.466 19.954 -0.106
v 4.500 20.100 -0.100
v 0.800 19.000 0.800
v 4.500 19.900 0.100
v 4.474 19.894 -0.048
v 0.774 18.994 0.652
v 0.800 19.000 0.800
v 0.766 19.146 0.806
v 4.466 20.046 0.106
v 4.500 19.900 0.100
v 0.800 19.000 -0.800
v 4.500 19.900 -0.100
v 4.474 19.894 0.048
v 0.774 18.994 -0.652
v 0.800 19.000 -0.800
v 0.766 19.146 -0.806
v 4.466 20.046 -0.106
v 4.500 19.900 -0.100
v -0.800 21.000 0.800
v -4.500 20.100 0.100
v -4.474 20.106 -0.048
v -0.774 21.006 0.652
v -0.800 21.000 0.800
v -0.766 20.854 0.806
v -4.466 19.954 0.106
v -4.500 20.100 0.100
v -0.800 21.000 -0.800
v -4.500 20.100 -0.100
v -4.474 20.106 0.048
v -0.774 21.006 -0.652
v -0.800 21.000 -0.800
v -0.766 20.854 -0.806
v -4.466 19.954 -0.106
v -4.500 20.100 -0.100
v -0.800 19.000 0.800
v -4.500 19.900 0.100
v -4.474 19.894 -0.048
v -0.774 18.994 0.652
v -0.800 19.000 0.800
v -0.766 19.146 0.806
v -4.466 20.046 0.106
v -4.500 19.900 0.100
v -0.800 19.000 -0.800
v -4.500 19.900 -0.100
v -4.474 19.894 0.048
v -0.774 18.994 -0.652
v -0.800 19.000 -0.800
v -0.766 19.146 -0.806
v -4.466 20.046 -0.106
v -4.500 19.900 -0.100
f 1 2 3 4
f 5 6 7 8
f 9 10 11 12
f 13 14 15 16
f 17 18 19 20
f 21 22 23 24
f 25 26 27 28
f 29 30 31 32
f 33 34 35 36
f 37 38 39 40
f 41 42 43 44
f 45 46 47 48
f 49 50 51 52
f 53 54 55 56
f 57 58 59 60
f 61 62 63 64
f 65 66 67 68
f 69 70 71 72
f 73 74 75 76
f 77 78 79 80
f 81 82 83 84
f 85 86 87 88
f 89 90 91 92
f 93 94 95 96
f 97 98 99 100
f 101 102 103 104
f 105 106 107 108
f 109 110 111 112
f 113 114 115 116
f 117 118 119 120
f 121 122 123 124
f 125 126 127 128
f 129 130 131 132
f 133 134 135 136
f 137 138 139 140
f 141 142 143 144
f 145 146 147 148
f 149 150 151 152
f 153 154 155 156
f 157 158 159 160
f 161 162 163 164
f 165 166 167 168
f 169 170 171 172
f 173 174 175 176
f 177 178 179 180
f 181 182 183 184
f 185 186 187 188
f 189 190 191 192
f 193 194 195 196
f 197 198 199 200
f 201 202 203 204
f 205 206 207 208
f 209 210 211 212
f 213 214 215 216
f 217 218 219 220
f 221 222 223 224
f 225 226 227 228
f 229 230 231 232
f 233 234 235 236
f 237 238 239 240
f 241 242 243 244
f 245 246 247 248
f 249 250 251 252
f 253 254 255 256
f 257 258 259 260
f 261 262 263 264
f 265 266 267 268
f 269 270 271 272
f 273 274 275 276
f 277 278 279 280
f 281 282 283 284
f 285 286 287 288
f 289 290 291 292
f 293 294 295 296
f 297 298 299 300
f 301 302 303 304
f 305 306 307 308
f 309 310 311 312
f 313 314 315 316
f 317 318 319 320
f 321 322 323 324
f 325 326 327 328
f 329 330 331 332
f 333 334 335 336
f 337 338 339 340
f 341 342 343 344
f 345 346 347 348
f 349 350 351 352
f 353 354 355 356
f 357 358 359 360
f 361 362 363 364
f 365 366 367 368
f 369 370 371 372
f 373 374 375 376
f 377 378 379 380
f 381 382 383 384
f 385 386 387 388
f 389 390 391 392
f 393 394 395 396
f 397 398 399 400
f 401 402 403 404
f 405 406 407 408
f 409 410 411 412
f 413 414 415 416
f 417 418 419 420
f 421 422 423 424
f 425 426 427 428
f 429 430 431 432
f 433 434 435 436
f 437 438 439 440
f 441 442 443 444
f 445 446 447 448
f 449 450 451 452
f 453 454 455 456
f 457 460 459 458
f 461 464 463 462
f 465 468 467 466
f 469 472 471 470
f 473 474 475 476
f 477 478 479 480
f 481 484 483 482
f 485 488 487 486
f 489 490 491 492
f 493 494 495 496
f 497 498 499 500
f 501 502 503 504
f 505 508 507 506
f 509 512 511 510
f 513 514 515 516
f 517 518 519 520
f 521 524 523 522
f 525 528 527 526
f 529 532 531 530
f 533 536 535 534
f 537 538 539 540
f 541 542 543 544
f 545 548 547 546
f 549 552 551 550
f 553 554 555 556
f 557 558 559 560
f 561 562 563 564
f 565 566 567 568
f 569 572 571 570
f 573 576 575 574
