# Blender 5.1.2
# www.blender.org
mtllib power_tower_solid.mtl
o Cylinder
v 0.000000 0.000223 -0.500000
v 0.000000 21.584356 -0.141927
v 0.353553 0.000223 -0.353553
v 0.100358 21.584356 -0.100358
v 0.500000 0.000223 0.000000
v 0.141927 21.584356 0.000000
v 0.353553 0.000223 0.353553
v 0.100358 21.584356 0.100358
v 0.000000 0.000223 0.500000
v 0.000000 21.584356 0.141927
v -0.353553 0.000223 0.353553
v -0.100358 21.584356 0.100358
v -0.500000 0.000223 0.000000
v -0.141927 21.584356 0.000000
v -0.353553 0.000223 -0.353553
v -0.100358 21.584356 -0.100358
v 0.353553 21.584356 -0.353553
v 0.000000 21.584356 -0.500000
v 0.500000 21.584356 0.000000
v 0.353553 21.584356 0.353553
v 0.000000 21.584356 0.500000
v -0.353553 21.584356 0.353553
v -0.500000 21.584356 0.000000
v -0.353553 21.584356 -0.353553
v 0.100358 25.002796 -0.100358
v 0.000000 25.002796 -0.141927
v 0.141927 25.002796 0.000000
v 0.100358 25.002796 0.100358
v 0.000000 25.002796 0.141927
v -0.100358 25.002796 0.100358
v -0.141927 25.002796 0.000000
v -0.100358 25.002796 -0.100358
vn 0.3827 -0.0000 -0.9239
vn 0.9239 -0.0000 -0.3827
vn 0.9239 -0.0000 0.3827
vn 0.3827 -0.0000 0.9239
vn -0.3827 -0.0000 0.9239
vn -0.9239 -0.0000 0.3827
vn -0.9239 -0.0000 -0.3827
vn -0.3827 -0.0000 -0.9239
vn -0.0000 -1.0000 -0.0000
vn -0.0000 1.0000 -0.0000
s 0
f 1//1 18//1 17//1 3//1
f 3//2 17//2 19//2 5//2
f 5//3 19//3 20//3 7//3
f 7//4 20//4 21//4 9//4
f 9//5 21//5 22//5 11//5
f 11//6 22//6 23//6 13//6
f 16//7 14//7 31//7 32//7
f 13//7 23//7 24//7 15//7
f 15//8 24//8 18//8 1//8
f 1//9 3//9 5//9 7//9 9//9 11//9 13//9 15//9
f 2//10 4//10 17//10 18//10
f 4//10 6//10 19//10 17//10
f 6//10 8//10 20//10 19//10
f 8//10 10//10 21//10 20//10
f 10//10 12//10 22//10 21//10
f 12//10 14//10 23//10 22//10
f 14//10 16//10 24//10 23//10
f 16//10 2//10 18//10 24//10
f 25//10 26//10 32//10 31//10 30//10 29//10 28//10 27//10
f 12//5 10//5 29//5 30//5
f 8//3 6//3 27//3 28//3
f 4//1 2//1 26//1 25//1
f 2//8 16//8 32//8 26//8
f 14//6 12//6 30//6 31//6
f 10//4 8//4 28//4 29//4
f 6//2 4//2 25//2 27//2
o Cube
v -5.880158 13.973280 0.099034
v -5.880158 14.175697 0.099034
v -5.880158 13.973280 -0.099034
v -5.880158 14.175697 -0.099034
v 5.880158 13.973280 0.099034
v 5.880158 14.175697 0.099034
v 5.880158 13.973280 -0.099034
v 5.880158 14.175697 -0.099034
vn -1.0000 -0.0000 -0.0000
vn -0.0000 -0.0000 -1.0000
vn 1.0000 -0.0000 -0.0000
vn -0.0000 -0.0000 1.0000
vn -0.0000 -1.0000 -0.0000
vn -0.0000 1.0000 -0.0000
vt 0.375000 0.000000
vt 0.625000 0.000000
vt 0.625000 0.250000
vt 0.375000 0.250000
vt 0.625000 0.500000
vt 0.375000 0.500000
vt 0.625000 0.750000
vt 0.375000 0.750000
vt 0.625000 1.000000
vt 0.375000 1.000000
vt 0.125000 0.500000
vt 0.125000 0.750000
vt 0.875000 0.500000
vt 0.875000 0.750000
s 0
f 33/1/11 34/2/11 36/3/11 35/4/11
f 35/4/12 36/3/12 40/5/12 39/6/12
f 39/6/13 40/5/13 38/7/13 37/8/13
f 37/8/14 38/7/14 34/9/14 33/10/14
f 35/11/15 39/6/15 37/8/15 33/12/15
f 40/5/16 36/13/16 34/14/16 38/7/16
o Cube.001
v -4.487792 19.929914 0.132816
v -4.487792 20.170534 0.132816
v -4.487792 19.929914 -0.132816
v -4.487792 20.170534 -0.132816
v 4.487792 19.929914 0.132816
v 4.487792 20.170534 0.132816
v 4.487792 19.929914 -0.132816
v 4.487792 20.170534 -0.132816
vn -1.0000 -0.0000 -0.0000
vn -0.0000 -0.0000 -1.0000
vn 1.0000 -0.0000 -0.0000
vn -0.0000 -0.0000 1.0000
vn -0.0000 -1.0000 -0.0000
vn -0.0000 1.0000 -0.0000
vt 0.375000 0.000000
vt 0.625000 0.000000
vt 0.625000 0.250000
vt 0.375000 0.250000
vt 0.625000 0.500000
vt 0.375000 0.500000
vt 0.625000 0.750000
vt 0.375000 0.750000
vt 0.625000 1.000000
vt 0.375000 1.000000
vt 0.125000 0.500000
vt 0.125000 0.750000
vt 0.875000 0.500000
vt 0.875000 0.750000
s 0
f 41/15/17 42/16/17 44/17/17 43/18/17
f 43/18/18 44/17/18 48/19/18 47/20/18
f 47/20/19 48/19/19 46/21/19 45/22/19
f 45/22/20 46/21/20 42/23/20 41/24/20
f 43/25/21 47/20/21 45/22/21 41/26/21
f 48/19/22 44/27/22 42/28/22 46/21/22
o Cube.002
v -2.225122 14.161870 0.099034
v -2.618904 14.161870 0.099034
v -2.225122 14.161870 -0.099034
v -2.618904 14.161870 -0.099034
v -0.428333 15.503825 0.099034
v -0.428333 15.773849 0.099034
v -0.428333 15.503825 -0.099034
v -0.428333 15.773849 -0.099034
vn -0.0000 -1.0000 -0.0000
vn -0.0000 -0.0000 -1.0000
vn 1.0000 -0.0000 -0.0000
vn -0.0000 -0.0000 1.0000
vn 0.5984 -0.8012 -0.0000
vn -0.5927 0.8054 -0.0000
vt 0.375000 0.000000
vt 0.625000 0.000000
vt 0.625000 0.250000
vt 0.375000 0.250000
vt 0.625000 0.500000
vt 0.375000 0.500000
vt 0.625000 0.750000
vt 0.375000 0.750000
vt 0.625000 1.000000
vt 0.375000 1.000000
vt 0.125000 0.500000
vt 0.125000 0.750000
vt 0.875000 0.500000
vt 0.875000 0.750000
s 0
f 49/29/23 50/30/23 52/31/23 51/32/23
f 51/32/24 52/31/24 56/33/24 55/34/24
f 55/34/25 56/33/25 54/35/25 53/36/25
f 53/36/26 54/35/26 50/37/26 49/38/26
f 51/39/27 55/34/27 53/36/27 49/40/27
f 56/33/28 52/41/28 50/42/28 54/35/28
o Cube.003
v 2.205156 14.178235 0.099034
v 2.598938 14.178235 0.099034
v 2.205156 14.178235 -0.099034
v 2.598938 14.178235 -0.099034
v 0.408367 15.520190 0.099034
v 0.408367 15.790214 0.099034
v 0.408367 15.520190 -0.099034
v 0.408367 15.790214 -0.099034
vn -0.0000 -1.0000 -0.0000
vn -0.0000 -0.0000 -1.0000
vn -1.0000 -0.0000 -0.0000
vn -0.0000 -0.0000 1.0000
vn -0.5984 -0.8012 -0.0000
vn 0.5927 0.8054 -0.0000
vt 0.375000 0.000000
vt 0.625000 0.000000
vt 0.625000 0.250000
vt 0.375000 0.250000
vt 0.625000 0.500000
vt 0.375000 0.500000
vt 0.625000 0.750000
vt 0.375000 0.750000
vt 0.625000 1.000000
vt 0.375000 1.000000
vt 0.125000 0.500000
vt 0.125000 0.750000
vt 0.875000 0.500000
vt 0.875000 0.750000
s 0
f 57/43/29 59/46/29 60/45/29 58/44/29
f 59/46/30 63/48/30 64/47/30 60/45/30
f 63/48/31 61/50/31 62/49/31 64/47/31
f 61/50/32 57/52/32 58/51/32 62/49/32
f 59/53/33 57/54/33 61/50/33 63/48/33
f 64/47/34 62/49/34 58/56/34 60/55/34
