# Blender 5.1.2
# www.blender.org
mtllib railway_buffer_stop.mtl
o railway_buffer_stop
v -0.800000 0.000000 -0.848214
v -0.700000 0.000000 -0.848214
v -0.700000 -0.000000 -1.048214
v -0.800000 -0.000000 -1.048214
v -0.800000 1.104298 -0.848214
v -0.700000 1.104298 -0.848214
v -0.700000 1.104298 -1.048214
v -0.800000 1.104298 -1.048214
v 0.700000 0.000000 -0.848214
v 0.800000 0.000000 -0.848214
v 0.800000 -0.000000 -1.048214
v 0.700000 -0.000000 -1.048214
v 0.700000 1.104298 -0.848214
v 0.800000 1.104298 -0.848214
v 0.800000 1.104298 -1.048214
v 0.700000 1.104298 -1.048214
v -0.800000 0.000000 0.151786
v -0.700000 0.000000 0.151786
v -0.700000 0.000000 -0.075911
v -0.800000 0.000000 -0.075911
v 0.700000 0.000000 0.151786
v 0.800000 0.000000 0.151786
v 0.800000 0.000000 -0.075911
v 0.700000 0.000000 -0.075911
v -1.000000 0.778791 -1.046242
v 1.000000 0.778791 -1.046242
v 1.000000 0.778791 -1.221262
v -1.000000 0.778791 -1.221262
v -1.000000 1.100000 -1.046242
v 1.000000 1.100000 -1.046242
v 1.000000 1.100000 -1.221262
v -1.000000 1.100000 -1.221262
v -0.700000 0.856573 -0.848214
v -0.800000 0.856573 -0.848214
v 0.800000 0.856573 -0.848214
v 0.700000 0.856573 -0.848214
vn -0.0000 -0.0000 1.0000
vn 1.0000 -0.0000 -0.0000
vn -0.0000 -0.0000 -1.0000
vn -1.0000 -0.0000 -0.0000
vn -0.0000 1.0000 -0.0000
vn -0.0000 0.6712 0.7412
vn -0.0000 -0.6696 -0.7427
s 0
usemtl Metal
f 1//1 2//1 6//1 5//1
f 2//2 3//2 7//2 6//2
f 3//3 4//3 8//3 7//3
f 4//4 1//4 5//4 8//4
f 5//5 6//5 7//5 8//5
f 9//1 10//1 14//1 13//1
f 10//2 11//2 15//2 14//2
f 11//3 12//3 16//3 15//3
f 12//4 9//4 13//4 16//4
f 13//5 14//5 15//5 16//5
f 17//6 18//6 6//6 5//6
f 18//2 19//2 33//2 6//2
f 19//7 20//7 34//7 33//7
f 20//4 17//4 5//4 34//4
f 23//7 24//7 36//7 35//7
f 22//2 23//2 35//2 14//2
f 21//6 22//6 14//6 13//6
f 24//4 21//4 13//4 36//4
usemtl Wood
f 25//1 26//1 30//1 29//1
f 26//2 27//2 31//2 30//2
f 27//3 28//3 32//3 31//3
f 28//4 25//4 29//4 32//4
f 25//5 26//5 27//5 28//5
f 29//5 30//5 31//5 32//5
