# Blender 5.1.2
# www.blender.org
mtllib recycling_container.mtl
o recycling_container
v -0.400000 0.100000 -0.400000
v 0.400000 0.100000 -0.400000
v 0.400000 0.100000 0.400000
v -0.400000 0.100000 0.400000
v -0.450000 0.700000 -0.450000
v 0.450000 0.700000 -0.450000
v 0.450000 0.700000 0.450000
v -0.450000 0.700000 0.450000
v -0.450000 1.200000 -0.450000
v 0.450000 1.200000 -0.450000
v 0.450000 1.200000 0.450000
v -0.450000 1.200000 0.450000
v -0.500000 1.200000 -0.500000
v 0.500000 1.200000 -0.500000
v 0.500000 1.200000 0.500000
v -0.500000 1.200000 0.500000
v -0.400000 1.350000 -0.400000
v 0.400000 1.350000 -0.400000
v 0.400000 1.350000 0.400000
v -0.400000 1.350000 0.400000
v -0.350000 -0.000000 -0.350000
v -0.250000 -0.000000 -0.350000
v -0.250000 -0.000000 -0.250000
v -0.350000 -0.000000 -0.250000
v -0.350000 0.100000 -0.350000
v -0.250000 0.100000 -0.350000
v -0.250000 0.100000 -0.250000
v -0.350000 0.100000 -0.250000
v 0.250000 -0.000000 -0.350000
v 0.350000 -0.000000 -0.350000
v 0.350000 -0.000000 -0.250000
v 0.250000 -0.000000 -0.250000
v 0.250000 0.100000 -0.350000
v 0.350000 0.100000 -0.350000
v 0.350000 0.100000 -0.250000
v 0.250000 0.100000 -0.250000
v 0.250000 0.000000 0.250000
v 0.350000 0.000000 0.250000
v 0.350000 0.000000 0.350000
v 0.250000 0.000000 0.350000
v 0.250000 0.100000 0.250000
v 0.350000 0.100000 0.250000
v 0.350000 0.100000 0.350000
v 0.250000 0.100000 0.350000
v -0.350000 0.000000 0.250000
v -0.250000 0.000000 0.250000
v -0.250000 0.000000 0.350000
v -0.350000 0.000000 0.350000
v -0.350000 0.100000 0.250000
v -0.250000 0.100000 0.250000
v -0.250000 0.100000 0.350000
v -0.350000 0.100000 0.350000
v -0.100000 1.350000 -0.000000
v 0.100000 1.350000 -0.000000
v 0.100000 1.420000 -0.000000
v -0.100000 1.420000 -0.000000
v -0.100000 1.350000 -0.022302
v -0.100000 1.420000 -0.022302
v 0.100000 1.350000 -0.022302
v 0.100000 1.420000 -0.022302
vn -0.0000 1.0000 -0.0000
vn -0.0000 0.0830 0.9965
vn -0.9965 0.0830 -0.0000
vn -0.0000 0.0830 -0.9965
vn 0.9965 0.0830 -0.0000
vn -0.0000 -0.0000 1.0000
vn -1.0000 -0.0000 -0.0000
vn -0.0000 -0.0000 -1.0000
vn 1.0000 -0.0000 -0.0000
vn -0.0000 -0.5547 0.8321
vn -0.8321 -0.5547 -0.0000
vn -0.0000 -0.5547 -0.8321
vn 0.8321 -0.5547 -0.0000
vn -0.0000 -1.0000 -0.0000
s 0
usemtl ContainerBody
f 1//1 4//1 3//1 2//1
f 1//2 2//2 6//2 5//2
f 2//3 3//3 7//3 6//3
f 3//4 4//4 8//4 7//4
f 4//5 1//5 5//5 8//5
f 5//6 6//6 10//6 9//6
f 6//7 7//7 11//7 10//7
f 7//8 8//8 12//8 11//8
f 8//9 5//9 9//9 12//9
usemtl ContainerLid
f 9//1 10//1 14//1 13//1
f 10//1 11//1 15//1 14//1
f 11//1 12//1 16//1 15//1
f 12//1 9//1 13//1 16//1
f 13//10 14//10 18//10 17//10
f 14//11 15//11 19//11 18//11
f 15//12 16//12 20//12 19//12
f 16//13 13//13 17//13 20//13
f 17//1 20//1 19//1 18//1
usemtl ContainerBlack
f 25//8 26//8 22//8 21//8
f 26//9 27//9 23//9 22//9
f 27//6 28//6 24//6 23//6
f 28//7 25//7 21//7 24//7
f 33//8 34//8 30//8 29//8
f 34//9 35//9 31//9 30//9
f 35//6 36//6 32//6 31//6
f 36//7 33//7 29//7 32//7
f 41//8 42//8 38//8 37//8
f 42//9 43//9 39//9 38//9
f 43//6 44//6 40//6 39//6
f 44//7 41//7 37//7 40//7
f 49//8 50//8 46//8 45//8
f 50//9 51//9 47//9 46//9
f 51//6 52//6 48//6 47//6
f 52//7 49//7 45//7 48//7
usemtl Metal
f 53//8 56//8 55//8 54//8
f 57//6 59//6 60//6 58//6
f 54//7 55//7 60//7 59//7
f 56//9 53//9 57//9 58//9
f 55//14 56//14 58//14 60//14
f 53//1 54//1 59//1 57//1
