# Blender 5.1.2
# www.blender.org
mtllib sculpture_abstract_spiral.mtl
o sculpture_abstract_spiral
v -0.500000 -0.000000 -0.500000
v 0.500000 -0.000000 -0.500000
v 0.500000 0.150000 -0.500000
v -0.500000 0.150000 -0.500000
v -0.500000 0.000000 0.500000
v 0.500000 0.000000 0.500000
v 0.500000 0.150000 0.500000
v -0.500000 0.150000 0.500000
v -0.305500 0.308500 -0.292900
v 0.186900 0.308500 -0.379700
v 0.230300 0.741500 -0.133500
v -0.262100 0.741500 -0.046700
v -0.230300 0.058500 0.133500
v 0.262100 0.058500 0.046700
v 0.305500 0.491500 0.292900
v -0.186900 0.491500 0.379700
v -0.184388 0.789116 -0.237113
v 0.164416 0.792448 -0.323492
v 0.196439 1.120946 -0.181514
v -0.152298 1.117713 -0.095134
v -0.104039 0.643614 0.081514
v 0.244698 0.646846 -0.004866
v 0.276788 0.975443 0.137113
v -0.072016 0.972112 0.223492
v 0.076301 1.185231 -0.259960
v 0.324508 1.105956 -0.195663
v 0.364930 1.337553 -0.066134
v 0.116723 1.416828 -0.130431
v -0.017428 1.075178 -0.033855
v 0.230780 0.995904 0.030442
v 0.271203 1.227431 0.159948
v 0.022996 1.306705 0.095651
v -0.037198 1.480637 -0.056745
v 0.133346 1.363262 -0.105004
v 0.176209 1.492645 -0.268248
v 0.005570 1.610024 -0.219965
v 0.082233 1.601884 0.070725
v 0.252857 1.484463 0.022389
v 0.295666 1.613886 -0.140872
v 0.125096 1.731267 -0.092518
v 0.162731 1.786203 -0.185293
v 0.220398 1.874851 -0.065564
v 0.077823 1.945105 -0.048927
v 0.020218 1.856431 -0.168683
v 0.119294 1.673316 -0.080905
v 0.176939 1.761986 0.038945
v 0.034424 1.832264 0.055502
v -0.023280 1.743570 -0.064268
s 0
usemtl black_matte.001
f 1 4 3 2
f 5 6 7 8
f 1 5 8 4
f 2 3 7 6
f 1 2 6 5
f 4 8 7 3
usemtl light_wood.001
f 9 12 11 10
f 13 14 15 16
f 9 13 16 12
f 10 11 15 14
f 9 10 14 13
f 12 16 15 11
f 17 20 19 18
f 21 22 23 24
f 17 21 24 20
f 18 19 23 22
f 17 18 22 21
f 20 24 23 19
f 25 28 27 26
f 29 30 31 32
f 25 29 32 28
f 26 27 31 30
f 25 26 30 29
f 28 32 31 27
f 33 36 35 34
f 37 38 39 40
f 33 37 40 36
f 34 35 39 38
f 33 34 38 37
f 36 40 39 35
f 41 44 43 42
f 45 46 47 48
f 41 45 48 44
f 42 43 47 46
f 41 42 46 45
f 44 48 47 43
