# Blender 5.0.1
# www.blender.org
mtllib street_lamp.mtl
o pCube2
v 0.213959 0.012916 0.242134
v 2.637317 9.615975 -0.135318
v -0.269403 -0.014480 0.246696
v 0.304267 0.004103 -0.208158
v -0.091619 6.783628 0.140408
v 0.169349 10.022491 0.055605
v -0.128026 10.086065 -0.148658
v -0.109096 10.576450 0.047538
v 2.597902 9.858728 0.045620
v -0.477430 8.917568 0.025883
v -1.789467 9.823314 0.034421
v -1.271127 9.641003 -0.025285
v -0.248083 8.318266 -0.041554
v -1.646105 9.731590 -0.025649
v -0.127972 7.379652 0.038436
v -2.515209 9.473790 -0.018307
v -2.664025 9.472897 -0.155143
v -2.851933 9.215119 0.531377
v -2.370562 9.217218 0.491220
v -2.855387 9.498325 0.026537
v -2.610079 9.586570 -0.017480
v 2.522549 9.477493 0.028186
v 2.224047 9.099681 -0.401178
v 3.067531 9.098498 0.457809
v 2.124851 9.181590 0.062004
v 3.120798 9.215766 0.334300
v 2.934096 9.206288 -0.516180
v 2.624215 9.565159 0.086376
v 2.797596 9.531025 -0.050563
v -0.181226 11.049558 0.035214
v -0.907124 9.814517 0.002603
v -0.605428 9.283842 -0.001988
v -0.835867 10.030681 0.016774
v -0.157203 9.254466 -0.020680
v 0.628169 9.255176 -0.018920
v 0.867043 10.031553 -0.019453
v 0.157475 9.283750 -0.010987
v 2.558252 9.096754 -0.598783
v 2.068508 9.101711 -0.168850
v 3.175220 9.209896 0.364470
v 2.374137 9.212681 -0.539255
v 2.111068 9.209487 -0.257506
v 2.225288 9.201362 0.389608
v 2.710043 9.217228 0.570278
v 2.607633 9.214904 -0.560864
v 2.090747 9.206173 0.069700
v 3.025154 9.411402 0.123737
v 2.870678 9.392662 0.350282
v 3.052452 9.396016 -0.129725
v 2.667638 9.499601 0.180199
v 2.490473 9.501389 -0.119287
v 2.827762 9.676956 -0.128270
v 2.869479 9.676806 0.063566
v 2.637495 9.501289 -0.180162
v 2.725723 9.176460 -0.563009
v 2.603781 9.402806 0.343690
v 2.496102 9.638904 -0.041824
v 2.698566 9.638169 -0.182132
v 2.847910 9.638041 0.027912
v 2.625712 9.637538 0.182969
v 2.752354 9.317955 -0.065559
v 2.715332 9.471735 -0.149249
v 2.536525 9.529625 0.001567
v 2.730427 9.578653 0.049956
v 0.029260 10.802003 0.181376
v 0.159201 10.796860 0.064402
v -0.078008 10.742440 -0.069756
v -0.123961 10.762939 0.041232
v -0.075141 11.011308 0.195023
v -0.009533 11.147605 0.050557
v -0.839831 9.499888 -0.000152
v -0.477774 9.202107 -0.018640
v 0.647981 9.267138 0.021301
v 0.861223 9.499981 0.026248
v 0.835740 10.032507 0.007812
v 0.872533 10.030361 0.010528
v -0.101581 0.097092 0.311664
v 0.091813 0.097362 -0.307826
v -0.405567 0.015928 0.091425
v 0.430816 0.008262 -0.050335
v 0.132912 0.384580 -0.298517
v 0.358839 0.434131 0.008627
v -0.485116 -0.028327 -0.069587
v 0.265200 0.094894 0.249460
v -0.264538 0.094891 -0.242641
v -0.271410 0.418536 0.227664
v -0.244994 3.416165 0.065344
v 0.114762 6.684764 0.140110
v -0.127133 6.681581 -0.126909
v 0.191154 10.415324 0.038168
v -0.165497 10.386431 -0.066350
v 0.135908 10.423584 -0.207857
v -0.231794 10.421108 -0.113142
v -2.629247 10.271494 -0.131630
v 0.891505 9.273915 0.006944
v 0.481640 8.785224 0.010479
v 2.015155 9.791104 -0.008060
v 0.214215 8.353653 -0.035998
v 0.614078 9.030746 -0.038528
v 0.874155 9.366327 -0.029069
v 0.306824 8.605748 0.030663
v 1.655772 9.782061 -0.036935
v 0.183851 7.379652 -0.022371
v -0.266018 8.441185 0.037362
v -2.620871 9.865192 0.039148
v -0.255976 8.484350 -0.012553
v -1.979486 9.867442 -0.026843
v -0.672031 9.049811 0.006281
v -0.183599 7.379662 0.019010
v -2.147025 9.100408 -0.305584
v -2.222577 9.099285 0.422781
v -2.742649 9.206577 0.616012
v -2.778317 9.215778 -0.552392
v -3.149889 9.216137 -0.305225
v -3.226514 9.215169 0.066537
v -2.149489 9.215498 -0.221722
v -2.778396 9.501806 0.146598
v -2.524012 9.496824 0.121057
v -2.618771 9.497941 -0.183906
v -2.642530 9.675898 0.219312
v -2.834059 9.677686 -0.120271
v -2.482898 9.172190 -0.535964
v -2.499365 9.638288 -0.076096
v -2.741085 9.639212 0.156431
v -2.722472 9.638258 -0.167419
v -2.685081 9.335556 0.122516
v -2.655846 9.282405 0.015807
v -2.763165 9.384683 -0.112733
v -2.566510 9.362779 -0.094083
v -2.772587 9.445180 0.116682
v -2.668732 9.454754 -0.160779
v -2.743089 9.542054 -0.102788
v -2.696834 9.595677 0.033929
v 3.239130 9.096666 -0.197559
v -2.573375 9.206847 -0.610418
v -2.248247 9.208313 0.466008
v -3.056726 9.209664 -0.492938
v -3.296034 9.208444 0.025058
v -2.598401 9.542622 -0.145338
v 2.484987 9.500619 -0.039204
v 2.573869 9.541639 -0.134066
v -0.907676 9.549646 0.021140
v 0.343885 -0.008057 0.275257
v -0.420504 0.057254 -0.052303
v -0.245026 0.002413 -0.242580
v 0.420851 0.057287 0.059211
v -0.335782 0.092068 0.201060
v 0.207714 0.455839 -0.204802
v -0.224676 0.463348 -0.143410
v 0.265873 3.301200 0.003533
v -0.265873 3.301200 0.003533
v -0.135640 3.466202 -0.125606
v 0.135759 6.785088 -0.117646
v 0.113575 6.781131 0.134335
v -0.169555 6.784875 -0.073480
v 0.114954 10.382329 -0.126094
v -0.110804 10.542106 0.127454
v 0.168423 10.159758 0.003650
v -0.150579 10.034570 0.101669
v 0.061013 10.104415 0.160544
v 2.641550 9.614528 0.152830
v 2.598973 10.023279 -0.085610
v -2.594862 10.024984 0.097120
v 0.333186 0.091990 -0.194923
v 2.614396 10.267859 -0.103341
v 2.685360 10.275743 0.160343
v -2.726665 10.271106 -0.104716
v -2.609666 10.268785 0.109907
v -2.691268 9.620975 0.161851
v -2.595321 9.622985 -0.045985
v 2.740659 9.616328 -0.028244
v -0.064170 10.735861 0.087860
v 0.052256 10.745341 -0.070786
v 0.230704 8.098930 0.000563
v -1.853053 9.786757 0.025554
v -1.023688 9.463310 0.037026
v -2.388874 9.102369 -0.554342
v -3.069370 9.099855 -0.457856
v -3.220123 9.101818 0.266593
v -3.275962 9.102566 -0.120340
v -3.014817 9.102705 0.519325
v -2.425181 9.099864 0.541318
v -2.063747 9.098415 -0.011461
v -2.394371 9.215387 -0.491555
v -3.070071 9.203233 0.430584
v -3.014156 9.417687 -0.131227
v -2.487749 9.411006 -0.346145
v -2.605163 9.391470 0.401701
v -2.866711 9.676393 0.065251
v -2.481030 9.498115 -0.046835
v -2.232789 9.206624 -0.431863
v -2.047405 9.209944 -0.041899
v -3.259281 9.104889 0.050109
v -2.258976 9.175461 -0.377486
v -2.257272 9.178490 0.415176
v -2.204740 9.179070 0.306935
v -2.777913 9.178021 -0.551249
v -3.121015 9.183676 -0.309968
v -2.983557 9.174226 0.474358
v -3.223377 9.176630 0.122991
v -2.638114 9.365684 0.386946
v -2.123588 9.188966 0.005967
v -2.297818 9.345243 -0.162338
v -2.554672 9.413206 -0.298246
v -2.898528 9.386895 -0.261939
v -2.864525 9.392195 0.283924
v -2.373442 9.378269 0.209899
v -2.665293 9.543037 0.164670
v -2.573235 9.637419 0.145487
v -2.847514 9.637400 0.000207
v -2.813675 9.542400 0.080332
v -2.775375 9.542758 -0.129709
v -2.512884 9.538905 -0.071820
v -2.639084 9.474962 0.154628
v -2.665377 9.098147 -0.610429
v -2.711200 9.305098 -0.076362
v -2.544302 9.350317 0.042977
v -2.593233 9.528888 -0.107355
v -2.668671 9.499131 0.149317
v -2.570092 9.495907 0.120989
v 2.200492 9.102962 0.399930
v 2.460284 9.098924 0.571964
v 2.827337 9.098952 0.577156
v 3.027169 9.098172 -0.493884
v 3.151526 9.204447 -0.337032
v 2.496375 9.406271 0.354185
v 2.628352 9.501410 0.199997
v 3.019801 9.174239 -0.443328
v 2.681999 9.181909 0.542934
v 3.228138 9.177513 0.068096
v 2.450942 9.171858 -0.519333
v 3.101685 9.175607 0.373703
v 2.364885 9.332277 -0.281162
v 2.278322 9.360861 0.082275
v 3.003714 9.377663 0.165787
v 2.965684 9.359262 -0.273889
v 2.561936 9.542970 0.121108
v 2.833882 9.541916 0.024532
v 2.513572 9.542493 -0.038677
v 2.652667 9.475596 0.156697
v 2.744826 9.542401 -0.146461
v 2.081268 9.100735 0.123859
v 2.416965 9.175110 0.511610
v 2.626724 9.310494 0.079462
v 2.625592 9.364440 -0.138050
v 2.555046 9.434524 0.115975
v 0.021521 10.717958 -0.020518
v 0.160973 10.809093 -0.075301
v 0.151254 11.038061 -0.127429
v -0.221447 10.932611 -0.011161
v 0.214971 10.951760 0.044875
v -0.094584 11.062310 -0.148957
v -0.875340 9.485151 -0.020147
v -0.740435 9.316610 0.004021
v 0.901911 9.769716 -0.002787
v 0.939673 9.854425 0.020801
v 0.162165 -0.028191 -0.306480
v -0.325623 0.450678 -0.191402
v 0.198865 0.363457 0.236236
v 0.217296 0.452881 0.223755
v -0.161006 3.302471 0.198894
v 0.160882 3.302494 -0.191951
v 0.116237 3.458877 -0.135889
v 0.199677 3.457611 0.054685
v 0.175104 3.337671 0.219661
v -0.099711 3.347059 -0.246408
v -0.145149 6.685568 0.108707
v 0.154219 6.684426 -0.094584
v 0.000000 10.381177 0.178228
v 0.171110 10.523600 0.117892
v -0.076265 10.569521 -0.089648
v 0.081585 10.574535 -0.078792
v 0.092293 10.581980 0.061288
v -0.147838 10.152850 0.105742
v 0.099197 10.091813 -0.149484
v 2.721910 10.272376 -0.116020
v -2.693274 9.624472 -0.147610
v -2.711426 10.272747 0.131540
v 2.608135 10.143113 -0.135692
v -2.604996 10.150365 0.139437
v 2.626624 10.096290 0.157531
v -2.622519 10.088968 -0.149384
v -0.068879 3.453863 0.177877
v -0.167091 0.462963 0.205368
v -0.197580 0.364083 -0.232081
v -0.113559 0.387821 0.306948
v 1.382084 9.603667 -0.002694
v 2.178463 9.883082 -0.008978
v 0.542860 9.012013 0.016117
v 0.145769 8.051082 0.031299
v 1.921033 9.837418 0.041889
v 1.197286 9.602687 0.032934
v 0.108101 7.379657 -0.023035
v 0.161824 7.379690 0.033194
v 2.597264 9.805653 -0.010486
v 2.597910 9.859818 -0.040432
v -1.155973 9.484530 0.023336
v -0.123407 7.932718 0.013913
v -0.726744 9.224215 -0.033488
v -0.925347 9.340239 -0.038789
v -0.160016 7.379651 -0.046214
v -0.262243 8.258970 -0.004231
v -2.620139 9.806948 -0.017857
v -2.621058 9.880204 -0.021539
v -2.712663 9.098765 0.604323
v -2.126414 9.214543 0.143464
v -2.984342 9.404030 0.249083
v -2.855572 9.384601 -0.368552
v -2.330898 9.403314 0.212363
v -2.289620 9.403236 -0.069050
v -2.459622 9.677552 -0.004670
v -2.789071 9.499903 -0.138053
v -2.618999 9.678024 -0.209463
v -2.640248 9.498766 0.185439
v -2.791441 9.508581 0.167083
v -2.823937 9.500194 -0.145023
v -3.023343 9.381204 -0.029324
v -2.831670 9.475278 0.007097
v -2.520701 9.542279 0.064220
v -2.560668 9.173657 0.561173
v -3.222335 9.179194 -0.200729
v -2.969972 9.177635 -0.496338
v -2.085988 9.177880 -0.092426
v -2.511853 9.469092 -0.017318
v -2.822781 9.384806 0.006090
v -2.796312 9.534509 0.030753
v 3.255089 9.097127 0.134183
v 2.664678 9.210276 0.631189
v 2.693184 9.200556 -0.612441
v 3.255533 9.204278 0.014168
v 2.245168 9.215734 -0.384790
v 2.703952 9.413566 -0.390639
v 2.273538 9.389198 0.073223
v 2.314797 9.386123 -0.222632
v 2.463248 9.677523 0.050150
v 2.598511 9.676165 -0.209475
v 2.799451 9.497729 -0.139311
v 2.789919 9.497409 0.148886
v 2.667942 9.677452 0.214590
v 2.665380 9.506882 -0.203141
v 2.861984 9.498190 0.018024
v 2.509026 9.499447 0.106498
v 2.871551 9.178206 0.551717
v 2.632325 9.388010 -0.347157
v 2.581586 9.474960 -0.125065
v 2.804824 9.473846 0.060795
v 2.780981 9.477602 -0.108360
v 2.713266 9.542297 0.153513
v 2.199373 9.172749 -0.314302
v 3.196337 9.178135 -0.248307
v 2.088297 9.178579 0.139456
v 2.696055 9.283126 0.004287
v 2.533113 9.354991 -0.006002
v 2.560376 9.475109 -0.116232
v 2.803407 9.392209 0.070409
v 2.704360 9.364470 0.139139
v 2.802302 9.449554 -0.085338
v 2.767228 9.483912 0.128816
v 2.649467 9.594504 -0.052666
v 0.017278 10.842174 -0.203179
v -0.160378 10.876553 0.138862
v -0.169450 10.888173 -0.127639
v 0.024396 10.999337 -0.200407
v 0.006469 11.088508 0.151476
v 0.130604 11.032887 0.154871
v 0.106814 11.118104 -0.077615
v -0.073932 11.134180 -0.035960
v -0.330151 9.247178 0.002674
v -0.950283 9.758278 -0.016672
v -0.470741 9.199130 0.023479
v -0.840207 10.030123 -0.021607
v -0.883254 10.033089 0.010173
v -0.157970 9.249843 0.018681
v -0.157243 9.291927 0.001301
v 0.457634 9.242240 0.009848
v 0.740019 9.372388 0.006429
v 0.889912 9.473688 -0.005570
v 0.943237 9.756960 -0.018696
v 0.448274 9.215502 -0.021543
v 0.355415 9.196231 0.016949
v 0.157167 9.244278 -0.008173
v 0.157906 9.280920 0.021935
vn -0.3173 -0.4896 -0.8122
vn 0.2562 -0.1229 -0.9588
vn -0.9803 -0.1098 -0.1640
vn 0.4822 -0.1494 0.8632
vn -0.2898 -0.4773 0.8296
vn -0.9196 -0.0515 0.3895
vn -0.5858 -0.0017 -0.8105
vn -0.8017 -0.0549 0.5952
vn -0.8713 0.2390 -0.4286
vn 0.3472 0.3912 -0.8523
vn 0.6445 0.0366 0.7637
vn 0.9941 0.0842 -0.0689
vn 0.6665 0.2366 -0.7070
vn -0.9565 0.1238 -0.2643
vn 0.8948 -0.3981 -0.2023
vn 0.8608 0.4642 0.2088
vn 0.1352 0.4360 0.8897
vn -0.6076 0.1052 -0.7873
vn 0.6437 -0.0130 0.7652
vn 0.6407 0.1564 0.7517
vn -0.3946 0.4971 0.7728
vn 0.9071 0.3395 0.2489
vn 0.9790 0.1907 -0.0726
vn 0.6058 0.2078 -0.7680
vn 0.5500 0.2965 -0.7808
vn -0.4006 0.8482 -0.3464
vn 0.5042 0.3058 0.8076
vn -0.5236 0.1146 0.8442
vn -0.8173 0.5387 0.2044
vn -0.9884 0.1180 -0.0959
vn -0.2972 0.3901 0.8715
vn -0.3385 0.3047 -0.8903
vn -0.7091 0.3869 -0.5895
vn 0.6244 0.0272 0.7806
vn 0.6628 0.0117 0.7487
vn -0.5294 0.0113 0.8483
vn -0.7851 0.0305 0.6186
vn 0.6996 0.0120 -0.7144
vn -0.5881 0.0505 -0.8072
vn -0.8814 0.0233 -0.4718
vn 0.8335 0.0357 -0.5514
vn -0.7742 -0.6136 -0.1552
vn 0.4900 -0.1560 -0.8576
vn 0.5108 -0.5522 -0.6589
vn -0.0646 0.0094 0.9979
vn -0.8804 -0.2075 -0.4264
vn 0.7306 0.3801 0.5672
vn -0.5768 0.2750 0.7692
vn 0.9847 -0.0233 0.1728
vn -0.4591 0.5479 -0.6993
vn 0.6161 0.5035 -0.6058
vn -0.8768 0.4769 -0.0614
vn 0.5794 0.6964 0.4234
vn 0.2271 -0.0105 0.9738
vn -0.4209 0.7150 0.5583
vn 0.3627 -0.0196 -0.9317
vn -0.8197 -0.4729 -0.3232
vn 0.6281 -0.6986 0.3427
vn -0.5664 0.0746 0.8208
vn -0.6862 0.6134 -0.3910
vn 0.1109 0.6823 0.7226
vn 0.5891 0.6234 -0.5141
vn 0.7557 -0.6362 -0.1556
vn -0.1802 -0.6469 0.7410
vn -0.3304 -0.6001 -0.7285
vn 0.6493 0.6332 0.4212
vn 0.4650 0.6023 -0.6489
vn -0.5360 0.6038 0.5900
vn -0.3244 0.3076 -0.8945
vn 0.4140 0.0629 -0.9081
vn 0.4109 0.2858 0.8657
vn -0.6715 0.5803 -0.4607
vn -0.3018 -0.5957 -0.7443
vn -0.1903 -0.6273 0.7552
vn 0.7880 -0.6091 -0.0898
vn 0.7437 -0.4721 0.4733
vn -0.2967 0.4360 0.8496
vn -0.7739 0.2451 0.5839
vn 0.7499 0.2287 -0.6208
vn -0.0952 -0.6291 0.7715
vn 0.4868 -0.3867 -0.7833
vn -0.3770 -0.6425 0.6671
vn -0.5540 0.0374 -0.8317
vn 0.6385 0.7665 0.0694
vn 0.2096 0.8957 -0.3923
vn 0.9629 -0.1031 0.2494
vn -0.6468 0.1872 -0.7394
vn 0.7938 -0.5414 0.2772
vn 0.4012 -0.9087 0.1156
vn -0.5746 0.6704 -0.4696
vn -0.2365 0.6825 -0.6915
vn 0.0577 0.5037 -0.8620
vn -0.0562 0.9709 -0.2327
vn -0.9171 -0.0271 -0.3976
vn -0.7623 0.1036 0.6389
vn -0.1002 0.0387 -0.9942
vn -0.7815 0.5385 0.3150
vn -0.3630 0.7542 0.5471
vn -0.7120 0.3972 0.5790
vn -0.0704 0.4939 0.8666
vn 0.1723 -0.0735 0.9823
vn 0.6631 -0.7218 0.1985
vn 0.0839 -0.9930 0.0834
vn 0.0868 0.3573 0.9299
vn -0.3489 -0.6604 0.6649
vn -0.0559 -0.5319 0.8450
vn -0.1824 -0.4536 -0.8724
vn -0.8915 -0.0943 0.4431
vn 0.3605 0.0727 0.9299
vn -0.9849 -0.1390 -0.1033
vn -0.7795 -0.6168 0.1091
vn 0.7396 0.4965 0.4543
vn 0.4131 0.5519 0.7243
vn 0.9846 0.1112 0.1352
vn 0.8671 0.3678 -0.3359
vn 0.6247 0.5090 -0.5921
vn 0.3929 0.8393 -0.3758
vn 0.0616 0.8503 -0.5227
vn 0.2076 0.7185 0.6639
vn 0.0173 -0.1367 -0.9905
vn 0.0863 -0.0572 -0.9946
vn -0.2051 -0.2079 -0.9564
vn -0.0837 -0.9247 -0.3713
vn -0.0316 0.3042 0.9521
vn 0.0104 0.7803 -0.6253
vn 0.5995 0.5647 -0.5672
vn 0.4737 0.8531 -0.2188
vn 0.8166 0.5767 -0.0250
vn 0.2414 0.8643 -0.4413
vn 0.1038 0.5956 -0.7965
vn -0.0506 0.7175 -0.6947
vn -0.4943 0.5439 -0.6782
vn -0.8463 0.5295 0.0573
vn -0.8234 0.0395 -0.5661
vn -0.3974 0.9148 0.0724
vn -0.6273 0.4857 0.6088
vn -0.0604 0.5960 0.8007
vn 0.5710 0.5387 0.6195
vn 0.2481 0.7933 0.5561
vn 0.6374 0.7418 0.2086
vn 0.2744 0.7991 -0.5350
vn -0.1886 0.8486 0.4943
vn -0.4718 0.8019 0.3665
vn 0.5960 0.7938 -0.1210
vn 0.5181 0.7898 0.3284
vn -0.5517 0.8138 -0.1826
vn -0.2819 0.7666 -0.5770
vn 0.2147 0.5838 -0.7830
vn 0.7627 0.6057 -0.2269
vn -0.6045 -0.2934 -0.7406
vn -0.8362 0.5422 0.0821
vn 0.6187 0.6027 0.5040
vn 0.2171 0.5738 -0.7897
vn -0.6274 0.6304 -0.4571
vn -0.7540 0.6053 0.2551
vn 0.1286 0.5798 0.8046
vn 0.8047 0.5937 -0.0080
vn 0.1508 0.4978 0.8541
vn -0.4956 -0.5434 0.6775
vn -0.5795 -0.5912 -0.5609
vn -0.1261 0.9697 0.2093
vn 0.2271 -0.8682 0.4413
vn -0.4815 -0.5078 0.7143
vn -0.7879 -0.5600 -0.2560
vn -0.1972 -0.9511 -0.2376
vn -0.2867 -0.8511 -0.4398
vn 0.3896 -0.5633 -0.7287
vn 0.4836 -0.8742 -0.0435
vn 0.4909 -0.7865 0.3747
vn 0.8433 -0.4495 0.2944
vn 0.2967 -0.6410 0.7078
vn 0.3632 -0.8168 0.4482
vn 0.2154 -0.5405 0.8133
vn -0.4810 -0.8119 -0.3309
vn -0.6964 -0.7097 -0.1064
vn -0.7207 -0.5977 -0.3512
vn -0.5948 -0.7692 0.2335
vn -0.1764 -0.8504 0.4957
vn -0.6011 -0.4620 0.6521
vn 0.5956 -0.8025 0.0354
vn 0.3532 -0.8281 -0.4353
vn 0.7887 -0.5904 -0.1712
vn -0.0647 -0.7891 -0.6108
vn -0.1724 -0.5063 -0.8450
vn 0.6939 -0.7195 -0.0284
vn -0.7012 -0.7051 0.1060
vn 0.0175 -0.6565 0.7541
vn -0.1378 -0.6644 -0.7346
vn 0.3568 -0.5835 -0.7295
vn 0.8582 -0.5116 0.0413
vn -0.4925 -0.5510 -0.6737
vn -0.7450 -0.5803 0.3290
vn -0.6588 0.6960 0.2855
vn -0.8927 0.1774 -0.4144
vn 0.0393 0.1909 -0.9808
vn 0.8025 0.2791 -0.5273
vn 0.6565 0.2333 0.7173
vn 0.2110 -0.5645 0.7980
vn -0.4352 0.1387 0.8896
vn -0.1413 -0.9174 0.3720
vn -0.4333 -0.7796 -0.4522
vn 0.3503 -0.9343 0.0666
vn -0.5952 -0.7808 0.1898
vn 0.5464 -0.2103 -0.8107
vn 0.9263 0.3747 -0.0399
vn -0.3956 -0.2674 0.8786
vn -0.7550 -0.6421 0.1330
vn 0.3115 -0.9434 -0.1142
vn 0.0553 -0.9933 0.1015
vn -0.2448 -0.8476 -0.4707
vn 0.6195 -0.4869 -0.6158
vn -0.1033 -0.6344 0.7661
vn -0.9360 -0.3503 0.0336
vn 0.7699 -0.5565 0.3123
vn -0.6292 -0.2880 -0.7219
vn 0.0242 0.0332 -0.9992
vn 0.6226 0.3098 0.7186
vn 0.4953 0.5336 -0.6855
vn -0.0380 0.3552 0.9340
vn -0.6571 0.0124 0.7537
vn 0.9755 0.1907 -0.1094
vn -0.5002 0.6087 -0.6159
vn -0.8150 0.5531 0.1728
vn 0.3999 0.9122 -0.0889
vn -0.1611 0.9561 0.2447
vn -0.0139 0.4941 0.8693
vn 0.0487 0.9184 0.3926
vn -0.6483 0.4905 0.5823
vn 0.7013 0.5234 0.4840
vn 0.3100 0.9197 0.2408
vn 0.9160 0.4012 0.0036
vn -0.6890 0.6380 -0.3438
vn -0.3326 0.8410 -0.4267
vn -0.4125 0.5592 -0.7192
vn -0.8755 0.4697 0.1133
vn -0.5940 0.7951 0.1224
vn 0.5542 0.7997 -0.2310
vn 0.5515 0.8074 0.2096
vn 0.3985 0.4952 -0.7720
vn 0.0442 0.8098 -0.5850
vn 0.7453 0.4062 -0.5287
vn -0.2368 -0.1061 -0.9657
vn -0.5284 0.7742 -0.3485
vn -0.2705 0.9599 -0.0731
vn 0.3064 0.7674 0.5632
vn -0.0000 0.9663 0.2575
vn -0.2619 0.7877 0.5576
vn -0.2753 0.8970 -0.3460
vn 0.5056 0.5806 0.6382
vn 0.8097 0.5854 0.0416
vn 0.5570 0.5731 -0.6011
vn -0.2424 0.5964 -0.7652
vn -0.7810 0.5921 0.1988
vn -0.0134 0.5992 0.8005
vn -0.7076 -0.5728 -0.4139
vn 0.0775 -0.5714 -0.8170
vn 0.7574 0.5986 0.2608
vn -0.6752 0.5820 0.4532
vn -0.1972 -0.6101 0.7674
vn -0.2621 -0.9118 -0.3160
vn -0.0830 -0.9076 -0.4116
vn 0.1223 0.5077 -0.8528
vn 0.4328 -0.8444 -0.3157
vn 0.2461 -0.7215 -0.6472
vn 0.4466 -0.8928 -0.0579
vn -0.1227 -0.8199 0.5592
vn 0.8416 -0.5390 -0.0352
vn -0.4764 -0.7797 0.4063
vn -0.6562 -0.5340 0.5331
vn -0.3215 0.0922 0.9424
vn 0.0823 -0.8339 -0.5457
vn -0.1485 0.3120 -0.9384
vn 0.5009 -0.4859 -0.7163
vn -0.6610 -0.5306 -0.5307
vn -0.5008 -0.8267 -0.2566
vn -0.8229 -0.5663 -0.0454
vn -0.4998 -0.7717 0.3933
vn 0.0539 -0.8298 0.5555
vn -0.1412 -0.4331 0.8902
vn 0.6138 -0.7749 -0.1510
vn 0.8036 -0.5748 -0.1547
vn 0.0317 -0.6672 -0.7442
vn -0.5716 -0.6345 0.5203
vn 0.4327 -0.5896 0.6821
vn 0.4742 -0.7820 0.4046
vn 0.8067 -0.5711 0.1520
vn 0.9616 0.2149 0.1706
vn 0.5133 0.0769 0.8548
vn -0.4688 0.2355 0.8513
vn -0.1667 -0.5085 0.8448
vn -0.8023 -0.5865 -0.1107
vn -0.9776 0.1764 -0.1145
vn -0.4184 0.0369 -0.9075
vn 0.1870 -0.5179 -0.8348
vn 0.7217 0.1306 -0.6798
vn -0.7338 -0.5445 -0.4062
vn 0.3800 -0.5053 0.7748
vn -0.6058 -0.7286 0.3195
vn -0.2242 -0.7155 -0.6616
vn 0.7669 -0.5989 -0.2309
vn 0.4312 -0.9021 -0.0168
vn 0.1345 -0.9907 0.0199
vn -0.3113 -0.8184 0.4831
vn -0.8429 -0.5335 -0.0693
vn -0.2560 -0.5139 -0.8187
vn 0.5428 -0.7211 -0.4306
vn 0.8792 -0.3299 0.3438
vn 0.1795 -0.4418 0.8790
vn -0.6711 -0.0107 0.7413
vn -0.6721 0.2218 -0.7065
vn 0.5434 0.2933 0.7865
vn 0.7842 0.5602 -0.2668
vn 0.8615 -0.0571 -0.5046
vn -0.8561 0.5165 0.0178
vn 0.2527 0.1992 -0.9468
vn -0.2890 0.7343 0.6142
vn 0.3968 0.8612 0.3176
vn -0.1190 0.9221 -0.3681
vn 0.1404 -0.9873 -0.0744
vn -0.5873 -0.7797 0.2172
vn -0.3911 -0.8383 -0.3799
vn 0.0874 -0.3923 -0.9157
vn 0.7398 -0.5243 -0.4217
vn -0.9974 -0.0225 -0.0680
vn -0.7459 -0.2093 -0.6323
vn 0.7269 0.3463 -0.5930
vn -0.7165 -0.2644 0.6456
vn 0.1460 -0.5509 0.8217
vn -0.3367 0.3148 0.8874
vn 0.9755 0.0810 0.2044
vn 0.7199 -0.5920 0.3624
vn 0.6046 0.3881 0.6956
vn -0.8159 0.5510 0.1755
vn -0.4513 0.5398 -0.7106
vn 0.4600 0.8388 -0.2914
vn 0.0799 0.2727 -0.9588
vn -0.3682 0.9087 -0.1967
vn 0.0061 0.7283 0.6852
vn -0.0269 0.9641 0.2640
vn 0.7310 0.6193 -0.2866
vn -0.8846 0.2301 -0.4056
vn 0.5518 -0.1480 -0.8207
vn 0.0047 -0.3508 -0.9364
vn -0.0968 -0.6362 -0.7654
vn -0.1405 0.9859 0.0909
vn 0.5794 0.8073 -0.1122
vn -0.5478 -0.3881 -0.7411
vn 0.5110 -0.1425 -0.8477
vn -0.0521 -0.6606 0.7490
vn -0.6745 -0.2179 0.7054
vn -0.6041 -0.7936 0.0732
vn 0.0579 -0.5343 0.8433
vn 0.7176 -0.2378 0.6546
vn -0.9051 0.2943 0.3070
vn 0.1363 -0.0241 0.9904
vn -0.9600 0.0593 -0.2738
vn 0.7231 -0.1676 -0.6701
vn 0.7518 0.1659 0.6382
vn -0.9482 -0.2208 0.2284
vn -0.0582 0.4971 0.8658
vn -0.0550 -0.8920 0.4486
vn -0.1940 0.9189 0.3434
vn 0.3678 -0.5631 0.7400
vn 0.2942 -0.6324 -0.7166
vn 0.7985 -0.5152 -0.3113
vn -0.6545 0.6995 -0.2868
vn 0.1654 -0.4153 -0.8945
vn 0.0723 0.7423 -0.6662
vn 0.6189 0.2789 0.7343
vn 0.1213 0.0960 -0.9880
vn 0.0660 -0.6154 -0.7854
vn -0.3512 0.7880 0.5057
vn 0.8162 -0.0743 -0.5729
vn 0.0240 -0.9871 -0.1583
vn 0.7190 -0.0654 0.6920
vn 0.0694 0.7713 0.6327
vn 0.6013 0.6004 -0.5273
vn -0.8129 -0.5607 -0.1575
vn -0.4939 -0.6135 0.6161
vn 0.8059 -0.4474 0.3879
vn -0.2505 0.9672 0.0426
vn -0.3429 -0.8667 -0.3622
vt 0.406709 0.726986
vt 0.553715 0.737651
vt 0.391725 0.914656
vt 0.625000 0.964179
vt 0.437326 0.999648
vt 0.397446 0.017186
vt 0.295540 0.023973
vt 0.214005 0.007639
vt 0.147071 0.207748
vt 0.366650 0.228222
vt 0.172404 0.237555
vt 0.569412 0.533032
vt 0.389016 0.542530
vt 0.391573 0.448713
vt 0.633824 0.208338
vt 0.850825 0.205884
vt 0.747799 0.232667
vt 0.860856 0.238306
vt 0.125024 0.026271
vt 0.211785 0.045915
vt 0.618704 0.011907
vt 0.785963 0.022219
vt 0.712003 0.045947
vt 0.586507 0.025671
vt 0.134893 0.066198
vt 0.599415 0.063698
vt 0.593899 0.266807
vt 0.431331 0.288745
vt 0.599106 0.339181
vt 0.611734 0.372222
vt 0.571103 0.469838
vt 0.569116 0.462992
vt 0.410229 0.438930
vt 0.589656 0.473476
vt 0.567852 0.284336
vt 0.428682 0.280291
vt 0.395757 0.345724
vt 0.388266 0.377778
vt 0.457327 0.277474
vt 0.459129 0.476623
vt 0.420485 0.449199
vt 0.567663 0.289105
vt 0.576941 0.291391
vt 0.434224 0.278617
vt 0.411907 0.307144
vt 0.574847 0.449179
vt 0.431609 0.455963
vt 0.408219 0.422874
vt 0.591751 0.435552
vt 0.407204 0.420033
vt 0.553154 0.467458
vt 0.567443 0.463626
vt 0.509457 0.275606
vt 0.403751 0.422142
vt 0.580739 0.312961
vt 0.449606 0.277935
vt 0.612391 0.362362
vt 0.434434 0.465687
vt 0.579415 0.456228
vt 0.402729 0.325453
vt 0.593767 0.314060
vt 0.539241 0.267395
vt 0.395894 0.301932
vt 0.581461 0.476076
vt 0.625000 0.441719
vt 0.612944 0.338847
vt 0.625000 0.266313
vt 0.625000 0.455457
vt 0.625000 0.280406
vt 0.625000 0.460219
vt 0.375000 0.413622
vt 0.375000 0.281891
vt 0.375000 0.475365
vt 0.375000 0.294981
vt 0.375000 0.473279
vt 0.375000 0.280051
vt 0.625000 0.471964
vt 0.375000 0.483199
vt 0.375000 0.282372
vt 0.375000 0.453168
vt 0.625000 0.473006
vt 0.625000 0.283450
vt 0.625000 0.400499
vt 0.375000 0.304754
vt 0.428430 0.212477
vt 0.358950 0.061653
vt 0.847437 0.061541
vt 0.459978 0.067328
vt 0.615068 0.730442
vt 0.401422 0.684830
vt 0.402107 0.304598
vt 0.408187 0.464562
vt 0.616152 0.375539
vt 0.528488 0.414219
vt 0.494496 0.951111
vt 0.513130 0.614457
vt 0.552560 0.971361
vt 0.645269 0.888416
vt 0.603811 0.567453
vt 0.669972 0.591414
vt 0.733329 0.787483
vt 0.709851 0.547375
vt 0.468052 0.599326
vt 0.490783 0.405850
vt 0.572151 0.705095
vt 0.567310 0.441616
vt 0.633920 0.403344
vt 0.493124 0.042558
vt 0.551218 0.052392
vt 0.533599 0.483882
vt 0.651436 0.013585
vt 0.689987 0.409138
vt 0.475850 0.138963
vt 0.599274 0.049760
vt 0.699598 0.048168
vt 0.833223 0.999836
vt 0.124338 1.000000
vt 0.474808 0.224406
vt 0.742724 0.999929
vt 0.000000 0.999997
vt 0.000000 0.156326
vt 0.626513 0.930949
vt 0.684087 0.875672
vt 0.658256 0.994639
vt 0.466667 0.923019
vt 0.520720 0.707144
vt 0.506731 0.961431
vt 0.583365 0.906809
vt 0.559605 0.512878
vt 0.617076 0.629442
vt 0.483904 0.478983
vt 0.523362 0.458313
vt 0.588151 0.454874
vt 0.639696 0.449329
vt 0.695057 0.450496
vt 0.680427 0.597432
vt 0.466667 0.303458
vt 0.511412 0.203047
vt 0.605366 0.209303
vt 0.668456 0.129444
vt 0.733310 0.041853
vt 0.572366 0.039270
vt 0.733955 0.000000
vt 0.455337 1.000000
vt 0.000000 0.000000
vt 0.742582 0.999949
vt 0.000000 1.000000
vt 0.000000 0.149385
vt 0.613885 0.000000
vt 0.783325 0.999999
vt 0.000000 1.000000
vt 0.607486 0.953007
vt 0.637928 0.903795
vt 0.649531 0.845512
vt 0.579067 0.973170
vt 0.515866 0.995500
vt 0.473392 0.992283
vt 0.404833 0.956708
vt 0.352041 0.834700
vt 0.371239 0.919332
vt 0.349584 0.822536
vt 0.394932 0.733476
vt 0.493535 0.691521
vt 0.595851 0.730127
vt 0.573120 0.715481
vt 0.646856 0.807501
vt 0.567591 0.972564
vt 0.451835 0.700436
vt 0.387616 0.752761
vt 0.648022 0.876388
vt 0.624175 0.765889
vt 0.361508 0.896053
vt 0.435521 0.981188
vt 0.534464 0.987392
vt 0.640564 0.879913
vt 0.401486 0.953492
vt 0.350828 0.829983
vt 0.619368 0.752927
vt 0.534542 0.980316
vt 0.380588 0.932532
vt 0.361020 0.797130
vt 0.515802 0.708974
vt 0.644889 0.851862
vt 0.525871 0.698147
vt 0.413061 0.722105
vt 0.398995 0.943243
vt 0.411649 0.725379
vt 0.547113 0.334885
vt 0.545290 0.670175
vt 0.526597 0.336013
vt 0.518874 0.669869
vt 0.479687 0.335117
vt 0.451481 0.666283
vt 0.453582 0.334693
vt 0.424714 0.334593
vt 0.418611 0.669557
vt 0.406362 0.335170
vt 0.383737 0.333417
vt 0.393644 0.668371
vt 0.376715 0.661792
vt 0.380948 0.938191
vt 0.359212 0.898978
vt 0.419545 0.973664
vt 0.403783 0.958264
vt 0.470788 0.992743
vt 0.621475 0.756295
vt 0.650626 0.852031
vt 0.625122 0.763326
vt 0.642422 0.895867
vt 0.554385 0.973756
vt 0.617874 0.942236
vt 0.350073 0.857269
vt 0.419444 0.719607
vt 0.353558 0.815750
vt 0.518869 0.695292
vt 0.525050 0.693788
vt 0.367239 0.837878
vt 0.641412 0.854044
vt 0.504404 0.985304
vt 0.527130 0.708769
vt 0.437921 0.709035
vt 0.358011 0.843673
vt 0.580554 0.722102
vt 0.623005 0.899128
vt 0.634602 0.905997
vt 0.634623 0.787323
vt 0.506699 0.698278
vt 0.371412 0.778439
vt 0.413832 0.957765
vt 0.456564 0.981974
vt 0.564161 0.974194
vt 0.566821 0.333245
vt 0.580998 0.665849
vt 0.582685 0.335993
vt 0.554736 0.667815
vt 0.505427 0.333523
vt 0.526813 0.666300
vt 0.490872 0.333149
vt 0.500022 0.664798
vt 0.473518 0.664184
vt 0.429651 0.665281
vt 0.411143 0.665840
vt 0.379641 0.665776
vt 0.376895 0.327761
vt 0.649539 0.867713
vt 0.605165 0.732504
vt 0.414441 0.720543
vt 0.197962 0.072262
vt 0.291629 0.204346
vt 0.074004 0.341588
vt 0.592237 0.100033
vt 0.686484 0.291070
vt 0.459527 0.404682
vt 0.816581 0.107722
vt 0.895210 0.327790
vt 1.000000 0.234561
vt 0.312449 0.389920
vt 0.201728 0.535762
vt 0.817093 0.592348
vt 0.100899 0.685099
vt 0.697956 0.617360
vt 0.581094 0.511334
vt 0.960368 0.562799
vt 0.301511 0.708925
vt 0.486947 0.679366
vt 0.046720 0.830725
vt 0.023271 0.571869
vt 0.571580 0.868241
vt 0.955442 0.856431
vt 0.499581 0.992146
vt 0.482274 0.991318
vt 0.613825 0.942031
vt 0.380562 0.934538
vt 0.382009 0.939474
vt 0.347828 0.851343
vt 0.634222 0.773769
vt 0.612349 0.746342
vt 0.548096 0.701459
vt 0.650537 0.860301
vt 0.648389 0.869826
vt 0.361323 0.786832
vt 0.355749 0.881220
vt 0.430783 0.707713
vt 0.486346 0.699933
vt 0.375708 0.755839
vt 0.514507 0.693861
vt 0.629842 0.768349
vt 0.639294 0.810069
vt 0.428322 0.976953
vt 0.501400 0.993493
vt 0.562135 0.976581
vt 0.522871 0.698816
vt 0.413397 0.963306
vt 0.355776 0.859501
vt 0.400689 0.736443
vt 0.540988 0.715098
vt 0.639877 0.877246
vt 0.503250 0.986900
vt 0.618213 0.763378
vt 0.505236 0.692255
vt 0.361952 0.886804
vt 0.622719 0.925509
vt 0.535083 0.988596
vt 0.582747 0.333541
vt 0.570138 0.667953
vt 0.556961 0.335660
vt 0.548407 0.673377
vt 0.524348 0.334457
vt 0.531732 0.666114
vt 0.510492 0.669641
vt 0.500197 0.335514
vt 0.488892 0.663228
vt 0.477822 0.334387
vt 0.454180 0.334580
vt 0.424391 0.666659
vt 0.435832 0.334865
vt 0.411393 0.334512
vt 0.390704 0.662638
vt 0.390626 0.335352
vt 0.375920 0.321357
vt 0.527545 0.980613
vt 0.500671 0.995697
vt 0.568245 0.978952
vt 0.388015 0.941116
vt 0.371012 0.910859
vt 0.348858 0.862434
vt 0.387780 0.751360
vt 0.511756 0.696931
vt 0.480951 0.692164
vt 0.644548 0.867629
vt 0.644942 0.869582
vt 0.514482 0.981203
vt 0.402019 0.743574
vt 0.587109 0.728809
vt 0.613096 0.742522
vt 0.638560 0.810208
vt 0.640364 0.808341
vt 0.583392 0.720721
vt 0.427712 0.714266
vt 0.477588 0.708975
vt 0.361399 0.864953
vt 0.360359 0.869449
vt 0.459288 0.987238
vt 0.528564 0.973332
vt 0.594933 0.954326
vt 0.365401 0.905139
vt 0.567136 0.665106
vt 0.546956 0.666342
vt 0.505119 0.665275
vt 0.484703 0.666411
vt 0.465596 0.666963
vt 0.438992 0.666746
vt 0.381402 0.667106
vt 0.450983 0.987044
vt 0.648202 0.862698
vt 0.789320 0.090210
vt 0.997986 0.161055
vt 0.933529 0.319901
vt 0.748296 0.336197
vt 0.570601 0.244041
vt 0.373566 0.413758
vt 0.248118 0.099801
vt 0.240365 0.351710
vt 0.072542 0.499305
vt 0.117261 0.211965
vt 0.817321 0.558730
vt 0.303477 0.581215
vt 0.507974 0.690217
vt 0.544491 0.516742
vt 0.000000 0.561722
vt 0.000000 0.473985
vt 0.644207 0.560941
vt 0.121791 0.787407
vt 0.355130 0.810095
vt 0.682986 0.858275
vt 0.950155 0.692375
vt 1.000000 0.856056
vt 0.711466 0.091485
vt 0.506788 0.222004
vt 0.341877 0.177383
vt 0.141405 0.076369
vt 0.180072 0.364687
vt 0.026712 0.310297
vt 0.439496 0.487385
vt 0.348754 0.439142
vt 0.065013 0.638502
vt 0.568234 0.420802
vt 0.721215 0.314901
vt 0.634983 0.604361
vt 0.985955 0.299244
vt 0.920182 0.539485
vt 0.887898 0.295514
vt 0.813022 0.638448
vt 0.484158 0.670815
vt 0.286907 0.692308
vt 0.997292 0.575759
vt 0.958769 0.788853
vt 0.184080 0.600605
vt 0.071587 0.856955
vt 0.362778 0.857821
vt 0.704479 0.752285
vt 0.572109 0.915386
vt 0.390882 0.928595
vt 0.469019 0.549175
vt 0.482643 0.956606
vt 0.173604 0.790712
vt 0.241928 0.595444
vt 0.201241 0.916222
vt 0.286263 0.914843
vt 0.385055 0.562377
vt 0.532662 0.729684
vt 0.166898 0.722672
vt 0.239358 0.406643
vt 0.406384 0.376991
vt 0.323624 0.482144
vt 0.166737 0.333839
vt 0.189611 0.034679
vt 0.531096 0.177349
vt 0.531542 0.611730
vt 0.380809 0.037654
vt 0.484824 0.080278
vt 0.253742 0.253833
vt 0.665634 0.999986
vt 0.000000 0.999870
vt 0.391928 0.588479
vt 0.475087 0.913388
vt 0.445805 0.996916
vt 0.494624 0.610353
vt 0.528984 0.848207
vt 0.166634 0.731134
vt 0.208373 0.591005
vt 0.237652 0.924904
vt 0.292837 0.590909
vt 0.289782 0.454736
vt 0.385725 0.492466
vt 0.468395 0.406803
vt 0.321416 0.042688
vt 0.233210 0.292935
vt 0.178983 0.067120
vt 0.240249 0.021255
vt 0.467853 0.055590
vt 0.513063 0.022059
vt 0.844218 0.407508
vt 0.881560 1.000000
vt 0.179206 0.998735
vt 0.396953 0.000000
vt 1.000000 0.448501
vt 0.835621 0.983959
vt 0.862491 0.000680
vt 0.875000 0.019547
vt 0.534512 0.682747
vt 0.613373 0.688132
vt 0.623584 0.341020
vt 0.445332 0.301020
vt 0.599785 0.956085
vt 0.695208 0.966429
vt 0.733333 0.387195
vt 0.720201 0.186469
vt 0.125148 0.250000
vt 0.684360 0.156542
vt 0.648825 0.999944
vt 0.416230 0.253464
vt 0.782032 1.000000
vt 0.094839 1.000000
vt 0.475858 0.250000
vt 0.525784 0.999979
vt 0.051858 0.572701
vt 0.489557 0.417317
vt 0.873706 0.999996
vt 0.190635 0.999888
vt 0.000000 0.999958
vt 0.250000 0.165994
vt 0.420382 0.999883
vt 0.541667 0.993764
vt 0.694577 0.988397
vt 0.720700 0.967754
vt 0.470316 0.734150
vt 0.725931 0.630714
vt 0.624645 0.016235
vt 0.506170 0.020751
vt 0.466667 0.073156
vt 0.466667 0.002656
vt 0.470401 0.562629
vt 0.781823 1.000000
vt 0.094877 1.000000
vt 0.402493 0.093238
vt 0.457232 0.999067
vt 0.103895 0.418422
vt 0.832174 0.000000
vt 1.000000 0.999998
vt 0.391052 0.999998
vt 0.517002 0.693399
vt 0.579368 0.670288
vt 0.612960 0.332475
vt 0.613712 0.667598
vt 0.596078 0.673535
vt 0.617060 0.666754
vt 0.489291 0.668856
vt 0.624974 0.327222
vt 0.554778 0.985558
vt 0.446680 0.662521
vt 0.392156 0.667332
vt 0.996828 0.415645
vt 0.493808 0.690375
vt 0.379964 0.754059
vt 0.601681 0.334902
vt 0.617641 0.669272
vt 0.594894 0.669335
vt 0.462177 0.668106
vt 0.375163 0.679813
vt 0.620300 0.329515
vt 0.407747 0.722372
vt 0.559358 0.701045
vt 0.629100 0.762620
vt 0.589111 0.668145
vt 0.617709 0.667912
vt 0.526616 0.664522
vt 0.407743 0.667137
vt 0.362474 0.775830
vt 0.642831 0.879853
vt 0.000000 0.276557
vt 0.010821 0.751465
vt 0.794729 0.088346
vt 0.000000 0.480266
vt 0.751853 0.892265
vt 0.132871 0.964568
vt 0.171509 0.096576
vt 0.285820 0.048981
vt 0.205765 0.129670
vt 0.930621 0.336176
vt 0.414763 0.989491
vt 0.946062 0.111122
vt 0.669232 1.003056
vt -0.002545 1.003731
vt 0.396101 0.985384
vt 0.333070 0.931333
vt 0.177968 0.950000
vt 0.166674 0.321286
vt 0.533456 0.343178
vt 0.378378 0.297866
vt 0.652653 0.996600
vt 0.049075 0.258476
vt 0.799633 1.000000
vt 0.120781 1.000000
vt 0.177150 0.176124
vt 0.925832 0.318710
vt 0.548220 1.002424
s 1
usemtl lambert1
f 145/1/1 257/2/2 83/3/3
f 257/2/2 143/4/4 3/5/5
f 3/6/5 79/7/6 83/8/3
f 285/9/7 86/10/8 258/11/9
f 81/12/10 285/13/7 258/14/9
f 259/15/11 81/16/10 82/17/12
f 81/16/10 148/18/13 82/17/12
f 83/8/3 79/7/6 145/19/1
f 145/19/1 79/7/6 144/20/14
f 143/21/4 80/22/15 146/23/16
f 143/21/4 146/23/16 1/24/17
f 145/19/1 144/20/14 85/25/18
f 146/23/16 84/26/19 1/24/17
f 260/27/20 284/28/21 86/10/8
f 264/29/22 150/30/23 262/31/24 263/32/25
f 258/14/9 149/33/26 148/34/13
f 258/14/9 148/34/13 81/12/10
f 264/29/22 265/35/27 150/30/23
f 261/36/28 87/37/29 151/38/30
f 265/35/27 264/29/22 283/39/31
f 266/40/32 87/37/29 152/41/33
f 88/42/34 154/43/35 5/44/36
f 88/42/34 5/44/36 267/45/37
f 153/46/38 154/43/35 88/42/34
f 89/47/39 155/48/40 153/46/38
f 89/47/39 153/46/38 268/49/41
f 267/45/37 155/48/40 89/47/39
f 5/44/36 155/48/40 267/45/37
f 91/50/42 92/51/43 156/52/44
f 91/50/42 269/53/45 93/54/46
f 269/53/45 270/55/47 157/56/48
f 90/57/49 270/55/47 269/53/45
f 90/57/49 92/51/43 270/55/47
f 92/51/43 93/54/46 271/58/50
f 271/58/50 272/59/51 92/51/43
f 93/54/46 157/56/48 8/60/52
f 8/60/52 271/58/50 93/54/46
f 272/59/51 273/61/53 270/55/47
f 160/62/54 269/53/45 274/63/55
f 274/63/55 269/53/45 91/50/42
f 275/64/56 162/65/57 6/66/58
f 6/66/58 281/67/59 160/62/54
f 165/68/60 166/69/61 276/70/62
f 170/71/63 169/72/64 277/73/65
f 168/74/66 94/75/67 278/76/68
f 281/67/59 166/69/61 279/77/69
f 279/77/69 166/69/61 165/68/60
f 282/78/70 94/75/67 280/79/71
f 280/79/71 94/75/67 168/74/66
f 282/78/70 167/80/72 94/75/67
f 162/65/57 2/81/73 161/82/74
f 162/65/57 161/82/74 281/67/59
f 279/77/69 276/70/62 2/81/73
f 276/70/62 166/69/61 171/83/75
f 280/79/71 278/76/68 169/72/64
f 280/79/71 169/72/64 163/84/76
f 282/78/70 170/71/63 277/73/65
f 264/29/22 88/42/34 283/39/31
f 283/39/31 267/45/37 152/41/33
f 152/41/33 89/47/39 263/32/25
f 263/32/25 268/49/41 264/29/22
f 284/28/21 265/35/27 261/36/28
f 260/27/20 265/35/27 284/28/21
f 149/33/26 151/38/30 266/40/32
f 284/28/21 151/38/30 149/33/26
f 149/33/26 266/40/32 148/34/13
f 260/27/20 150/30/23 265/35/27
f 148/34/13 150/30/23 260/27/20
f 286/85/77 285/9/7 147/86/78
f 81/16/10 259/15/11 164/87/79
f 77/88/80 286/85/77 147/86/78
f 77/88/80 84/26/19 286/85/77
f 84/26/19 147/86/78 3/6/5
f 4/89/81 145/1/1 85/90/18
f 154/43/35 6/66/58 160/62/54
f 155/48/40 159/91/82 7/92/83
f 5/44/36 159/91/82 155/48/40
f 158/93/84 279/77/69 275/64/56
f 158/93/84 281/67/59 279/77/69
f 279/77/69 162/65/57 275/64/56
f 162/65/57 281/67/59 6/66/58
f 160/62/54 280/79/71 163/84/76
f 274/63/55 280/79/71 160/62/54
f 7/92/83 163/84/76 282/78/70
f 167/80/72 169/72/64 278/76/68
f 276/70/62 171/83/75 2/81/73
f 271/58/50 173/94/85 272/59/51
f 174/95/86 98/96/87 96/97/88
f 287/98/89 100/99/90 102/100/91
f 296/101/92 102/100/91 288/102/93
f 293/103/94 290/104/95 98/96/87
f 99/105/96 98/96/87 289/106/97
f 100/99/90 292/107/98 102/100/91
f 289/106/97 292/107/98 100/99/90
f 174/108/86 96/109/88 101/110/99
f 292/107/98 287/111/89 291/112/100
f 294/113/101 174/108/86 290/104/95
f 292/107/98 101/110/99 95/114/102
f 291/112/100 287/111/89 97/115/103
f 293/116/94 294/117/101 290/118/95
f 9/119/104 296/120/92 288/121/93
f 297/122/105 175/123/106 14/124/107
f 109/125/108 104/126/109 302/127/110
f 302/127/110 104/126/109 108/128/111
f 104/126/109 10/129/112 108/128/111
f 10/129/112 176/130/113 297/122/105
f 298/131/114 106/132/115 104/126/109
f 10/129/112 299/133/116 176/130/113
f 176/130/113 299/133/116 12/134/117
f 12/134/117 107/135/118 11/136/119
f 10/129/112 106/132/115 299/133/116
f 298/131/114 301/137/120 13/138/121
f 13/138/121 299/133/116 106/132/115
f 300/139/122 14/140/107 12/134/117
f 107/135/118 12/134/117 14/140/107
f 14/140/107 303/141/123 107/135/118
f 299/133/116 13/138/121 108/142/111
f 11/143/119 105/144/124 175/145/106
f 304/146/125 105/147/124 107/148/118
f 107/149/118 303/150/123 304/151/125
f 191/152/126 116/153/127 192/154/128
f 191/152/126 184/155/129 116/153/127
f 135/156/130 184/155/129 191/152/126
f 135/156/130 113/157/131 184/155/129
f 137/158/132 113/157/131 135/156/130
f 138/159/133 114/160/134 137/158/132
f 138/159/133 115/161/135 114/160/134
f 138/159/133 185/162/136 115/161/135
f 112/163/137 136/164/138 19/165/139
f 192/154/128 306/166/140 136/164/138
f 184/155/129 187/167/141 116/153/127
f 18/168/142 307/169/143 185/162/136
f 306/166/140 310/170/144 309/171/145
f 116/153/127 310/170/144 306/166/140
f 307/169/143 186/172/146 115/161/135
f 308/173/147 119/174/148 187/167/141
f 187/167/141 119/174/148 190/175/149
f 312/176/150 119/174/148 308/173/147
f 186/172/146 312/176/150 308/173/147
f 186/172/146 20/177/151 312/176/150
f 307/169/143 20/177/151 186/172/146
f 310/170/144 190/175/149 309/171/145
f 190/175/149 118/178/152 309/171/145
f 313/179/153 121/180/154 189/181/155
f 120/182/156 311/183/157 313/179/153
f 190/175/149 311/183/157 118/178/152
f 118/178/152 120/182/156 314/184/158
f 314/184/158 120/182/156 315/185/159
f 316/186/160 121/180/154 313/179/153
f 117/187/161 314/184/158 20/177/151
f 305/188/162 112/189/137 181/190/163
f 181/190/163 112/189/137 185/191/136
f 180/192/164 137/193/132 178/194/165
f 178/194/165 137/193/132 215/195/166
f 215/195/166 137/193/132 135/196/130
f 215/195/166 135/196/130 177/197/167
f 110/198/168 191/199/126 192/200/128
f 137/158/132 114/160/134 113/157/131
f 113/157/131 114/160/134 308/173/147
f 184/155/129 113/157/131 187/167/141
f 309/171/145 19/165/139 306/166/140
f 198/201/169 321/202/170 322/203/171
f 205/204/172 198/201/169 197/205/173
f 207/206/174 202/207/175 196/208/176
f 203/209/177 204/210/178 194/211/179
f 205/204/172 317/212/180 198/201/169
f 317/212/180 206/213/181 200/214/182
f 201/215/183 207/206/174 320/216/184
f 318/217/185 206/213/181 317/212/180
f 207/206/174 16/218/186 203/209/177
f 203/209/177 16/218/186 204/210/178
f 17/219/187 205/204/172 204/210/178
f 205/204/172 318/217/185 317/212/180
f 214/220/188 201/215/183 206/213/181
f 214/220/188 207/206/174 201/215/183
f 124/221/189 210/222/190 209/223/191
f 123/224/192 213/225/193 319/226/194
f 208/227/195 209/223/191 319/226/194
f 211/228/196 124/221/189 208/227/195
f 212/229/197 210/222/190 211/228/196
f 125/230/198 212/229/197 139/231/199
f 213/225/193 123/224/192 139/231/199
f 319/226/194 16/218/186 214/220/188
f 318/217/185 208/227/195 214/220/188
f 17/219/187 212/229/197 318/217/185
f 16/218/186 139/231/199 17/219/187
f 213/225/193 139/231/199 319/226/194
f 182/232/200 195/233/201 111/234/202
f 305/188/162 320/235/184 182/232/200
f 179/236/203 199/237/204 305/188/162
f 193/238/205 200/239/182 179/236/203
f 178/194/165 321/240/170 193/238/205
f 215/195/166 197/241/173 178/194/165
f 122/242/206 215/195/166 110/198/168
f 323/243/207 110/198/168 183/244/208
f 196/208/176 202/207/175 323/245/207
f 320/216/184 196/208/176 195/246/201
f 199/247/204 201/215/183 320/216/184
f 203/209/177 194/211/179 202/207/175
f 193/238/205 180/192/164 178/194/165
f 193/238/205 179/236/203 180/192/164
f 127/248/209 216/249/210 129/250/211
f 127/251/209 126/252/212 325/253/213
f 127/254/209 217/255/214 126/252/212
f 129/256/211 217/255/214 127/254/209
f 216/249/210 128/257/215 131/258/216
f 217/255/214 220/259/217 126/252/212
f 131/258/216 218/260/218 129/250/211
f 126/252/212 219/261/219 130/262/220
f 324/263/221 220/259/217 217/255/214
f 128/257/215 325/253/213 132/264/222
f 132/264/222 325/253/213 326/265/223
f 130/262/220 326/265/223 325/253/213
f 219/261/219 326/265/223 130/262/220
f 218/260/218 21/266/224 324/267/221
f 219/261/219 133/268/225 326/265/223
f 220/259/217 133/268/225 219/261/219
f 220/259/217 21/269/224 133/268/225
f 133/268/225 21/266/224 132/264/222
f 328/270/226 44/271/227 43/272/228
f 40/273/229 26/274/230 44/271/227
f 40/273/229 330/275/231 26/274/230
f 42/276/232 331/277/233 41/278/234
f 46/279/235 331/277/233 42/276/232
f 43/272/228 333/280/236 46/279/235
f 330/275/231 49/281/237 47/282/238
f 27/283/239 332/284/240 225/285/241
f 331/277/233 332/284/240 45/286/242
f 46/279/235 333/280/236 334/287/243
f 331/277/233 334/287/243 332/284/240
f 333/280/236 140/288/244 334/287/243
f 48/289/245 50/290/246 226/291/247
f 334/287/243 54/292/248 332/284/240
f 48/289/245 338/293/249 50/290/246
f 49/281/237 341/294/250 47/282/238
f 49/281/237 337/295/251 341/294/250
f 336/296/252 335/297/253 339/298/254
f 51/299/255 335/297/253 336/296/252
f 340/300/256 336/296/252 337/295/251
f 341/294/250 53/301/257 338/293/249
f 342/302/258 339/298/254 335/297/253
f 342/302/258 335/297/253 51/299/255
f 342/302/258 338/293/249 227/303/259
f 140/288/244 342/302/258 51/299/255
f 54/292/248 140/288/244 51/299/255
f 54/292/248 51/299/255 337/295/251
f 23/304/260 41/305/234 38/306/261
f 38/306/261 329/307/262 224/308/263
f 224/308/263 329/307/262 27/309/239
f 224/308/263 27/309/239 225/310/241
f 134/311/264 225/310/241 330/312/231
f 134/311/264 330/312/231 327/313/265
f 24/314/266 328/315/226 223/316/267
f 222/317/268 43/318/228 221/319/269
f 221/319/269 43/318/228 242/320/270
f 41/278/234 331/277/233 45/286/242
f 45/286/242 332/284/240 27/283/239
f 44/271/227 226/291/247 43/272/228
f 46/279/235 334/287/243 331/277/233
f 56/321/271 229/322/272 243/323/273
f 56/321/271 232/324/274 229/322/272
f 235/325/275 230/326/276 232/324/274
f 236/327/277 344/328/278 55/329/279
f 234/330/280 22/331/281 56/321/271
f 240/332/282 235/325/275 56/321/271
f 347/333/283 236/327/277 235/325/275
f 344/328/278 345/334/284 233/335/285
f 345/334/284 234/330/280 233/335/285
f 22/331/281 240/332/282 56/321/271
f 345/334/284 22/331/281 234/330/280
f 236/327/277 347/333/283 344/328/278
f 57/336/286 239/337/287 141/338/288
f 241/339/289 58/340/290 141/338/288
f 59/341/291 238/342/292 348/343/293
f 60/344/294 348/343/293 237/345/295
f 239/337/287 57/336/286 237/345/295
f 239/337/287 22/331/281 345/334/284
f 347/333/283 141/338/288 345/334/284
f 346/346/296 238/342/292 347/333/283
f 22/331/281 237/345/295 240/332/282
f 231/347/297 23/304/260 38/306/261
f 55/348/279 38/306/261 224/308/263
f 350/349/298 224/308/263 134/311/264
f 327/313/265 230/350/276 134/311/264
f 232/351/274 327/313/265 24/314/266
f 343/352/299 24/314/266 223/316/267
f 343/352/299 223/316/267 222/317/268
f 351/353/300 222/317/268 242/320/270
f 243/323/273 232/324/274 343/354/299
f 25/355/301 234/330/280 243/323/273
f 242/320/270 222/317/268 221/319/269
f 352/356/302 244/357/303 353/358/304
f 352/356/302 353/358/304 245/359/305
f 61/360/306 355/361/307 352/362/302
f 356/363/308 246/364/309 244/365/303
f 353/358/304 354/366/310 245/359/305
f 356/363/308 355/361/307 358/367/311
f 355/361/307 29/368/312 358/367/311
f 357/369/313 29/368/312 355/361/307
f 246/364/309 63/370/314 353/371/304
f 358/367/311 246/364/309 356/363/308
f 354/366/310 62/372/315 245/359/305
f 358/367/311 28/373/316 246/364/309
f 357/369/313 62/372/315 29/368/312
f 29/368/312 64/374/317 358/367/311
f 62/372/315 359/375/318 29/368/312
f 63/376/314 359/375/318 354/366/310
f 63/376/314 28/377/316 359/375/318
f 64/374/317 359/375/318 28/373/316
f 247/378/319 68/379/320 67/380/321
f 247/381/319 360/382/322 248/383/323
f 247/381/319 67/380/321 360/382/322
f 68/379/320 250/384/324 362/385/325
f 360/382/322 249/386/326 248/383/323
f 361/387/327 65/388/328 69/389/329
f 248/390/323 251/391/330 66/392/331
f 251/391/330 365/393/332 65/388/328
f 361/387/327 30/394/333 250/384/324
f 65/388/328 365/393/332 69/389/329
f 250/384/324 252/395/334 362/385/325
f 69/389/329 30/394/333 361/387/327
f 251/391/330 249/396/326 366/397/335
f 250/384/324 30/394/333 252/395/334
f 363/398/336 252/395/334 366/399/335
f 252/395/334 30/394/333 367/400/337
f 69/389/329 364/401/338 70/402/339
f 71/403/340 369/404/341 31/405/342
f 34/406/343 72/407/344 368/408/345
f 32/409/346 368/408/345 72/407/344
f 71/403/340 253/410/347 369/404/341
f 31/405/342 369/404/341 371/411/348
f 34/412/343 370/413/349 72/407/344
f 253/410/347 142/414/350 369/404/341
f 254/415/351 142/414/350 253/410/347
f 370/413/349 142/414/350 254/415/351
f 373/416/352 368/417/345 370/413/349
f 142/414/350 33/418/353 372/419/354
f 142/414/350 71/420/340 31/421/342
f 31/422/342 371/423/348 33/424/353
f 74/425/355 255/426/356 378/427/357
f 255/426/356 256/428/358 75/429/359
f 382/430/360 380/431/361 375/432/362
f 73/433/363 380/431/361 35/434/364
f 377/435/365 378/436/357 256/428/358
f 73/433/363 35/434/364 377/435/365
f 377/435/365 35/434/364 376/437/366
f 379/438/367 376/437/366 35/434/364
f 379/438/367 37/439/368 375/440/362
f 255/441/356 75/442/359 378/436/357
f 256/443/358 76/444/369 75/445/359
f 256/446/358 36/447/370 76/448/369
f 257/2/2 3/5/5 83/3/3
f 257/449/2 80/22/15 143/21/4
f 257/449/2 4/450/81 80/22/15
f 259/15/11 260/27/20 286/85/77
f 259/15/11 82/17/12 260/27/20
f 285/9/7 286/85/77 86/10/8
f 143/21/4 1/24/17 3/6/5
f 77/88/80 147/86/78 84/26/19
f 78/451/371 164/452/79 85/90/18
f 257/2/2 145/1/1 4/89/81
f 79/7/6 147/86/78 144/20/14
f 80/22/15 164/87/79 146/23/16
f 147/86/78 85/25/18 144/20/14
f 164/87/79 84/26/19 146/23/16
f 286/85/77 260/27/20 86/10/8
f 148/34/13 260/27/20 82/453/12
f 86/10/8 284/28/21 258/14/9
f 149/33/26 258/14/9 284/28/21
f 261/36/28 265/35/27 283/39/31
f 261/36/28 283/39/31 87/37/29
f 156/52/44 90/57/49 158/93/84 275/64/56
f 262/31/24 266/40/32 263/32/25
f 266/40/32 151/38/30 87/37/29
f 266/40/32 152/41/33 263/32/25
f 152/41/33 87/37/29 283/39/31
f 268/49/41 153/46/38 88/42/34
f 91/50/42 93/54/46 92/51/43
f 156/52/44 92/51/43 90/57/49
f 93/54/46 269/53/45 157/56/48
f 92/51/43 272/59/51 270/55/47
f 157/56/48 270/55/47 273/61/53
f 7/92/83 274/63/55 91/50/42
f 7/92/83 91/50/42 156/52/44
f 275/64/56 7/92/83 156/52/44
f 269/53/45 160/62/54 158/93/84 90/57/49
f 78/451/371 85/90/18 285/13/7 81/12/10
f 7/92/83 159/91/82 163/84/76
f 7/92/83 280/79/71 274/63/55
f 160/62/54 281/67/59 158/93/84
f 161/82/74 2/81/73 171/83/75
f 278/76/68 94/75/67 167/80/72
f 279/77/69 165/68/60 276/70/62
f 280/79/71 168/74/66 278/76/68
f 162/65/57 279/77/69 2/81/73
f 166/69/61 281/67/59 161/82/74
f 163/84/76 169/72/64 170/71/63
f 282/78/70 163/84/76 170/71/63
f 282/78/70 277/73/65 167/80/72
f 283/39/31 88/42/34 267/45/37
f 152/41/33 267/45/37 89/47/39
f 263/32/25 89/47/39 268/49/41
f 264/29/22 268/49/41 88/42/34
f 284/28/21 261/36/28 151/38/30
f 148/34/13 266/40/32 262/31/24
f 148/34/13 262/31/24 150/30/23
f 85/25/18 147/86/78 285/9/7
f 160/62/54 159/91/82 5/44/36 154/43/35
f 81/12/10 164/452/79 78/451/371
f 84/26/19 164/87/79 259/15/11
f 286/85/77 84/26/19 259/15/11
f 3/6/5 147/86/78 79/7/6
f 164/452/79 4/89/81 85/90/18
f 4/450/81 164/87/79 80/22/15
f 3/6/5 1/24/17 84/26/19
f 275/64/56 153/46/38 155/48/40 7/92/83
f 172/454/372 157/56/48 273/61/53 173/94/85
f 154/43/35 153/46/38 6/66/58
f 153/46/38 275/64/56 6/66/58
f 157/56/48 172/454/372 8/60/52
f 166/69/61 161/82/74 171/83/75
f 159/91/82 160/62/54 163/84/76
f 7/92/83 282/78/70 280/79/71
f 167/80/72 277/73/65 169/72/64
f 173/94/85 271/58/50 8/60/52 172/454/372
f 121/180/154 316/186/160 20/177/151 189/181/155
f 273/61/53 272/59/51 173/94/85
f 95/455/102 96/97/88 99/105/96
f 99/105/96 96/97/88 98/96/87
f 287/98/89 95/455/102 99/105/96
f 287/98/89 102/100/91 97/456/103
f 99/105/96 100/99/90 287/98/89
f 296/101/92 97/456/103 102/100/91
f 99/105/96 289/106/97 100/99/90
f 98/96/87 101/110/99 289/106/97
f 102/100/91 292/107/98 291/112/100
f 102/100/91 291/112/100 288/102/93
f 101/110/99 98/96/87 290/104/95
f 288/102/93 291/112/100 9/457/104
f 292/107/98 289/106/97 101/110/99
f 290/104/95 174/108/86 101/110/99
f 292/107/98 95/114/102 287/111/89
f 291/112/100 97/115/103 9/458/104
f 95/114/102 101/110/99 96/109/88
f 98/459/87 174/460/86 103/461/373
f 98/462/87 103/463/373 293/464/94
f 174/465/86 294/466/101 103/467/373
f 97/468/103 296/469/92 295/470/374
f 9/471/104 97/472/103 295/473/374
f 108/128/111 13/474/121 302/127/110
f 14/475/107 175/123/106 303/476/123
f 109/125/108 15/477/375 104/126/109
f 108/128/111 10/129/112 297/122/105
f 297/122/105 176/130/113 175/123/106
f 104/126/109 15/477/375 298/131/114
f 175/123/106 176/130/113 11/136/119
f 176/130/113 12/134/117 11/136/119
f 10/129/112 104/126/109 106/132/115
f 105/478/124 11/136/119 107/135/118
f 106/132/115 298/131/114 13/138/121
f 299/133/116 300/139/122 12/134/117
f 299/133/116 108/142/111 300/139/122
f 300/139/122 297/479/105 14/140/107
f 302/480/110 301/481/120 109/482/108
f 297/479/105 300/139/122 108/142/111
f 298/483/114 15/484/375 301/485/120
f 13/486/121 301/487/120 302/488/110
f 175/489/106 105/490/124 303/491/123
f 189/181/155 120/182/156 313/179/153
f 185/162/136 112/163/137 18/168/142
f 112/163/137 19/165/139 18/168/142
f 136/164/138 306/166/140 19/165/139
f 192/154/128 116/153/127 306/166/140
f 115/161/135 186/172/146 114/160/134
f 310/170/144 116/153/127 187/167/141
f 113/157/131 308/173/147 187/167/141
f 308/173/147 114/160/134 186/172/146
f 18/168/142 188/492/376 307/169/143
f 188/492/376 19/165/139 309/171/145
f 188/492/376 117/187/161 307/169/143
f 187/167/141 190/175/149 310/170/144
f 307/169/143 117/187/161 20/177/151
f 117/187/161 188/492/376 314/184/158
f 309/171/145 314/184/158 188/492/376
f 314/184/158 309/171/145 118/178/152
f 118/178/152 311/183/157 120/182/156
f 189/181/155 315/185/159 120/182/156
f 20/177/151 315/185/159 189/181/155
f 136/493/138 111/234/202 183/494/208 192/495/128
f 119/174/148 316/186/160 313/179/153
f 190/175/149 119/174/148 313/179/153
f 190/175/149 313/179/153 311/183/157
f 20/177/151 314/184/158 315/185/159
f 312/176/150 20/177/151 316/186/160
f 119/174/148 312/176/150 316/186/160
f 136/493/138 112/189/137 305/188/162 182/232/200
f 182/232/200 111/234/202 136/493/138
f 183/494/208 111/234/202 196/496/176 323/497/207
f 179/236/203 181/190/163 185/191/136
f 179/236/203 185/191/136 138/498/133
f 180/192/164 179/236/203 138/498/133
f 180/192/164 138/498/133 137/193/132
f 177/197/167 135/196/130 191/199/126
f 110/198/168 177/197/167 191/199/126
f 183/494/208 110/499/168 192/495/128
f 18/168/142 19/165/139 188/492/376
f 185/162/136 307/169/143 115/161/135
f 209/223/191 210/222/190 123/224/192
f 123/224/192 210/222/190 125/230/198
f 322/203/171 197/205/173 198/201/169
f 194/211/179 204/210/178 122/500/206
f 122/500/206 204/210/178 197/205/173
f 198/201/169 317/212/180 200/214/182
f 200/214/182 206/213/181 199/247/204
f 320/216/184 207/206/174 196/208/176
f 199/247/204 206/213/181 201/215/183
f 197/205/173 204/210/178 205/204/172
f 202/207/175 207/206/174 203/209/177
f 204/210/178 16/218/186 17/219/187
f 17/219/187 318/217/185 205/204/172
f 206/213/181 318/217/185 214/220/188
f 214/220/188 16/218/186 207/206/174
f 319/226/194 209/223/191 123/224/192
f 124/221/189 209/223/191 208/227/195
f 210/222/190 124/221/189 211/228/196
f 212/229/197 125/230/198 210/222/190
f 123/224/192 125/230/198 139/231/199
f 214/220/188 208/227/195 319/226/194
f 318/217/185 211/228/196 208/227/195
f 212/229/197 211/228/196 318/217/185
f 139/231/199 212/229/197 17/219/187
f 16/218/186 319/226/194 139/231/199
f 58/340/290 241/339/289 238/342/292 59/341/291
f 111/234/202 195/233/201 196/496/176
f 182/232/200 320/235/184 195/233/201
f 199/237/204 320/235/184 305/188/162
f 179/236/203 200/239/182 199/237/204
f 321/240/170 200/239/182 193/238/205
f 322/501/171 321/240/170 178/194/165
f 178/194/165 197/241/173 322/501/171
f 122/242/206 197/241/173 215/195/166
f 110/198/168 194/502/179 122/242/206
f 110/198/168 323/243/207 194/502/179
f 321/202/170 198/201/169 200/214/182
f 323/245/207 202/207/175 194/211/179
f 110/198/168 215/195/166 177/197/167
f 179/236/203 305/188/162 181/190/163
f 127/251/209 325/253/213 216/249/210
f 128/257/215 216/249/210 325/253/213
f 129/250/211 216/249/210 131/258/216
f 325/253/213 126/252/212 130/262/220
f 217/255/214 129/503/211 324/263/221
f 126/252/212 220/259/217 219/261/219
f 324/267/221 129/250/211 218/260/218
f 131/258/216 128/257/215 132/264/222
f 218/260/218 131/258/216 132/264/222
f 324/263/221 21/269/224 220/259/217
f 132/264/222 326/265/223 133/268/225
f 132/264/222 21/266/224 218/260/218
f 53/301/257 336/296/252 339/298/254
f 40/273/229 44/271/227 328/270/226
f 329/504/262 41/278/234 27/283/239
f 27/283/239 41/278/234 45/286/242
f 333/280/236 43/272/228 226/291/247
f 44/271/227 48/289/245 226/291/247
f 48/289/245 26/274/230 47/282/238
f 26/274/230 330/275/231 47/282/238
f 49/281/237 225/285/241 332/284/240
f 333/280/236 226/291/247 342/302/258
f 333/280/236 342/302/258 140/288/244
f 226/291/247 50/290/246 342/302/258
f 48/289/245 47/282/238 338/293/249
f 47/282/238 341/294/250 338/293/249
f 49/281/237 332/284/240 337/295/251
f 332/284/240 54/292/248 337/295/251
f 334/287/243 140/288/244 54/292/248
f 53/301/257 52/505/377 336/296/252
f 50/290/246 338/293/249 342/302/258
f 340/300/256 51/299/255 336/296/252
f 52/505/377 337/295/251 336/296/252
f 341/294/250 337/295/251 52/505/377
f 341/294/250 52/505/377 53/301/257
f 338/293/249 53/301/257 339/298/254
f 227/303/259 338/293/249 339/298/254
f 342/302/258 227/303/259 339/298/254
f 337/295/251 51/299/255 340/300/256
f 39/506/378 46/507/235 42/508/232
f 23/304/260 39/506/378 42/508/232
f 23/304/260 42/508/232 41/305/234
f 38/306/261 41/305/234 329/307/262
f 134/311/264 224/308/263 225/310/241
f 327/313/265 330/312/231 40/509/229
f 24/314/266 327/313/265 40/509/229
f 24/314/266 40/509/229 328/315/226
f 222/317/268 223/316/267 328/315/226
f 222/317/268 328/315/226 43/318/228
f 242/320/270 43/318/228 46/510/235
f 39/506/378 242/511/270 46/507/235
f 330/275/231 225/285/241 49/281/237
f 44/271/227 26/274/230 48/289/245
f 57/336/286 58/340/290 60/344/294
f 58/340/290 59/341/291 60/344/294
f 234/330/280 56/321/271 243/323/273
f 235/325/275 236/327/277 230/326/276
f 228/512/379 236/327/277 55/329/279
f 55/329/279 344/328/278 231/513/297
f 231/513/297 344/328/278 233/335/285
f 349/514/380 234/330/280 25/355/301
f 232/324/274 56/321/271 235/325/275
f 349/514/380 233/335/285 234/330/280
f 235/325/275 240/332/282 346/346/296
f 235/325/275 346/346/296 347/333/283
f 347/333/283 345/334/284 344/328/278
f 58/340/290 57/336/286 141/338/288
f 346/346/296 240/332/282 348/343/293 238/342/292
f 60/344/294 59/341/291 348/343/293
f 57/336/286 60/344/294 237/345/295
f 345/334/284 141/338/288 239/337/287
f 347/333/283 241/339/289 141/338/288
f 347/333/283 238/342/292 241/339/289
f 242/511/270 23/304/260 349/515/380 351/516/300
f 237/345/295 348/343/293 240/332/282
f 22/331/281 239/337/287 237/345/295
f 23/304/260 231/347/297 349/515/380
f 55/348/279 231/347/297 38/306/261
f 224/308/263 228/517/379 55/348/279
f 350/349/298 228/517/379 224/308/263
f 230/350/276 350/349/298 134/311/264
f 327/313/265 232/351/274 230/350/276
f 24/314/266 343/352/299 232/351/274
f 243/518/273 343/352/299 222/317/268
f 222/317/268 351/353/300 243/518/273
f 230/326/276 228/512/379 350/519/298
f 243/323/273 229/322/272 232/324/274
f 351/520/300 25/355/301 243/323/273
f 349/514/380 25/355/301 351/520/300
f 230/326/276 236/327/277 228/512/379
f 231/513/297 233/335/285 349/514/380
f 23/304/260 242/511/270 39/506/378
f 244/365/303 352/362/302 356/363/308
f 352/356/302 245/359/305 61/360/306
f 353/521/304 244/365/303 246/364/309
f 356/363/308 352/362/302 355/361/307
f 245/359/305 62/372/315 61/360/306
f 357/369/313 61/360/306 62/372/315
f 61/360/306 357/369/313 355/361/307
f 353/358/304 63/376/314 354/366/310
f 63/522/314 246/364/309 28/373/316
f 354/366/310 359/375/318 62/372/315
f 358/367/311 64/374/317 28/373/316
f 29/368/312 359/375/318 64/374/317
f 68/379/320 247/378/319 65/388/328
f 247/523/319 66/392/331 65/388/328
f 247/523/319 248/390/323 66/392/331
f 68/379/320 65/388/328 361/387/327
f 67/380/321 68/379/320 362/385/325
f 360/382/322 67/380/321 362/385/325
f 68/379/320 361/387/327 250/384/324
f 66/392/331 251/391/330 65/388/328
f 248/383/323 249/386/326 251/524/330
f 360/382/322 363/398/336 249/386/326
f 360/382/322 252/395/334 363/398/336
f 360/382/322 362/385/325 252/395/334
f 365/393/332 364/401/338 69/389/329
f 365/393/332 251/391/330 366/397/335
f 249/386/326 363/398/336 366/399/335
f 30/394/333 70/402/339 367/400/337
f 69/389/329 70/402/339 30/394/333
f 364/401/338 365/393/332 70/525/339
f 366/399/335 252/395/334 367/400/337
f 365/393/332 366/397/335 70/525/339
f 366/399/335 367/400/337 70/526/339
f 71/403/340 32/409/346 253/410/347
f 253/410/347 32/409/346 72/407/344
f 253/410/347 72/407/344 254/415/351
f 254/415/351 72/407/344 370/413/349
f 34/412/343 373/416/352 370/413/349
f 369/404/341 142/414/350 372/419/354
f 373/416/352 374/527/381 368/417/345
f 32/528/346 370/413/349 368/417/345
f 142/414/350 370/413/349 32/528/346
f 142/414/350 31/421/342 33/418/353
f 71/420/340 142/414/350 32/528/346
f 369/529/341 372/530/354 371/531/348
f 368/532/345 374/533/381 34/534/343
f 378/535/357 376/536/366 74/425/355
f 37/537/368 382/430/360 375/432/362
f 255/426/356 74/425/355 256/428/358
f 376/536/366 375/432/362 73/433/363
f 73/433/363 375/432/362 380/431/361
f 74/425/355 376/536/366 73/433/363
f 74/425/355 73/433/363 377/435/365
f 74/425/355 377/435/365 256/428/358
f 35/434/364 380/431/361 379/438/367
f 379/438/367 380/431/361 381/538/382
f 36/539/370 256/428/358 378/436/357
f 377/435/365 376/437/366 378/436/357
f 379/438/367 375/440/362 376/437/366
f 378/540/357 75/541/359 36/151/370
f 380/542/361 382/543/360 381/544/382
f 379/545/367 381/546/382 37/547/368
