# Blender 5.1.2
# www.blender.org
mtllib street_lamp_bent.mtl
o BentMast
v -0.000000 0.000000 -0.080000
v 0.056600 0.000000 -0.056600
v 0.080000 0.000000 -0.000000
v 0.056600 0.000000 0.056600
v 0.000000 0.000000 0.080000
v -0.056600 -0.000000 0.056600
v -0.080000 -0.000000 0.000000
v -0.056600 -0.000000 -0.056600
v -0.000000 0.800000 -0.080000
v 0.056600 0.800000 -0.056600
v 0.080000 0.800000 -0.000000
v 0.056600 0.800000 0.056600
v -0.000000 0.800000 0.080000
v -0.056600 0.800000 0.056600
v -0.080000 0.800000 0.000000
v -0.056600 0.800000 -0.056600
v -0.000000 0.800000 -0.050000
v 0.035400 0.800000 -0.035400
v 0.050000 0.800000 -0.000000
v 0.035400 0.800000 0.035400
v -0.000000 0.800000 0.050000
v -0.035400 0.800000 0.035400
v -0.050000 0.800000 0.000000
v -0.035400 0.800000 -0.035400
v -0.000000 5.000000 -0.040000
v 0.028300 5.000000 -0.028300
v 0.040000 5.000000 -0.000000
v 0.028300 5.000000 0.028300
v -0.000000 5.000000 0.040000
v -0.028300 5.000000 0.028300
v -0.040000 5.000000 0.000000
v -0.028300 5.000000 -0.028300
v -0.000000 5.500000 -0.035000
v 0.024700 5.500000 -0.024700
v 0.035000 5.500000 -0.000000
v 0.024700 5.500000 0.024700
v -0.000000 5.500000 0.035000
v -0.024700 5.500000 0.024700
v -0.035000 5.500000 0.000000
v -0.024700 5.500000 -0.024700
v -0.000000 5.783927 -0.125331
v 0.021200 5.788642 -0.117901
v 0.030000 5.800000 -0.100000
v 0.021200 5.811358 -0.082100
v -0.000000 5.816073 -0.074669
v -0.021200 5.811358 -0.082100
v -0.030000 5.800000 -0.100000
v -0.021200 5.788642 -0.117901
v -0.000000 6.076335 -0.418439
v 0.021200 6.083277 -0.413030
v 0.030000 6.100000 -0.400000
v 0.021200 6.116723 -0.386971
v -0.000000 6.123664 -0.381562
v -0.021200 6.116723 -0.386971
v -0.030000 6.100000 -0.400000
v -0.021200 6.083277 -0.413030
v -0.000001 6.374503 -0.815807
v 0.021199 6.381982 -0.811170
v 0.029999 6.400000 -0.800000
v 0.021199 6.418018 -0.788829
v -0.000001 6.425498 -0.784192
v -0.021201 6.418018 -0.788829
v -0.030001 6.400000 -0.800000
v -0.021201 6.381982 -0.811170
v -0.000001 6.483553 -1.200016
v 0.011622 6.488378 -1.200011
v 0.016447 6.500000 -1.200000
v 0.011622 6.511622 -1.199989
v -0.000001 6.516447 -1.199984
v -0.011623 6.511622 -1.199989
v -0.016448 6.500000 -1.200000
v -0.011623 6.488378 -1.200011
v -0.100001 6.450000 -1.200000
v -0.100001 6.536794 -1.800000
v 0.099999 6.536794 -1.800000
v 0.099999 6.450000 -1.200000
v -0.100001 6.520000 -1.200000
v -0.100001 6.606794 -1.800000
v 0.099999 6.606794 -1.800000
v 0.099999 6.520000 -1.200000
vn -0.3821 -0.0000 0.9241
vn -0.9241 -0.0000 0.3821
vn -0.9241 -0.0000 -0.3821
vn -0.3821 -0.0000 -0.9241
vn 0.3821 -0.0000 -0.9241
vn 0.9241 -0.0000 -0.3821
vn 0.9241 -0.0000 0.3821
vn 0.3821 -0.0000 0.9241
vn -0.0000 -1.0000 -0.0000
vn -0.3816 -0.0022 0.9243
vn -0.9243 -0.0022 0.3816
vn -0.9243 -0.0022 -0.3816
vn -0.3816 -0.0022 -0.9243
vn 0.3816 -0.0022 -0.9243
vn 0.9243 -0.0022 -0.3816
vn 0.9243 -0.0022 0.3816
vn 0.3816 -0.0022 0.9243
vn -0.3834 -0.0093 0.9236
vn -0.9236 -0.0093 0.3834
vn -0.9236 -0.0093 -0.3834
vn -0.3834 -0.0093 -0.9236
vn 0.3834 -0.0093 -0.9236
vn 0.9236 -0.0093 -0.3834
vn 0.9236 -0.0093 0.3834
vn 0.3834 -0.0093 0.9236
vn -0.3708 0.2814 0.8851
vn -0.9175 0.1120 0.3815
vn -0.9169 -0.1393 -0.3740
vn -0.3703 -0.3048 -0.8775
vn 0.3703 -0.3048 -0.8775
vn 0.9169 -0.1393 -0.3740
vn 0.9175 0.1120 0.3815
vn 0.3708 0.2814 0.8851
vn -0.3782 0.6553 0.6539
vn -0.9214 0.2749 0.2747
vn -0.9214 -0.2747 -0.2749
vn -0.3782 -0.6540 -0.6552
vn 0.3782 -0.6540 -0.6552
vn 0.9214 -0.2747 -0.2749
vn 0.9214 0.2749 0.2747
vn 0.3782 0.6553 0.6539
vn -0.3827 0.7390 0.5545
vn -0.9233 0.3072 0.2305
vn -0.9233 -0.3073 -0.2304
vn -0.3827 -0.7392 -0.5542
vn 0.3827 -0.7392 -0.5542
vn 0.9233 -0.3073 -0.2304
vn 0.9233 0.3072 0.2305
vn 0.3827 0.7390 0.5545
vn -0.3708 0.8934 0.2536
vn -0.9185 0.3750 0.1251
vn -0.9160 -0.3953 -0.0682
vn -0.3685 -0.9082 -0.1984
vn 0.3685 -0.9082 -0.1984
vn 0.9160 -0.3953 -0.0682
vn 0.9185 0.3750 0.1251
vn 0.3708 0.8934 0.2536
vn -0.0000 -0.9897 -0.1432
vn -0.0000 0.9897 0.1432
vn -1.0000 -0.0000 -0.0000
vn -0.0000 -0.0000 -1.0000
vn 1.0000 -0.0000 -0.0000
vn -0.0000 -0.0000 1.0000
s 0
usemtl Mast
f 1//1 2//1 10//1 9//1
f 2//2 3//2 11//2 10//2
f 3//3 4//3 12//3 11//3
f 4//4 5//4 13//4 12//4
f 5//5 6//5 14//5 13//5
f 6//6 7//6 15//6 14//6
f 7//7 8//7 16//7 15//7
f 8//8 1//8 9//8 16//8
f 9//9 10//9 18//9 17//9
f 10//9 11//9 19//9 18//9
f 11//9 12//9 20//9 19//9
f 12//9 13//9 21//9 20//9
f 13//9 14//9 22//9 21//9
f 14//9 15//9 23//9 22//9
f 15//9 16//9 24//9 23//9
f 16//9 9//9 17//9 24//9
f 17//10 18//10 26//10 25//10
f 18//11 19//11 27//11 26//11
f 19//12 20//12 28//12 27//12
f 20//13 21//13 29//13 28//13
f 21//14 22//14 30//14 29//14
f 22//15 23//15 31//15 30//15
f 23//16 24//16 32//16 31//16
f 24//17 17//17 25//17 32//17
f 25//18 26//18 34//18 33//18
f 26//19 27//19 35//19 34//19
f 27//20 28//20 36//20 35//20
f 28//21 29//21 37//21 36//21
f 29//22 30//22 38//22 37//22
f 30//23 31//23 39//23 38//23
f 31//24 32//24 40//24 39//24
f 32//25 25//25 33//25 40//25
f 33//26 34//26 42//26 41//26
f 34//27 35//27 43//27 42//27
f 35//28 36//28 44//28 43//28
f 36//29 37//29 45//29 44//29
f 37//30 38//30 46//30 45//30
f 38//31 39//31 47//31 46//31
f 39//32 40//32 48//32 47//32
f 40//33 33//33 41//33 48//33
f 41//34 42//34 50//34 49//34
f 42//35 43//35 51//35 50//35
f 43//36 44//36 52//36 51//36
f 44//37 45//37 53//37 52//37
f 45//38 46//38 54//38 53//38
f 46//39 47//39 55//39 54//39
f 47//40 48//40 56//40 55//40
f 48//41 41//41 49//41 56//41
f 49//42 50//42 58//42 57//42
f 50//43 51//43 59//43 58//43
f 51//44 52//44 60//44 59//44
f 52//45 53//45 61//45 60//45
f 53//46 54//46 62//46 61//46
f 54//47 55//47 63//47 62//47
f 55//48 56//48 64//48 63//48
f 56//49 49//49 57//49 64//49
f 57//50 58//50 66//50 65//50
f 58//51 59//51 67//51 66//51
f 59//52 60//52 68//52 67//52
f 60//53 61//53 69//53 68//53
f 61//54 62//54 70//54 69//54
f 62//55 63//55 71//55 70//55
f 63//56 64//56 72//56 71//56
f 64//57 57//57 65//57 72//57
usemtl Light
f 73//58 74//58 75//58 76//58
f 77//59 80//59 79//59 78//59
f 73//60 77//60 78//60 74//60
f 74//61 78//61 79//61 75//61
f 75//62 79//62 80//62 76//62
f 76//63 80//63 77//63 73//63
