# Blender 5.1.2
# www.blender.org
mtllib traffic_bump.mtl
o traffic_bump
v -2.000000 -0.000000 -0.400000
v -2.000000 0.060000 -0.250000
v -2.000000 0.080000 -0.000000
v -2.000000 0.060000 0.250000
v -2.000000 0.000000 0.400000
v -1.542384 -0.000000 -0.400000
v -1.542384 0.060000 -0.250000
v -1.542384 0.080000 -0.000000
v -1.542384 0.060000 0.250000
v -1.542384 0.000000 0.400000
v -1.101070 -0.000000 -0.400000
v -1.101070 0.060000 -0.250000
v -1.101070 0.080000 -0.000000
v -1.101070 0.060000 0.250000
v -1.101070 0.000000 0.400000
v -0.646715 -0.000000 -0.400000
v -0.646715 0.060000 -0.250000
v -0.646715 0.080000 -0.000000
v -0.646715 0.060000 0.250000
v -0.646715 0.000000 0.400000
v -0.202141 -0.000000 -0.400000
v -0.202141 0.060000 -0.250000
v -0.202141 0.080000 -0.000000
v -0.202141 0.060000 0.250000
v -0.202141 0.000000 0.400000
v 0.252215 -0.000000 -0.400000
v 0.252215 0.060000 -0.250000
v 0.252215 0.080000 -0.000000
v 0.252215 0.060000 0.250000
v 0.252215 0.000000 0.400000
v 0.703310 -0.000000 -0.400000
v 0.703310 0.060000 -0.250000
v 0.703310 0.080000 -0.000000
v 0.703310 0.060000 0.250000
v 0.703310 0.000000 0.400000
v 1.164186 -0.000000 -0.400000
v 1.164186 0.060000 -0.250000
v 1.164186 0.080000 -0.000000
v 1.164186 0.060000 0.250000
v 1.164186 0.000000 0.400000
v 2.000000 -0.000000 -0.400000
v 2.000000 0.060000 -0.250000
v 2.000000 0.080000 -0.000000
v 2.000000 0.060000 0.250000
v 2.000000 0.000000 0.400000
v 1.570682 -0.000000 -0.400000
v 1.570682 0.060000 -0.250000
v 1.570682 0.080000 -0.000000
v 1.570682 0.060000 0.250000
v 1.570682 0.000000 0.400000
vn -0.0000 -0.9285 0.3714
vn -0.0000 -0.9968 0.0797
vn -0.0000 -0.9968 -0.0797
vn -0.0000 -0.9285 -0.3714
vn -1.0000 -0.0000 -0.0000
vn 1.0000 -0.0000 -0.0000
s 0
usemtl bump_black
f 2//2 7//2 8//2 3//2
f 3//3 8//3 9//3 4//3
f 6//1 11//1 12//1 7//1
f 7//2 12//2 13//2 8//2
f 8//3 13//3 14//3 9//3
f 9//4 14//4 15//4 10//4
f 12//2 17//2 18//2 13//2
f 13//3 18//3 19//3 14//3
f 16//1 21//1 22//1 17//1
f 17//2 22//2 23//2 18//2
f 18//3 23//3 24//3 19//3
f 19//4 24//4 25//4 20//4
f 22//2 27//2 28//2 23//2
f 23//3 28//3 29//3 24//3
f 26//1 31//1 32//1 27//1
f 27//2 32//2 33//2 28//2
f 28//3 33//3 34//3 29//3
f 29//4 34//4 35//4 30//4
f 32//2 37//2 38//2 33//2
f 33//3 38//3 39//3 34//3
f 47//2 42//2 43//2 48//2
f 48//3 43//3 44//3 49//3
f 1//5 5//5 4//5 3//5 2//5
f 41//6 42//6 43//6 44//6 45//6
f 39//4 49//4 50//4 40//4
f 38//3 48//3 49//3 39//3
f 37//2 47//2 48//2 38//2
f 36//1 46//1 47//1 37//1
usemtl bump_yellow
f 1//1 6//1 7//1 2//1
f 4//4 9//4 10//4 5//4
f 11//1 16//1 17//1 12//1
f 14//4 19//4 20//4 15//4
f 21//1 26//1 27//1 22//1
f 24//4 29//4 30//4 25//4
f 31//1 36//1 37//1 32//1
f 34//4 39//4 40//4 35//4
f 46//1 41//1 42//1 47//1
f 49//4 44//4 45//4 50//4
