# Blender 5.1.2
# www.blender.org
mtllib traffic_hump.mtl
o traffic_bump
v -2.000000 -0.000000 -1.200000
v -2.000000 0.105157 -0.000000
v -2.000000 0.000000 1.200000
v -1.542384 -0.000000 -1.200000
v -1.542384 0.105157 -0.000000
v -1.542384 0.000000 1.200000
v -1.101070 -0.000000 -1.200000
v -1.101070 0.105157 -0.000000
v -1.101070 0.000000 1.200000
v -0.646715 -0.000000 -1.200000
v -0.646715 0.105157 -0.000000
v -0.646715 0.000000 1.200000
v -0.202141 -0.000000 -1.200000
v -0.202141 0.105157 -0.000000
v -0.202141 0.000000 1.200000
v 0.252215 -0.000000 -1.200000
v 0.252215 0.105157 -0.000000
v 0.252215 0.000000 1.200000
v 0.703310 -0.000000 -1.200000
v 0.703310 0.105157 -0.000000
v 0.703310 0.000000 1.200000
v 1.164186 -0.000000 -1.200000
v 1.164186 0.105157 -0.000000
v 1.164186 0.000000 1.200000
v 2.000000 -0.000000 -1.200000
v 2.000000 0.105157 -0.000000
v 2.000000 0.000000 1.200000
v 1.570682 -0.000000 -1.200000
v 1.570682 0.105157 -0.000000
v 1.570682 0.000000 1.200000
v -2.000000 0.092012 0.494894
v -1.542384 0.092012 0.494894
v -1.101070 0.092012 0.494894
v -0.646715 0.092012 0.494894
v -0.202141 0.092012 0.494894
v 0.252215 0.092012 0.494894
v 0.703310 0.092012 0.494894
v 1.164186 0.092012 0.494894
v 1.570682 0.092012 0.494894
v 2.000000 0.092012 0.494894
v -2.000000 0.090440 -0.494894
v -1.542384 0.090440 -0.494894
v -1.101070 0.090440 -0.494894
v -0.646715 0.090440 -0.494894
v -0.202141 0.090440 -0.494894
v 0.252215 0.090440 -0.494894
v 0.703310 0.090440 -0.494894
v 1.164186 0.090440 -0.494894
v 1.570682 0.090440 -0.494894
v 2.000000 0.090440 -0.494894
v -1.542384 0.051383 0.975000
v -1.101070 0.051383 0.975000
v -0.646715 0.051383 0.975000
v -0.202141 0.051383 0.975000
v 0.252215 0.051383 0.975000
v 0.703310 0.051383 0.975000
v -2.000000 0.051383 0.975000
v 2.000000 0.051383 0.975000
v 1.164186 0.051383 0.975000
v 1.570682 0.051383 0.975000
v -1.542384 0.051383 -0.975000
v -1.101070 0.051383 -0.975000
v -0.646715 0.051383 -0.975000
v -0.202141 0.051383 -0.975000
v 0.252215 0.051383 -0.975000
v 0.703310 0.051383 -0.975000
v -2.000000 0.051383 -0.975000
v 2.000000 0.051383 -0.975000
v 1.164186 0.051383 -0.975000
v 1.570682 0.051383 -0.975000
vn -0.0000 -0.9991 0.0426
vn -0.0000 -0.9996 0.0297
vn -0.0000 -0.9991 -0.0431
vn -0.0000 -0.9849 -0.1733
vn -0.0000 -0.9849 0.1730
vn -0.0000 -0.9749 -0.2226
vn -1.0000 -0.0000 -0.0000
vn 1.0000 -0.0000 -0.0000
vn -0.0000 -0.9849 0.1729
vn -0.0000 -0.9996 -0.0266
vn -0.0000 -0.9749 0.2226
s 1
usemtl bump_black
f 41//1 42//1 5//2 2//2
f 33//3 52//4 51//4 32//3
f 64//5 45//1 44//1 63//5
f 42//1 43//1 8//2 5//2
f 34//3 53//4 52//4 33//3
f 51//4 52//4 9//6 6//6
f 43//1 44//1 11//2 8//2
f 35//3 54//4 53//4 34//3
f 66//5 47//1 46//1 65//5
f 44//1 45//1 14//2 11//2
f 36//3 55//4 54//4 35//3
f 53//4 54//4 15//6 12//6
f 45//1 46//1 17//2 14//2
f 37//3 56//4 55//4 36//3
f 70//5 49//1 48//1 69//5
f 46//1 47//1 20//2 17//2
f 38//3 59//4 56//4 37//3
f 55//4 56//4 21//6 18//6
f 47//1 48//1 23//2 20//2
f 40//3 58//4 60//4 39//3
f 49//1 50//1 26//2 29//2
f 39//3 60//4 59//4 38//3
f 1//7 3//7 57//7 31//7 2//7 41//7 67//7
f 25//8 68//8 50//8 26//8 40//8 58//8 27//8
f 59//4 60//4 30//6 24//6
f 62//5 43//1 42//1 61//5
f 48//1 49//1 29//2 23//2
f 61//5 42//1 41//1 67//9
f 63//5 44//1 43//1 62//5
f 65//5 46//1 45//1 64//5
f 69//5 48//1 47//1 66//5
f 68//9 50//1 49//1 70//5
f 23//10 29//10 39//3 38//3
f 29//10 26//10 40//3 39//3
f 20//10 23//10 38//3 37//3
f 17//10 20//10 37//3 36//3
f 14//10 17//10 36//3 35//3
f 11//10 14//10 35//3 34//3
f 8//10 11//10 34//3 33//3
f 5//10 8//10 33//3 32//3
f 2//10 5//10 32//3 31//3
f 22//11 28//11 70//5 69//5
f 16//11 19//11 66//5 65//5
f 10//11 13//11 64//5 63//5
f 4//11 7//11 62//5 61//5
f 32//3 51//4 57//4 31//3
usemtl bump_yellow
f 57//4 51//4 6//6 3//6
f 52//4 53//4 12//6 9//6
f 54//4 55//4 18//6 15//6
f 56//4 59//4 24//6 21//6
f 60//4 58//4 27//6 30//6
f 28//11 25//11 68//9 70//5
f 19//11 22//11 69//5 66//5
f 13//11 16//11 65//5 64//5
f 7//11 10//11 63//5 62//5
f 1//11 4//11 61//5 67//9
