# Blender 5.1.2
# www.blender.org
mtllib water_column.mtl
o WaterColumn
v -0.000000 -0.000000 -0.050000
v 0.035400 0.000000 -0.035400
v 0.050000 0.000000 -0.000000
v 0.035400 0.000000 0.035400
v -0.000000 -0.000000 0.050000
v -0.035400 -0.000000 0.035400
v -0.050000 -0.000000 0.000000
v -0.035400 -0.000000 -0.035400
v -0.000000 0.726041 -0.050000
v 0.035400 0.726041 -0.035400
v 0.050000 0.726041 -0.000000
v 0.035400 0.726041 0.035400
v -0.000000 0.726041 0.050000
v -0.035400 0.726041 0.035400
v -0.050000 0.726041 0.000000
v -0.035400 0.726041 -0.035400
v -0.000000 0.726041 -0.070000
v 0.049500 0.726041 -0.049500
v 0.070000 0.726041 -0.000000
v 0.049500 0.726041 0.049500
v -0.000000 0.726041 0.070000
v -0.049500 0.726041 0.049500
v -0.070000 0.726041 0.000000
v -0.049500 0.726041 -0.049500
v -0.000000 0.926041 -0.070000
v 0.049500 0.926041 -0.049500
v 0.070000 0.926041 -0.000000
v 0.049500 0.926041 0.049500
v -0.000000 0.926041 0.070000
v -0.049500 0.926041 0.049500
v -0.070000 0.926041 0.000000
v -0.049500 0.926041 -0.049500
v -0.000000 0.926041 -0.070000
v 0.049500 0.926041 -0.049500
v 0.070000 0.926041 -0.000000
v 0.049500 0.926041 0.049500
v -0.000000 0.926041 0.070000
v -0.049500 0.926041 0.049500
v -0.070000 0.926041 0.000000
v -0.049500 0.926041 -0.049500
v -0.000000 0.952841 -0.064700
v 0.045700 0.952841 -0.045700
v 0.064700 0.952841 -0.000000
v 0.045700 0.952841 0.045700
v -0.000000 0.952841 0.064700
v -0.045700 0.952841 0.045700
v -0.064700 0.952841 0.000000
v -0.045700 0.952841 -0.045700
v -0.000000 0.975541 -0.049500
v 0.035000 0.975541 -0.035000
v 0.049500 0.975541 -0.000000
v 0.035000 0.975541 0.035000
v -0.000000 0.975541 0.049500
v -0.035000 0.975541 0.035000
v -0.049500 0.975541 0.000000
v -0.035000 0.975541 -0.035000
v -0.000000 0.990741 -0.026800
v 0.018900 0.990741 -0.018900
v 0.026800 0.990741 -0.000000
v 0.018900 0.990741 0.018900
v -0.000000 0.990741 0.026800
v -0.018900 0.990741 0.018900
v -0.026800 0.990741 0.000000
v -0.018900 0.990741 -0.018900
v -0.000000 0.996041 0.000000
v -0.000000 0.996041 0.000000
v -0.000000 0.996041 0.000000
v -0.000000 0.996041 0.000000
v -0.000000 0.996041 0.000000
v -0.000000 0.996041 0.000000
v -0.000000 0.996041 0.000000
v -0.000000 0.996041 0.000000
v -0.021469 0.725149 -0.052660
v -0.021469 0.725149 -0.172714
v 0.021469 0.725149 -0.172714
v 0.021469 0.725149 -0.052660
v -0.021469 0.926041 -0.052660
v -0.021469 0.926041 -0.109931
v 0.021469 0.926041 -0.109931
v 0.021469 0.926041 -0.052660
v -0.000000 0.673710 -0.146459
v 0.013000 0.672608 -0.139041
v 0.013000 0.670405 -0.124203
v -0.000000 0.669304 -0.116785
v -0.013000 0.670405 -0.124203
v -0.013000 0.672608 -0.139041
v -0.000000 0.733059 -0.137647
v 0.013000 0.731958 -0.130228
v 0.013000 0.729754 -0.115391
v -0.000000 0.728653 -0.107972
v -0.013000 0.729754 -0.115391
v -0.013000 0.731958 -0.130228
v -0.005000 0.846168 0.022320
v -0.005000 0.925960 -0.274994
v 0.005000 0.925960 -0.274994
v 0.005000 0.846168 0.022320
v -0.005000 0.878352 0.029678
v -0.005000 0.958144 -0.267635
v 0.005000 0.958144 -0.267635
v 0.005000 0.878352 0.029678
v -0.021469 0.790279 -0.052660
v -0.021469 0.857243 -0.052660
v -0.021469 0.790279 -0.172714
v -0.021469 0.857243 -0.159975
v 0.021469 0.790279 -0.172714
v 0.021469 0.857243 -0.159975
v 0.021469 0.790279 -0.052660
v 0.021469 0.857243 -0.052660
vn -0.3813 -0.0000 0.9245
vn -0.9245 -0.0000 0.3813
vn -0.9245 -0.0000 -0.3813
vn -0.3813 -0.0000 -0.9245
vn 0.3813 -0.0000 -0.9245
vn 0.9245 -0.0000 -0.3813
vn 0.9245 -0.0000 0.3813
vn 0.3813 -0.0000 0.9245
vn -0.3826 -0.0000 0.9239
vn -0.9239 -0.0000 0.3826
vn -0.9239 -0.0000 -0.3826
vn -0.3826 -0.0000 -0.9239
vn 0.3826 -0.0000 -0.9239
vn 0.9239 -0.0000 -0.3826
vn 0.9239 -0.0000 0.3826
vn 0.3826 -0.0000 0.9239
vn -0.0000 1.0000 -0.0000
vn -0.0000 -1.0000 -0.0000
vn -0.3769 -0.1809 0.9084
vn -0.9084 -0.1809 0.3769
vn -0.9084 -0.1809 -0.3769
vn -0.3769 -0.1809 -0.9084
vn 0.3769 -0.1809 -0.9084
vn 0.9084 -0.1809 -0.3769
vn 0.9084 -0.1809 0.3769
vn 0.3769 -0.1809 0.9084
vn -0.3263 -0.5252 0.7859
vn -0.7859 -0.5252 0.3263
vn -0.7859 -0.5252 -0.3263
vn -0.3263 -0.5252 -0.7859
vn 0.3263 -0.5252 -0.7859
vn 0.7859 -0.5252 -0.3263
vn 0.7859 -0.5252 0.3263
vn 0.3263 -0.5252 0.7859
vn -0.2250 -0.8101 0.5414
vn -0.5414 -0.8101 0.2250
vn -0.5414 -0.8101 -0.2250
vn -0.2250 -0.8101 -0.5414
vn 0.2250 -0.8101 -0.5414
vn 0.5414 -0.8101 -0.2250
vn 0.5414 -0.8101 0.2250
vn 0.2250 -0.8101 0.5414
vn -0.0808 -0.9778 0.1934
vn -0.1934 -0.9778 0.0808
vn -0.1934 -0.9778 -0.0808
vn -0.0808 -0.9778 -0.1934
vn 0.0808 -0.9778 -0.1934
vn 0.1934 -0.9778 -0.0808
vn 0.1934 -0.9778 0.0808
vn 0.0808 -0.9778 0.1934
vn -1.0000 -0.0000 -0.0000
vn -0.0000 0.5882 -0.8087
vn 1.0000 -0.0000 -0.0000
vn -0.0000 -0.0000 1.0000
vn -0.4997 -0.1272 0.8568
vn -0.4997 0.1272 -0.8568
vn 0.4997 0.1272 -0.8568
vn 0.4997 -0.1272 0.8568
vn -0.0000 -0.9892 -0.1469
vn -0.0000 -0.9658 -0.2592
vn -0.0000 0.9658 0.2592
vn -0.0000 0.2229 -0.9748
vn -0.0000 -0.2229 0.9748
vn -0.0000 -0.0000 -1.0000
vn -0.0000 0.1869 -0.9824
s 0
usemtl WaterColumnBlue
f 1//1 2//1 10//1 9//1
f 2//2 3//2 11//2 10//2
f 3//3 4//3 12//3 11//3
f 4//4 5//4 13//4 12//4
f 5//5 6//5 14//5 13//5
f 6//6 7//6 15//6 14//6
f 7//7 8//7 16//7 15//7
f 8//8 1//8 9//8 16//8
f 17//9 18//9 26//9 25//9
f 18//10 19//10 27//10 26//10
f 19//11 20//11 28//11 27//11
f 20//12 21//12 29//12 28//12
f 21//13 22//13 30//13 29//13
f 22//14 23//14 31//14 30//14
f 23//15 24//15 32//15 31//15
f 24//16 17//16 25//16 32//16
f 24//17 23//17 22//17 21//17 20//17 19//17 18//17 17//17
f 25//18 26//18 27//18 28//18 29//18 30//18 31//18 32//18
f 33//19 34//19 42//19 41//19
f 34//20 35//20 43//20 42//20
f 35//21 36//21 44//21 43//21
f 36//22 37//22 45//22 44//22
f 37//23 38//23 46//23 45//23
f 38//24 39//24 47//24 46//24
f 39//25 40//25 48//25 47//25
f 40//26 33//26 41//26 48//26
f 41//27 42//27 50//27 49//27
f 42//28 43//28 51//28 50//28
f 43//29 44//29 52//29 51//29
f 44//30 45//30 53//30 52//30
f 45//31 46//31 54//31 53//31
f 46//32 47//32 55//32 54//32
f 47//33 48//33 56//33 55//33
f 48//34 41//34 49//34 56//34
f 49//35 50//35 58//35 57//35
f 50//36 51//36 59//36 58//36
f 51//37 52//37 60//37 59//37
f 52//38 53//38 61//38 60//38
f 53//39 54//39 62//39 61//39
f 54//40 55//40 63//40 62//40
f 55//41 56//41 64//41 63//41
f 56//42 49//42 57//42 64//42
f 57//43 58//43 66//43 65//43
f 58//44 59//44 67//44 66//44
f 59//45 60//45 68//45 67//45
f 60//46 61//46 69//46 68//46
f 61//47 62//47 70//47 69//47
f 62//48 63//48 71//48 70//48
f 63//49 64//49 72//49 71//49
f 64//50 57//50 65//50 72//50
f 73//18 74//18 75//18 76//18
f 77//17 80//17 79//17 78//17
f 102//51 77//51 78//51 104//51
f 104//52 78//52 79//52 106//52
f 106//53 79//53 80//53 108//53
f 108//54 80//54 77//54 102//54
f 81//55 82//55 88//55 87//55
f 82//51 83//51 89//51 88//51
f 83//56 84//56 90//56 89//56
f 84//57 85//57 91//57 90//57
f 85//53 86//53 92//53 91//53
f 86//58 81//58 87//58 92//58
f 87//59 88//59 89//59 90//59 91//59 92//59
f 93//60 94//60 95//60 96//60
f 97//61 100//61 99//61 98//61
f 93//51 97//51 98//51 94//51
f 94//62 98//62 99//62 95//62
f 95//53 99//53 100//53 96//53
f 96//63 100//63 97//63 93//63
f 76//54 107//54 101//54 73//54
f 107//54 108//54 102//54 101//54
f 75//53 105//53 107//53 76//53
f 105//53 106//53 108//53 107//53
f 74//64 103//64 105//64 75//64
f 103//65 104//65 106//65 105//65
f 73//51 101//51 103//51 74//51
f 101//51 102//51 104//51 103//51
