# Blender 5.1.2
# www.blender.org
mtllib water_well.mtl
o water_well
v -0.600000 0.000000 0.600000
v 0.600000 0.000000 0.600000
v 0.600000 -0.000000 -0.600000
v -0.600000 -0.000000 -0.600000
v -0.482064 0.800000 0.482064
v 0.482064 0.800000 0.482064
v 0.482064 0.800000 -0.482064
v -0.482064 0.800000 -0.482064
v -0.591472 2.099099 0.050000
v -0.491472 2.099099 0.050000
v -0.491472 2.099099 -0.050000
v -0.591472 2.099099 -0.050000
v -0.591472 0.800000 0.050000
v -0.491472 0.800000 0.050000
v -0.491472 0.800000 -0.050000
v -0.591472 0.800000 -0.050000
v 0.491460 2.099099 0.050000
v 0.591460 2.099099 0.050000
v 0.591460 2.099099 -0.050000
v 0.491460 2.099099 -0.050000
v 0.491460 0.800000 0.050000
v 0.591460 0.800000 0.050000
v 0.591460 0.800000 -0.050000
v 0.491460 0.800000 -0.050000
v -0.450832 1.285144 -0.000000
v -0.450832 1.329424 0.080000
v -0.450832 1.430203 0.080000
v -0.450832 1.474483 -0.000000
v -0.450832 1.430203 -0.080000
v -0.450832 1.329424 -0.080000
v 0.449909 1.285144 -0.000000
v 0.449909 1.329424 0.080000
v 0.449909 1.430203 0.080000
v 0.449909 1.474483 -0.000000
v 0.449909 1.430203 -0.080000
v 0.449909 1.329424 -0.080000
v -0.700000 1.800000 -0.700000
v -0.700000 1.800000 0.700000
v 0.700000 1.800000 0.700000
v 0.700000 1.800000 -0.700000
v -0.700000 2.100000 -0.000000
v 0.700000 2.100000 -0.000000
v -0.600000 0.800000 0.600000
v 0.600000 0.800000 0.600000
v 0.600000 0.800000 -0.600000
v -0.600000 0.800000 -0.600000
v -0.482064 0.023075 0.482064
v 0.482064 0.023075 0.482064
v 0.482064 0.023075 -0.482064
v -0.482064 0.023075 -0.482064
v -0.700000 1.886184 -0.700000
v 0.700000 1.886183 -0.700000
v -0.700000 2.186183 -0.000000
v 0.700000 2.186183 -0.000000
v -0.700000 1.886184 0.700000
v 0.700000 1.886183 0.700000
v -0.618832 1.353556 -0.000000
v -0.618832 1.365838 0.022189
v -0.618832 1.393790 0.022189
v -0.618832 1.406072 -0.000000
v -0.618832 1.393790 -0.022189
v -0.618832 1.365838 -0.022189
v 0.676520 1.353556 -0.000000
v 0.676520 1.365838 0.022189
v 0.676520 1.393790 0.022189
v 0.676520 1.406072 -0.000000
v 0.676520 1.393790 -0.022189
v 0.676520 1.365838 -0.022189
v 0.673600 0.971841 -0.021901
v 0.673600 1.400899 -0.021901
v 0.673600 0.971841 0.021458
v 0.673600 1.400899 0.021458
v 0.721313 0.971841 -0.021901
v 0.721313 1.400899 -0.021901
v 0.721313 0.971841 0.021458
v 0.721313 1.400899 0.021458
v 0.720990 0.972139 0.021181
v 0.720990 1.012373 0.021181
v 0.720990 0.972140 -0.021996
v 0.720990 1.012373 -0.021996
v 1.010868 0.972139 0.021181
v 1.010868 1.012373 0.021181
v 1.010868 0.972140 -0.021996
v 1.010868 1.012373 -0.021996
v 0.518311 1.523930 0.049958
v 0.518311 1.849450 0.584078
v 0.518311 1.582891 0.051444
v 0.518311 1.874548 0.525970
v 0.570111 1.523930 0.049958
v 0.570111 1.849450 0.584078
v 0.570111 1.582891 0.051444
v 0.570111 1.874548 0.525970
v -0.568613 1.524356 0.051748
v -0.568613 1.849876 0.585868
v -0.568613 1.583318 0.053234
v -0.568613 1.874974 0.527760
v -0.516813 1.524356 0.051748
v -0.516813 1.849876 0.585868
v -0.516813 1.583318 0.053234
v -0.516813 1.874974 0.527760
v -0.516813 1.520408 -0.053253
v -0.516813 1.845928 -0.587373
v -0.516813 1.579369 -0.054739
v -0.516813 1.871026 -0.529265
v -0.568613 1.520408 -0.053253
v -0.568613 1.845928 -0.587373
v -0.568613 1.579369 -0.054739
v -0.568613 1.871026 -0.529265
v 0.570111 1.520834 -0.055043
v 0.570111 1.846354 -0.589163
v 0.570111 1.579796 -0.056529
v 0.570111 1.871452 -0.531055
v 0.518311 1.520834 -0.055043
v 0.518311 1.846354 -0.589163
v 0.518311 1.579796 -0.056529
v 0.518311 1.871452 -0.531055
s 1
usemtl well_wood.002
f 1 2 44 43
f 2 3 45 44
f 3 4 46 45
f 4 1 43 46
f 8 5 47 50
f 9 13 14 10
f 10 14 15 11
f 11 15 16 12
f 12 16 13 9
f 17 21 22 18
f 18 22 23 19
f 19 23 24 20
f 20 24 21 17
f 6 5 43 44
f 7 6 44 45
f 8 7 45 46
f 5 8 46 43
f 6 7 49 48
f 7 8 50 49
f 5 6 48 47
s 0
f 69 71 72 70
f 71 75 76 72
f 75 73 74 76
f 73 69 70 74
f 71 69 73 75
f 76 74 70 72
f 77 78 80 79
f 79 80 84 83
f 83 84 82 81
f 81 82 78 77
f 79 83 81 77
f 84 80 78 82
f 85 86 88 87
f 87 88 92 91
f 91 92 90 89
f 89 90 86 85
f 93 94 96 95
f 95 96 100 99
f 99 100 98 97
f 97 98 94 93
f 101 103 104 102
f 103 107 108 104
f 107 105 106 108
f 105 101 102 106
f 109 111 112 110
f 111 115 116 112
f 115 113 114 116
f 113 109 110 114
s 1
usemtl well_winch.002
f 25 31 32 26
f 26 32 33 27
f 27 33 34 28
f 28 34 35 29
f 29 35 36 30
f 30 36 31 25
f 25 26 27 28 29 30
f 31 36 35 34 33 32
f 57 63 64 58
f 58 64 65 59
f 59 65 66 60
f 60 66 67 61
f 61 67 68 62
f 62 68 63 57
f 57 58 59 60 61 62
f 63 68 67 66 65 64
usemtl well_roof.002
f 37 41 53 51
f 37 40 42 41
f 38 41 42 39
f 51 53 54 52
f 55 56 54 53
f 39 42 54 56
f 41 38 55 53
f 40 37 51 52
f 38 39 56 55
f 42 40 52 54
usemtl well_darkness.002
f 49 50 47 48
