mtllib wayside_cross.mtl
o wayside_cross_latin
# Vertical post
v -0.1 0.0 -0.1
v  0.1 0.0 -0.1
v  0.1 0.0  0.1
v -0.1 0.0  0.1
v -0.1 3.0 -0.1
v  0.1 3.0 -0.1
v  0.1 3.0  0.1
v -0.1 3.0  0.1
# Horizontal bar
v -0.6 1.9 -0.1
v  0.6 1.9 -0.1
v  0.6 1.9  0.1
v -0.6 1.9  0.1
v -0.6 2.1 -0.1
v  0.6 2.1 -0.1
v  0.6 2.1  0.1
v -0.6 2.1  0.1

usemtl Wood
# Post faces
f 1 2 6 5
f 2 3 7 6
f 3 4 8 7
f 4 1 5 8
f 5 6 7 8
f 1 4 3 2
# Bar faces
f 9 10 14 13
f 10 11 15 14
f 11 12 16 15
f 12 9 13 16
f 13 14 15 16
f 9 12 11 10
