mtllib wayside_cross.mtl
o wayside_cross_orthodox
# Vertical post
v -0.1 0.0 -0.1
v  0.1 0.0 -0.1
v  0.1 0.0  0.1
v -0.1 0.0  0.1
v -0.1 3.0 -0.1
v  0.1 3.0 -0.1
v  0.1 3.0  0.1
v -0.1 3.0  0.1
# Main horizontal bar
v -0.6 1.9 -0.1
v  0.6 1.9 -0.1
v  0.6 1.9  0.1
v -0.6 1.9  0.1
v -0.6 2.1 -0.1
v  0.6 2.1 -0.1
v  0.6 2.1  0.1
v -0.6 2.1  0.1
# Top bar (Titulus)
v -0.2 2.45 -0.1
v  0.2 2.45 -0.1
v  0.2 2.45  0.1
v -0.2 2.45  0.1
v -0.2 2.55 -0.1
v  0.2 2.55 -0.1
v  0.2 2.55  0.1
v -0.2 2.55  0.1
# Slanted bar (Suppedaneum)
v -0.3 0.9 -0.1
v  0.3 0.7 -0.1
v  0.3 0.7  0.1
v -0.3 0.9  0.1
v -0.3 1.0 -0.1
v  0.3 0.8 -0.1
v  0.3 0.8  0.1
v -0.3 1.0  0.1

usemtl Wood
# Post faces
f 1 2 6 5
f 2 3 7 6
f 3 4 8 7
f 4 1 5 8
f 5 6 7 8
f 1 4 3 2
# Main bar faces
f 9 10 14 13
f 10 11 15 14
f 11 12 16 15
f 12 9 13 16
f 13 14 15 16
f 9 12 11 10
# Top bar faces
f 17 18 22 21
f 18 19 23 22
f 19 20 24 23
f 20 17 21 24
f 21 22 23 24
f 17 20 19 18
# Slanted bar faces
f 25 26 30 29
f 26 27 31 30
f 27 28 32 31
f 28 25 29 32
f 29 30 31 32
f 25 28 27 26
