# Blender 5.1.2
# www.blender.org
mtllib wind_turbine_rotor.mtl
o Cylinder.001
v -0.002801 -0.005864 0.099641
v -0.003984 -0.008391 -0.099985
v 0.000409 -0.006435 0.099641
v 0.000648 -0.009215 -0.099985
v 0.003474 -0.005325 0.099641
v 0.005071 -0.007613 -0.099985
v 0.005574 -0.002830 0.099641
v 0.008101 -0.004014 -0.099985
v 0.006145 0.000379 0.099641
v 0.008925 0.000618 -0.099985
v 0.005035 0.003445 0.099641
v 0.007323 0.005042 -0.099985
v 0.002541 0.005544 0.099641
v 0.003724 0.008071 -0.099985
v -0.000669 0.006115 0.099641
v -0.000908 0.008896 -0.099985
v -0.003734 0.005005 0.099641
v -0.005331 0.007294 -0.099985
v -0.005834 0.002511 0.099641
v -0.008361 0.003694 -0.099985
v -0.006405 -0.000699 0.099641
v -0.009185 -0.000937 -0.099985
v -0.005295 -0.003764 0.099641
v -0.007583 -0.005361 -0.099985
v -0.016064 -0.034190 -0.058441
v 0.003292 -0.040003 -0.058441
v 0.022756 -0.032954 -0.058441
v 0.036087 -0.017118 -0.058441
v 0.039714 0.003263 -0.058441
v 0.032665 0.022726 -0.058441
v 0.016828 0.036057 -0.058441
v -0.003552 0.039684 -0.058441
v -0.023016 0.032635 -0.058441
v -0.036347 0.016798 -0.058441
v -0.039974 -0.003582 -0.058441
v -0.032924 -0.023045 -0.058441
v 0.001594 -0.042229 0.025977
v 0.022075 -0.031979 0.025977
v 0.035010 -0.016614 0.025977
v 0.038529 0.003161 0.025977
v 0.031690 0.022046 0.025977
v 0.016324 0.034981 0.025977
v -0.003451 0.038500 0.025977
v -0.022335 0.031660 0.025977
v -0.035270 0.016294 0.025977
v -0.038789 -0.003480 0.025977
v -0.033546 -0.025775 0.025977
v -0.016584 -0.035300 0.025977
v 0.002197 -0.027245 0.069850
v 0.015428 -0.022453 0.069850
v 0.024490 -0.011688 0.069850
v 0.026956 0.002167 0.069850
v 0.022164 0.015398 0.069850
v 0.011398 0.024460 0.069850
v -0.002456 0.026926 0.069850
v -0.015688 0.022134 0.069850
v -0.024750 0.011368 0.069850
v -0.027215 -0.002486 0.069850
v -0.022423 -0.015717 0.069850
v -0.011658 -0.024780 0.069850
v -0.016460 -0.035036 -0.030793
v 0.003539 -0.042873 -0.030793
v 0.024404 -0.035316 -0.030793
v 0.038695 -0.018339 -0.030793
v 0.042583 0.003509 -0.030793
v 0.035026 0.024374 -0.030793
v 0.018049 0.038665 -0.030793
v -0.003799 0.042553 -0.030793
v -0.024664 0.034996 -0.030793
v -0.038955 0.018019 -0.030793
v -0.042843 -0.003829 -0.030793
v -0.035286 -0.024693 -0.030793
v -0.013631 -0.028994 -0.079213
v 0.002595 -0.031882 -0.079213
v 0.018091 -0.026269 -0.079213
v 0.028704 -0.013661 -0.079213
v 0.031592 0.002565 -0.079213
v 0.025980 0.018061 -0.079213
v 0.013371 0.028675 -0.079213
v -0.002855 0.031562 -0.079213
v -0.018351 0.025950 -0.079213
v -0.028964 0.013342 -0.079213
v -0.031852 -0.002884 -0.079213
v -0.026240 -0.018380 -0.079213
vn -0.1204 -0.6763 -0.7267
vn 0.2339 -0.6459 -0.7267
vn 0.5255 -0.4424 -0.7267
vn 0.6763 -0.1204 -0.7267
vn 0.6459 0.2339 -0.7267
vn 0.4424 0.5255 -0.7267
vn 0.1204 0.6763 -0.7267
vn -0.2339 0.6459 -0.7267
vn -0.5255 0.4424 -0.7267
vn -0.6763 0.1204 -0.7267
vn -0.0000 -0.0000 -1.0000
vn -0.6459 -0.2339 -0.7267
vn -0.4424 -0.5255 -0.7267
vn -0.0000 -0.0000 1.0000
vn -0.5148 -0.8549 -0.0642
vn -0.9355 -0.3388 -0.1001
vn -0.9796 0.1743 -0.1001
vn -0.7612 0.6408 -0.1001
vn -0.3388 0.9355 -0.1001
vn 0.1743 0.9796 -0.1001
vn 0.6408 0.7612 -0.1001
vn 0.9355 0.3388 -0.1001
vn 0.9796 -0.1743 -0.1001
vn 0.7612 -0.6408 -0.1001
vn 0.3388 -0.9355 -0.1001
vn -0.3270 -0.9428 -0.0642
vn -0.2698 -0.9200 0.2844
vn 0.3920 -0.8787 0.2724
vn 0.7412 -0.6239 0.2478
vn 0.9538 -0.1697 0.2478
vn 0.9109 0.3299 0.2478
vn 0.6239 0.7412 0.2478
vn 0.1697 0.9538 0.2478
vn -0.3299 0.9109 0.2478
vn -0.7412 0.6239 0.2478
vn -0.9538 0.1697 0.2478
vn -0.9259 -0.2616 0.2724
vn -0.5338 -0.7963 0.2844
vn -0.5332 -0.6334 0.5607
vn -0.7785 -0.2820 0.5607
vn -0.8152 0.1451 0.5607
vn -0.6334 0.5332 0.5607
vn -0.2820 0.7785 0.5607
vn 0.1451 0.8152 0.5607
vn 0.5332 0.6334 0.5607
vn 0.7785 0.2820 0.5607
vn 0.8152 -0.1451 0.5607
vn 0.6334 -0.5332 0.5607
vn 0.2820 -0.7785 0.5607
vn -0.1451 -0.8152 0.5607
vn -0.3607 -0.9327 -0.0034
vn 0.3951 -0.9174 0.0470
vn 0.7632 -0.6425 0.0691
vn 0.9822 -0.1748 0.0691
vn 0.9380 0.3397 0.0691
vn 0.6425 0.7632 0.0691
vn 0.1748 0.9822 0.0691
vn -0.3397 0.9380 0.0691
vn -0.7632 0.6425 0.0691
vn -0.9822 0.1748 0.0691
vn -0.9577 -0.2840 0.0470
vn -0.4854 -0.8743 -0.0034
vn -0.5655 -0.7659 -0.3059
vn -0.8792 -0.3184 -0.3545
vn -0.9206 0.1638 -0.3545
vn -0.7154 0.6022 -0.3545
vn -0.3184 0.8792 -0.3545
vn 0.1638 0.9206 -0.3545
vn 0.6022 0.7154 -0.3545
vn 0.8792 0.3184 -0.3545
vn 0.9206 -0.1638 -0.3545
vn 0.7154 -0.6022 -0.3545
vn 0.3184 -0.8792 -0.3545
vn -0.2262 -0.9248 -0.3059
vt 1.000000 0.947973
vt 1.000000 1.000000
vt 0.916667 1.000000
vt 0.916667 0.947973
vt 0.833333 1.000000
vt 0.833333 0.947973
vt 0.750000 1.000000
vt 0.750000 0.947973
vt 0.666667 1.000000
vt 0.666667 0.947973
vt 0.583333 1.000000
vt 0.583333 0.947973
vt 0.500000 1.000000
vt 0.500000 0.947973
vt 0.416667 1.000000
vt 0.416667 0.947973
vt 0.333333 1.000000
vt 0.333333 0.947973
vt 0.250000 1.000000
vt 0.250000 0.947973
vt 0.166667 1.000000
vt 0.166667 0.947973
vt 0.370000 0.457846
vt 0.250000 0.490000
vt 0.130000 0.457846
vt 0.042154 0.370000
vt 0.010000 0.250000
vt 0.042154 0.130000
vt 0.130000 0.042154
vt 0.250000 0.010000
vt 0.370000 0.042154
vt 0.457846 0.130000
vt 0.490000 0.250000
vt 0.457846 0.370000
vt 0.083333 1.000000
vt 0.083333 0.947973
vt 0.000000 1.000000
vt 0.000000 0.947973
vt 0.750000 0.490000
vt 0.870000 0.457846
vt 0.957846 0.370000
vt 0.990000 0.250000
vt 0.957846 0.130000
vt 0.870000 0.042154
vt 0.750000 0.010000
vt 0.630000 0.042154
vt 0.542154 0.130000
vt 0.510000 0.250000
vt 0.542154 0.370000
vt 0.630000 0.457846
vt 0.083333 0.807846
vt 0.083333 0.895946
vt 0.000000 0.895946
vt 0.000000 0.807846
vt 0.166667 0.807846
vt 0.166667 0.895946
vt 0.250000 0.807846
vt 0.250000 0.895946
vt 0.333333 0.807846
vt 0.333333 0.895946
vt 0.416667 0.807846
vt 0.416667 0.895946
vt 0.500000 0.807846
vt 0.500000 0.895946
vt 0.583333 0.807846
vt 0.583333 0.895946
vt 0.666667 0.807846
vt 0.666667 0.895946
vt 0.750000 0.807846
vt 0.750000 0.895946
vt 0.833333 0.807846
vt 0.833333 0.895946
vt 0.916667 0.807846
vt 0.916667 0.895946
vt 1.000000 0.807846
vt 1.000000 0.895946
vt 1.000000 0.574616
vt 1.000000 0.684505
vt 0.916667 0.684505
vt 0.916667 0.574616
vt 0.833333 0.684505
vt 0.833333 0.574616
vt 0.750000 0.684505
vt 0.750000 0.574616
vt 0.666667 0.684505
vt 0.666667 0.574616
vt 0.583333 0.684505
vt 0.583333 0.574616
vt 0.500000 0.684505
vt 0.500000 0.574616
vt 0.416667 0.684505
vt 0.416667 0.574616
vt 0.333333 0.684505
vt 0.333333 0.574616
vt 0.250000 0.684505
vt 0.250000 0.574616
vt 0.166667 0.684505
vt 0.166667 0.574616
vt 0.083333 0.684505
vt 0.083333 0.574616
vt 0.000000 0.684505
vt 0.000000 0.574616
vt 0.083333 0.500000
vt 0.000000 0.500000
vt 0.166667 0.500000
vt 0.250000 0.500000
vt 0.333333 0.500000
vt 0.416667 0.500000
vt 0.500000 0.500000
vt 0.583333 0.500000
vt 0.666667 0.500000
vt 0.750000 0.500000
vt 0.833333 0.500000
vt 0.916667 0.500000
vt 1.000000 0.500000
s 0
f 73/1/1 2/2/1 4/3/1 74/4/1
f 74/4/2 4/3/2 6/5/2 75/6/2
f 75/6/3 6/5/3 8/7/3 76/8/3
f 76/8/4 8/7/4 10/9/4 77/10/4
f 77/10/5 10/9/5 12/11/5 78/12/5
f 78/12/6 12/11/6 14/13/6 79/14/6
f 79/14/7 14/13/7 16/15/7 80/16/7
f 80/16/8 16/15/8 18/17/8 81/18/8
f 81/18/9 18/17/9 20/19/9 82/20/9
f 82/20/10 20/19/10 22/21/10 83/22/10
f 4/23/11 2/24/11 24/25/11 22/26/11 20/27/11 18/28/11 16/29/11 14/30/11 12/31/11 10/32/11 8/33/11 6/34/11
f 83/22/12 22/21/12 24/35/12 84/36/12
f 84/36/13 24/35/13 2/37/13 73/38/13
f 1/39/14 3/40/14 5/41/14 7/42/14 9/43/14 11/44/14 13/45/14 15/46/14 17/47/14 19/48/14 21/49/14 23/50/14
f 72/51/15 36/52/15 25/53/15 61/54/15
f 71/55/16 35/56/16 36/52/16 72/51/16
f 70/57/17 34/58/17 35/56/17 71/55/17
f 69/59/18 33/60/18 34/58/18 70/57/18
f 68/61/19 32/62/19 33/60/19 69/59/19
f 67/63/20 31/64/20 32/62/20 68/61/20
f 66/65/21 30/66/21 31/64/21 67/63/21
f 65/67/22 29/68/22 30/66/22 66/65/22
f 64/69/23 28/70/23 29/68/23 65/67/23
f 63/71/24 27/72/24 28/70/24 64/69/24
f 62/73/25 26/74/25 27/72/25 63/71/25
f 61/75/26 25/76/26 26/74/26 62/73/26
f 60/77/27 48/78/27 37/79/27 49/80/27
f 49/80/28 37/79/28 38/81/28 50/82/28
f 50/82/29 38/81/29 39/83/29 51/84/29
f 51/84/30 39/83/30 40/85/30 52/86/30
f 52/86/31 40/85/31 41/87/31 53/88/31
f 53/88/32 41/87/32 42/89/32 54/90/32
f 54/90/33 42/89/33 43/91/33 55/92/33
f 55/92/34 43/91/34 44/93/34 56/94/34
f 56/94/35 44/93/35 45/95/35 57/96/35
f 57/96/36 45/95/36 46/97/36 58/98/36
f 58/98/37 46/97/37 47/99/37 59/100/37
f 59/100/38 47/99/38 48/101/38 60/102/38
f 23/103/39 59/100/39 60/102/39 1/104/39
f 21/105/40 58/98/40 59/100/40 23/103/40
f 19/106/41 57/96/41 58/98/41 21/105/41
f 17/107/42 56/94/42 57/96/42 19/106/42
f 15/108/43 55/92/43 56/94/43 17/107/43
f 13/109/44 54/90/44 55/92/44 15/108/44
f 11/110/45 53/88/45 54/90/45 13/109/45
f 9/111/46 52/86/46 53/88/46 11/110/46
f 7/112/47 51/84/47 52/86/47 9/111/47
f 5/113/48 50/82/48 51/84/48 7/112/48
f 3/114/49 49/80/49 50/82/49 5/113/49
f 1/115/50 60/77/50 49/80/50 3/114/50
f 48/78/51 61/75/51 62/73/51 37/79/51
f 37/79/52 62/73/52 63/71/52 38/81/52
f 38/81/53 63/71/53 64/69/53 39/83/53
f 39/83/54 64/69/54 65/67/54 40/85/54
f 40/85/55 65/67/55 66/65/55 41/87/55
f 41/87/56 66/65/56 67/63/56 42/89/56
f 42/89/57 67/63/57 68/61/57 43/91/57
f 43/91/58 68/61/58 69/59/58 44/93/58
f 44/93/59 69/59/59 70/57/59 45/95/59
f 45/95/60 70/57/60 71/55/60 46/97/60
f 46/97/61 71/55/61 72/51/61 47/99/61
f 47/99/62 72/51/62 61/54/62 48/101/62
f 36/52/63 84/36/63 73/38/63 25/53/63
f 35/56/64 83/22/64 84/36/64 36/52/64
f 34/58/65 82/20/65 83/22/65 35/56/65
f 33/60/66 81/18/66 82/20/66 34/58/66
f 32/62/67 80/16/67 81/18/67 33/60/67
f 31/64/68 79/14/68 80/16/68 32/62/68
f 30/66/69 78/12/69 79/14/69 31/64/69
f 29/68/70 77/10/70 78/12/70 30/66/70
f 28/70/71 76/8/71 77/10/71 29/68/71
f 27/72/72 75/6/72 76/8/72 28/70/72
f 26/74/73 74/4/73 75/6/73 27/72/73
f 25/76/74 73/1/74 74/4/74 26/74/74
o Cube
v -0.013786 0.029427 -0.063982
v -0.010117 0.505831 -0.077184
v -0.013985 0.029002 -0.072924
v -0.010140 0.505783 -0.078181
v 0.008055 0.029495 -0.064471
v -0.000308 0.506641 -0.077440
v 0.007857 0.029070 -0.073413
v -0.000330 0.506594 -0.078438
v -0.014807 0.220052 -0.072879
v -0.015012 0.219616 -0.082077
v 0.006829 0.220053 -0.082583
v 0.007033 0.220490 -0.073385
v -0.019566 0.056025 -0.074101
v 0.013146 0.056179 -0.074835
v 0.013346 0.056605 -0.065857
v -0.019367 0.056451 -0.065122
vn -0.9996 0.0167 0.0214
vn -0.0246 0.0139 -0.9996
vn 0.9994 0.0253 -0.0234
vn 0.0235 0.0147 0.9996
vn 0.0042 -0.9989 0.0473
vn -0.0834 0.9955 -0.0454
vn 0.0222 0.0467 0.9987
vn 0.9990 0.0374 -0.0240
vn -0.0222 -0.0481 -0.9986
vn -0.9994 0.0288 0.0208
vn -0.9791 -0.2009 0.0313
vn 0.9813 -0.1921 -0.0127
vt 0.475144 0.000000
vt 0.625000 0.000000
vt 0.625000 0.250000
vt 0.475144 0.250000
vt 0.625000 0.500000
vt 0.475144 0.500000
vt 0.625000 0.750000
vt 0.475144 0.750000
vt 0.625000 1.000000
vt 0.475144 1.000000
vt 0.125000 0.500000
vt 0.375000 0.500000
vt 0.375000 0.750000
vt 0.125000 0.750000
vt 0.875000 0.500000
vt 0.875000 0.750000
vt 0.389206 0.750000
vt 0.389206 1.000000
vt 0.389206 0.500000
vt 0.389206 0.250000
vt 0.389206 0.000000
vt 0.375000 0.000000
vt 0.375000 0.250000
vt 0.375000 1.000000
s 0
f 93/116/75 86/117/75 88/118/75 94/119/75
f 94/119/76 88/118/76 92/120/76 95/121/76
f 95/121/77 92/120/77 90/122/77 96/123/77
f 96/123/78 90/122/78 86/124/78 93/125/78
f 87/126/79 91/127/79 89/128/79 85/129/79
f 92/120/80 88/130/80 86/131/80 90/122/80
f 99/132/81 96/123/81 93/125/81 100/133/81
f 98/134/82 95/121/82 96/123/82 99/132/82
f 97/135/83 94/119/83 95/121/83 98/134/83
f 100/136/84 93/116/84 94/119/84 97/135/84
f 85/137/85 100/136/85 97/135/85 87/138/85
f 87/138/83 97/135/83 98/134/83 91/127/83
f 91/127/86 98/134/86 99/132/86 89/128/86
f 89/128/81 99/132/81 100/133/81 85/139/81
o Cube.001
v 0.030572 -0.004027 -0.064273
v 0.441231 -0.245421 -0.079638
v 0.030148 -0.003829 -0.073215
v 0.441184 -0.245399 -0.080635
v 0.019720 -0.022988 -0.064179
v 0.437032 -0.254327 -0.079636
v 0.019295 -0.022789 -0.073122
v 0.436985 -0.254305 -0.080634
v 0.196070 -0.098536 -0.074100
v 0.195634 -0.098332 -0.083298
v 0.185102 -0.117477 -0.083224
v 0.185538 -0.117681 -0.074026
v 0.056323 -0.012516 -0.074669
v 0.040115 -0.040940 -0.074532
v 0.040541 -0.041139 -0.065553
v 0.056749 -0.012715 -0.065690
vn 0.5139 0.8579 -0.0053
vn 0.0069 -0.0063 -1.0000
vn -0.4774 -0.8787 0.0031
vn 0.0185 -0.0070 0.9998
vn -0.8666 0.4963 0.0522
vn 0.9033 -0.4259 -0.0523
vn 0.0468 -0.0219 0.9987
vn -0.4667 -0.8844 0.0025
vn -0.0480 0.0225 -0.9986
vn 0.5242 0.8516 -0.0060
vn 0.3153 0.9490 0.0061
vn -0.6565 -0.7542 0.0144
vt 0.475144 0.000000
vt 0.625000 0.000000
vt 0.625000 0.250000
vt 0.475144 0.250000
vt 0.625000 0.500000
vt 0.475144 0.500000
vt 0.625000 0.750000
vt 0.475144 0.750000
vt 0.625000 1.000000
vt 0.475144 1.000000
vt 0.125000 0.500000
vt 0.375000 0.500000
vt 0.375000 0.750000
vt 0.125000 0.750000
vt 0.875000 0.500000
vt 0.875000 0.750000
vt 0.389206 0.750000
vt 0.389206 1.000000
vt 0.389206 0.500000
vt 0.389206 0.250000
vt 0.389206 0.000000
vt 0.375000 0.000000
vt 0.375000 0.250000
vt 0.375000 1.000000
s 0
f 109/140/87 102/141/87 104/142/87 110/143/87
f 110/143/88 104/142/88 108/144/88 111/145/88
f 111/145/89 108/144/89 106/146/89 112/147/89
f 112/147/90 106/146/90 102/148/90 109/149/90
f 103/150/91 107/151/91 105/152/91 101/153/91
f 108/144/92 104/154/92 102/155/92 106/146/92
f 115/156/93 112/147/93 109/149/93 116/157/93
f 114/158/94 111/145/94 112/147/94 115/156/94
f 113/159/95 110/143/95 111/145/95 114/158/95
f 116/160/96 109/140/96 110/143/96 113/159/96
f 101/161/97 116/160/97 113/159/97 103/162/97
f 103/162/95 113/159/95 114/158/95 107/151/95
f 107/151/98 114/158/98 115/156/98 105/152/98
f 105/152/93 115/156/93 116/157/93 101/163/93
o Cube.002
v -0.017126 -0.023937 -0.064552
v -0.431620 -0.258937 -0.075426
v -0.016927 -0.023513 -0.073494
v -0.431598 -0.258889 -0.076424
v -0.028126 -0.005072 -0.063901
v -0.437236 -0.250853 -0.075167
v -0.027927 -0.004648 -0.072843
v -0.437214 -0.250806 -0.076165
v -0.181843 -0.119965 -0.072642
v -0.181638 -0.119528 -0.081840
v -0.192957 -0.100849 -0.081205
v -0.193162 -0.101285 -0.072007
v -0.037555 -0.041828 -0.074840
v -0.054075 -0.013600 -0.073867
v -0.054274 -0.014026 -0.064889
v -0.037755 -0.042254 -0.065861
vn 0.4862 -0.8733 -0.0306
vn -0.0297 0.0146 -0.9995
vn -0.5225 0.8521 0.0288
vn 0.0055 -0.0299 0.9995
vn 0.8637 0.5021 0.0430
vn -0.8211 -0.5690 -0.0453
vn -0.0216 -0.0471 0.9987
vn -0.5328 0.8458 0.0283
vn 0.0228 0.0477 -0.9986
vn 0.4756 -0.8791 -0.0312
vn 0.6646 -0.7470 -0.0207
vn -0.3250 0.9450 0.0376
vt 0.475144 0.000000
vt 0.625000 0.000000
vt 0.625000 0.250000
vt 0.475144 0.250000
vt 0.625000 0.500000
vt 0.475144 0.500000
vt 0.625000 0.750000
vt 0.475144 0.750000
vt 0.625000 1.000000
vt 0.475144 1.000000
vt 0.125000 0.500000
vt 0.375000 0.500000
vt 0.375000 0.750000
vt 0.125000 0.750000
vt 0.875000 0.500000
vt 0.875000 0.750000
vt 0.389206 0.750000
vt 0.389206 1.000000
vt 0.389206 0.500000
vt 0.389206 0.250000
vt 0.389206 0.000000
vt 0.375000 0.000000
vt 0.375000 0.250000
vt 0.375000 1.000000
s 0
f 125/164/99 118/165/99 120/166/99 126/167/99
f 126/167/100 120/166/100 124/168/100 127/169/100
f 127/169/101 124/168/101 122/170/101 128/171/101
f 128/171/102 122/170/102 118/172/102 125/173/102
f 119/174/103 123/175/103 121/176/103 117/177/103
f 124/168/104 120/178/104 118/179/104 122/170/104
f 131/180/105 128/171/105 125/173/105 132/181/105
f 130/182/106 127/169/106 128/171/106 131/180/106
f 129/183/107 126/167/107 127/169/107 130/182/107
f 132/184/108 125/164/108 126/167/108 129/183/108
f 117/185/109 132/184/109 129/183/109 119/186/109
f 119/186/107 129/183/107 130/182/107 123/175/107
f 123/175/110 130/182/110 131/180/110 121/176/110
f 121/176/105 131/180/105 132/181/105 117/187/105
