<?xml version="1.0" encoding="UTF-8" standalone="no"?>
<!-- Created with Inkscape (http://www.inkscape.org/) -->

<svg
   width="48"
   height="48"
   viewBox="0 0 12.7 12.7"
   version="1.1"
   id="svg5"
   inkscape:version="1.2.1 (9c6d41e410, 2022-07-14)"
   sodipodi:docname="z3dviewer.svg"
   xmlns:inkscape="http://www.inkscape.org/namespaces/inkscape"
   xmlns:sodipodi="http://sodipodi.sourceforge.net/DTD/sodipodi-0.dtd"
   xmlns="http://www.w3.org/2000/svg"
   xmlns:svg="http://www.w3.org/2000/svg">
  <sodipodi:namedview
     id="namedview7"
     pagecolor="#ffffff"
     bordercolor="#666666"
     borderopacity="1.0"
     inkscape:showpageshadow="2"
     inkscape:pageopacity="0.0"
     inkscape:pagecheckerboard="0"
     inkscape:deskcolor="#d1d1d1"
     inkscape:document-units="mm"
     showgrid="true"
     inkscape:zoom="16.871996"
     inkscape:cx="27.91608"
     inkscape:cy="23.055956"
     inkscape:window-width="1920"
     inkscape:window-height="1017"
     inkscape:window-x="1912"
     inkscape:window-y="1062"
     inkscape:window-maximized="1"
     inkscape:current-layer="layer1">
    <inkscape:grid
       type="xygrid"
       id="grid408" />
  </sodipodi:namedview>
  <defs
     id="defs2" />
  <g
     inkscape:label="Layer 1"
     inkscape:groupmode="layer"
     id="layer1">
    <g
       aria-label="3D"
       transform="matrix(0.66592038,0,0,1.1978741,0.66121009,0.67294379)"
       id="text236"
       style="font-size:9.67771px;line-height:1.25;-inkscape-font-specification:'sans-serif, Normal';stroke-width:0.181456">
      <path
         d="M 3.3701269,3.5526038 1.8507265,2.9429081 q 0,-0.00968 0,-0.00968 0.00968,-0.00968 0.00968,-0.019355 0.3387198,-0.7161506 1.0742257,-1.3161685 0.735506,-0.60001804 2.032319,-0.60001804 1.26778,0 1.935542,0.57098484 0.6774396,0.5613072 0.6774396,1.3742348 0,0.5225963 -0.232265,0.8516384 -0.232265,0.3193644 -0.5032409,0.4935632 -0.087099,0.058066 -0.1645211,0.096777 -0.077422,0.038711 -0.1548433,0.067744 v 0.048389 q 0.058066,0.019355 0.1064548,0.038711 0.058066,0.019355 0.1161325,0.048388 0.4064638,0.1838765 0.7451836,0.6193734 0.3483976,0.4258192 0.3483976,1.1806806 0,0.1741988 -0.038711,0.3967861 Q 7.763807,6.9978684 7.6573522,7.2204557 7.4347649,7.7043412 6.8057138,8.1011273 6.1766626,8.4979134 4.8895273,8.4979134 q -0.3580753,0 -0.9097047,-0.067744 Q 3.4281931,8.3624254 2.8475305,8.0043502 2.566877,7.8204737 2.2862234,7.5591756 2.0152475,7.2978774 1.7636271,6.9301244 L 3.1765727,6.078486 q 0.067744,0.087099 0.1258102,0.1645211 0.067744,0.077422 0.1258102,0.1354879 0.4064638,0.4258192 0.7742168,0.532274 0.3774307,0.096777 0.5806626,0.096777 0.5129186,0 0.8419607,-0.2225873 0.3290421,-0.232265 0.3290421,-0.6290511 0,-0.4645301 -0.3774307,-0.667762 Q 5.2088917,5.2752361 4.6959731,5.2752361 H 4.0282111 V 3.8816459 h 0.832283 q 0.067744,0 0.1741988,0 0.1161325,-0.00968 0.2225873,-0.038711 0.1935542,-0.048389 0.3483976,-0.1741988 0.1548433,-0.1354879 0.1548433,-0.4258192 0,-0.058066 -0.019355,-0.135488 Q 5.731488,3.0300075 5.6927772,2.9525858 5.6153555,2.778387 5.4218013,2.6428991 5.2282471,2.4977334 4.8604941,2.4977334 q -0.532274,0 -0.8903492,0.2806536 -0.3483976,0.2806536 -0.600018,0.7742168 z"
         style="font-family:AdverGothic;-inkscape-font-specification:AdverGothic"
         id="path424" />
      <path
         d="m 8.7315865,1.1622095 h 1.8194095 q 0.358075,0 0.92906,0.038711 0.580663,0.029033 1.200036,0.1935542 0.958093,0.2612981 1.751665,0.996804 0.80325,0.735506 0.80325,2.3420058 0,1.8290871 -0.987126,2.6710478 -0.977449,0.832283 -2.148452,1.0161595 -0.241942,0.038711 -0.483885,0.058066 -0.232265,0.019355 -0.46453,0.019355 V 6.8914136 q 0.0097,0 0.01936,0 0.0097,0 0.01936,0 0.0097,0 0.01936,0 0.0097,0 0.01936,0 0.154843,0 0.367753,-0.019355 0.212909,-0.029033 0.435497,-0.1161325 0.183876,-0.067744 0.348397,-0.1741988 0.174199,-0.1064548 0.319364,-0.2806536 0.222588,-0.2709759 0.329043,-0.667762 0.106454,-0.396786 0.106454,-0.8806715 0,-0.9580933 -0.551629,-1.4710119 -0.551647,-0.512919 -1.490385,-0.512919 H 10.773583 V 8.34307 H 8.7315865 Z"
         style="font-family:AdverGothic;-inkscape-font-specification:AdverGothic"
         id="path426" />
    </g>
  </g>
</svg>
